<?xml version="1.0" encoding="utf-8"?>
<!-- Generator: Adobe Illustrator 16.0.0, SVG Export Plug-In . SVG Version: 6.00 Build 0)  -->
<!DOCTYPE svg PUBLIC "-//W3C//DTD SVG 1.1//EN" "http://www.w3.org/Graphics/SVG/1.1/DTD/svg11.dtd">
<svg version="1.1" id="Layer_1" xmlns="http://www.w3.org/2000/svg" xmlns:xlink="http://www.w3.org/1999/xlink" x="0px" y="0px"
	 width="500px" height="200px" viewBox="0 0 500 200" enable-background="new 0 0 500 200" xml:space="preserve">
<rect x="548" y="-155" fill="#3C5A96" width="64" height="64"/>
<rect x="2" y="-216" fill="#3C5A96" width="500" height="201"/>
<text transform="matrix(1 0 0 1 55.7612 -93.4102)" fill="#FFFFFF" font-family="'FacebookLetterFaces'" font-size="76.4478">humanbook</text>
<rect x="511" y="-210" fill="#3C5A96" width="48" height="48"/>
<text transform="matrix(1 0 0 1 524.5322 -162)" fill="#FFFFFF" font-family="'FacebookLetterFaces'" font-size="53.2314">h</text>
<rect x="512" y="-153" fill="#3C5A96" width="32" height="32"/>
<text transform="matrix(1 0 0 1 521.0469 -120.9956)" fill="#FFFFFF" font-family="'FacebookLetterFaces'" font-size="35.4876">h</text>
<rect x="514" y="-109" fill="#3C5A96" width="16" height="16"/>
<text transform="matrix(1 0 0 1 518.5107 -93)" fill="#FFFFFF" font-family="'FacebookLetterFaces'" font-size="17.7438">h</text>
<text transform="matrix(1 0 0 1 566.0439 -91)" fill="#FFFFFF" font-family="'FacebookLetterFaces'" font-size="70.9753">h</text>
<g>
	<text transform="matrix(1 0 0 1 122.6899 -59)" fill="#FFFFFF" font-family="'FacebookLetterFaces'" font-size="24">social media for people</text>
</g>
<text transform="matrix(1 0 0 1 54.2612 122.5898)" fill="#FFFFFF" font-family="'FacebookLetterFaces'" font-size="76.4478">humanbook</text>
<g>
	<line fill="#FFFFFF" x1="607" y1="-160" x2="607" y2="-160"/>
	<line fill="#FFFFFF" x1="618" y1="-160" x2="618" y2="-160"/>
	<line fill="#FFFFFF" x1="584" y1="-160" x2="584" y2="-160"/>
	<line fill="#FFFFFF" x1="596" y1="-160" x2="596" y2="-160"/>
	<path fill="#FFFFFF" d="M623.675-224h-55.35c-2.389,0-4.325,1.937-4.325,4.325v55.35c0,2.389,1.937,4.325,4.325,4.325H584v-53.155
		l12-1.987v18.31c3-1.065,6.471-1.419,8.387-1.419c6.742,0,10.781,1.774,12.413,5.251c0.923,1.349,1.2,5.039,1.2,10.929V-160h5.675
		c2.389,0,4.325-1.937,4.325-4.325v-55.35C628-222.063,626.063-224,623.675-224z"/>
	<path fill="#FFFFFF" d="M603.605-188.158L602.341-188h-0.78c-1.703,0-3.561,0.109-5.561,1.174V-160h11v-24.129
		C607-186.542,605.734-187.732,603.605-188.158z"/>
</g>
</svg>
