<?xml version="1.0" encoding="utf-8"?>
<!-- Generator: Adobe Illustrator 16.0.0, SVG Export Plug-In . SVG Version: 6.00 Build 0)  -->
<!DOCTYPE svg PUBLIC "-//W3C//DTD SVG 1.1//EN" "http://www.w3.org/Graphics/SVG/1.1/DTD/svg11.dtd">
<svg version="1.1" id="Layer_1" xmlns="http://www.w3.org/2000/svg" xmlns:xlink="http://www.w3.org/1999/xlink" x="0px" y="0px"
	 width="64px" height="64px" viewBox="0 0 64 64" enable-background="new 0 0 64 64" xml:space="preserve">
<rect x="-16" y="69" fill="#3C5A96" width="64" height="64"/>
<rect x="-562" y="8" fill="#3C5A96" width="500" height="201"/>
<text transform="matrix(1 0 0 1 -508.2388 130.5898)" fill="#FFFFFF" font-family="'FacebookLetterFaces'" font-size="76.4478">humanbook</text>
<rect x="-53" y="14" fill="#3C5A96" width="48" height="48"/>
<text transform="matrix(1 0 0 1 -39.4678 62)" fill="#FFFFFF" font-family="'FacebookLetterFaces'" font-size="53.2314">h</text>
<rect x="-52" y="71" fill="#3C5A96" width="32" height="32"/>
<text transform="matrix(1 0 0 1 -42.9531 103.0044)" fill="#FFFFFF" font-family="'FacebookLetterFaces'" font-size="35.4876">h</text>
<rect x="-50" y="115" fill="#3C5A96" width="16" height="16"/>
<text transform="matrix(1 0 0 1 -45.4893 131)" fill="#FFFFFF" font-family="'FacebookLetterFaces'" font-size="17.7438">h</text>
<text transform="matrix(1 0 0 1 2.0439 133)" fill="#FFFFFF" font-family="'FacebookLetterFaces'" font-size="70.9753">h</text>
<g>
	<text transform="matrix(1 0 0 1 -441.3101 165)" fill="#FFFFFF" font-family="'FacebookLetterFaces'" font-size="24">social media for people</text>
</g>
<text transform="matrix(1 0 0 1 -509.7388 346.5898)" fill="#FFFFFF" font-family="'FacebookLetterFaces'" font-size="76.4478">humanbook</text>
<g>
	<line fill="#FFFFFF" x1="43" y1="64" x2="43" y2="64"/>
	<line fill="#FFFFFF" x1="54" y1="64" x2="54" y2="64"/>
	<line fill="#FFFFFF" x1="20" y1="64" x2="20" y2="64"/>
	<line fill="#FFFFFF" x1="32" y1="64" x2="32" y2="64"/>
	<path fill="#FFFFFF" d="M59.675,0H4.325C1.937,0,0,1.937,0,4.325v55.35C0,62.063,1.937,64,4.325,64H20V10.845l12-1.987v18.31
		c3-1.065,6.471-1.419,8.387-1.419c6.742,0,10.781,1.774,12.413,5.251c0.923,1.349,1.2,5.039,1.2,10.929V64h5.675
		C62.063,64,64,62.063,64,59.675V4.325C64,1.937,62.063,0,59.675,0z"/>
	<path fill="#FFFFFF" d="M39.605,35.842L38.341,36h-0.78C35.857,36,34,36.109,32,37.174V64h11V39.871
		C43,37.458,41.734,36.268,39.605,35.842z"/>
</g>
</svg>
