<?xml version="1.0" encoding="utf-8"?>
<!-- Generator: Adobe Illustrator 16.0.0, SVG Export Plug-In . SVG Version: 6.00 Build 0)  -->
<!DOCTYPE svg PUBLIC "-//W3C//DTD SVG 1.1//EN" "http://www.w3.org/Graphics/SVG/1.1/DTD/svg11.dtd">
<svg version="1.1" id="Layer_1" xmlns="http://www.w3.org/2000/svg" xmlns:xlink="http://www.w3.org/1999/xlink" x="0px" y="0px"
	 width="500px" height="200px" viewBox="0 0 500 200" enable-background="new 0 0 500 200" xml:space="preserve">
<rect x="548" y="-155" fill="#3C5A96" width="64" height="64"/>
<rect x="2" y="-216" fill="#3C5A96" width="500" height="201"/>
<text transform="matrix(1 0 0 1 55.7612 -93.4102)" fill="#FFFFFF" font-family="'FacebookLetterFaces'" font-size="76.4478">humanbook</text>
<rect x="511" y="-210" fill="#3C5A96" width="48" height="48"/>
<text transform="matrix(1 0 0 1 524.5322 -162)" fill="#FFFFFF" font-family="'FacebookLetterFaces'" font-size="53.2314">h</text>
<rect x="512" y="-153" fill="#3C5A96" width="32" height="32"/>
<text transform="matrix(1 0 0 1 521.0469 -120.9961)" fill="#FFFFFF" font-family="'FacebookLetterFaces'" font-size="35.4876">h</text>
<rect x="514" y="-109" fill="#3C5A96" width="16" height="16"/>
<text transform="matrix(1 0 0 1 518.5107 -93)" fill="#FFFFFF" font-family="'FacebookLetterFaces'" font-size="17.7438">h</text>
<text transform="matrix(1 0 0 1 566.0439 -91)" fill="#FFFFFF" font-family="'FacebookLetterFaces'" font-size="70.9753">h</text>
<g>
	<text transform="matrix(1 0 0 1 122.6899 -59)" fill="#FFFFFF" font-family="'FacebookLetterFaces'" font-size="24">social media for people</text>
</g>
<g enable-background="new    ">
	<path fill="#FFFFFF" d="M93.402,98.815v23.851h-12.69V96.598c0-2.599-1.147-4.128-3.44-4.586l-1.146-0.077h-0.841
		c-1.835,0-3.746,0.611-5.81,1.759v28.973H56.86V65.331l12.614-2.141v19.724c3.364-1.146,6.88-1.529,8.944-1.529
		c7.262,0,11.772,1.911,13.531,5.657C92.943,88.495,93.402,92.47,93.402,98.815z"/>
	<path fill="#FFFFFF" d="M98.753,105.39V81.844h12.767v25.839c0,2.522,1.223,4.128,3.669,4.663c0.765,0.077,1.605,0.153,2.446,0.077
		c1.453-0.077,3.44-0.459,5.504-1.759l0.076-28.82h12.69v40.746h-10.473l-0.459-0.688c-0.229-0.534-0.458-0.993-0.688-1.834
		c-0.994,0.382-5.122,2.828-11.314,3.058c-5.045,0.229-9.403-0.459-12.69-5.733C99.135,115.021,98.753,111.811,98.753,105.39z"/>
	<path fill="#FFFFFF" d="M202.033,98.738v23.852h-12.69V96.445c0-2.522-1.147-4.052-3.517-4.587
		c-2.829-0.535-5.81,0.535-7.874,1.682v29.05h-12.69V96.445c0-2.522-1.147-4.052-3.517-4.587c-0.765-0.076-1.605-0.153-2.446-0.076
		c-1.453,0.229-3.287,0.535-5.352,1.758h-0.076v29.05h-12.537V81.691h8.103h2.217c0.153,0.229,0.306,0.535,0.458,0.764
		c0.229,0.535,0.535,1.07,0.765,1.911c0.764-0.382,4.969-2.904,11.084-3.134h0.688c3.364-0.076,6.575,0.382,9.25,2.599
		c0.077,0,0.153,0,0.229,0.077c3.593-1.3,8.027-2.752,12.919-2.752c7.263,0,11.773,1.911,13.378,5.733
		C201.498,88.495,202.033,92.47,202.033,98.738z"/>
	<path fill="#FFFFFF" d="M241.556,97.516v25.074h-10.397c-0.077-0.229-0.153-0.535-0.229-0.765
		c-0.229-0.535-0.306-1.146-0.382-1.758c-3.669,1.911-7.339,2.981-11.238,2.981h-1.07c-3.746,0-6.728-1.453-8.944-4.357
		c-1.452-2.217-2.217-4.74-2.217-7.568v-0.306c0-4.97,1.758-8.18,5.198-9.785c1.453-0.994,5.045-1.453,10.779-1.453h5.887v-1.376
		c0-2.828-0.382-4.434-1.223-4.893c-0.917-0.688-2.523-0.993-4.74-0.993h-11.773l1.147-10.397h12.614
		c8.027,0,12.996,1.988,14.907,5.963C241.021,90.253,241.556,93.464,241.556,97.516z M224.738,107.912
		c-2.446,0-3.899,0.229-4.434,0.765c-0.382,0.382-0.611,1.07-0.611,2.141c0,2.217,1.146,3.363,3.44,3.363
		c1.605,0,3.593-0.688,5.81-1.682v-4.587H224.738z"/>
	<path fill="#FFFFFF" d="M282.99,98.738v23.852h-12.613V96.445c0-2.522-1.223-4.052-3.594-4.587
		c-0.764-0.076-1.605-0.153-2.445-0.076c-1.453,0.229-3.287,0.535-5.352,1.758v29.05h-12.537V81.768h10.396l0.383,0.765
		c0.229,0.535,0.535,1.07,0.764,1.911c0.842-0.383,4.893-2.905,11.085-3.135c4.893-0.229,9.25,0.383,12.384,5.581
		C282.608,89.03,282.99,92.394,282.99,98.738z"/>
	<path fill="#FFFFFF" d="M324.654,98.738v4.052c0,6.574-0.459,10.703-1.453,12.308c-0.306,0.994-1.223,2.294-2.676,3.746
		c-3.058,2.829-8.256,4.281-15.672,4.281c-5.121,0-10.625-0.535-16.664-1.682V65.331l12.537-2.217v19.646
		c3.439-1.146,6.956-1.528,9.02-1.528c7.264,0,11.697,1.911,13.455,5.657C324.195,88.495,324.654,92.47,324.654,98.738z
		 M308.523,91.858h-1.07h-0.841c-1.987,0-3.976,0.535-5.886,1.682v19.035l3.669,0.229h0.993c3.594,0,5.734-1.146,6.346-3.517
		c0.229-0.688,0.306-1.452,0.306-2.446V96.445C312.04,93.923,310.894,92.394,308.523,91.858z"/>
	<path fill="#FFFFFF" d="M364.559,98.433v7.492c0,7.874-2.828,12.995-8.408,15.442c-2.752,1.146-6.04,1.758-9.938,1.758
		c-8.333,0-13.837-2.752-16.36-8.18c-1.146-2.217-1.758-4.969-1.758-8.333v-8.944c0-7.95,3.44-13.072,10.32-15.289
		c2.37-0.688,4.664-1.146,7.339-1.146h1.224c8.791,0,14.143,3.363,16.588,9.785C364.253,93.081,364.559,95.527,364.559,98.433z
		 M349.27,92.317c-0.688-0.383-1.529-0.459-2.446-0.459h-0.993c-2.217,0-3.822,0.917-4.74,2.752c-0.229,0.688-0.383,1.452-0.383,2.6
		v10.243c0,3.517,1.836,5.275,5.505,5.275h0.306c2.904,0,4.74-1.3,5.428-3.822c0-0.688,0.076-1.453,0.076-2.6v-8.333
		C352.021,94.764,351.104,92.853,349.27,92.317z"/>
	<path fill="#FFFFFF" d="M403.164,98.433v7.492c0,7.874-2.828,12.995-8.41,15.442c-2.752,1.146-6.039,1.758-9.938,1.758
		c-8.332,0-13.836-2.752-16.359-8.18c-1.146-2.217-1.758-4.969-1.758-8.333v-8.944c0-7.95,3.439-13.072,10.32-15.289
		c2.369-0.688,4.662-1.146,7.338-1.146h1.225c8.791,0,14.143,3.363,16.588,9.785C402.857,93.081,403.164,95.527,403.164,98.433z
		 M387.875,92.317c-0.688-0.383-1.529-0.459-2.447-0.459h-0.994c-2.217,0-3.822,0.917-4.738,2.752
		c-0.23,0.688-0.383,1.452-0.383,2.6v10.243c0,3.517,1.834,5.275,5.504,5.275h0.307c2.904,0,4.738-1.3,5.428-3.822
		c0-0.688,0.076-1.453,0.076-2.6v-8.333C390.627,94.764,389.709,92.853,387.875,92.317z"/>
	<path fill="#FFFFFF" d="M419.523,99.809h0.076l11.391-17.965h13.531l-12.461,19.724l12.461,21.022H430.99L419.6,103.631h-0.076
		v18.959h-12.537V65.331l12.537-2.217V99.809z"/>
</g>
<g>
	<line fill="none" x1="607" y1="-160" x2="607" y2="-160"/>
	<line fill="none" x1="618" y1="-160" x2="618" y2="-160"/>
	<line fill="none" x1="584" y1="-160" x2="584" y2="-160"/>
	<line fill="none" x1="596" y1="-160" x2="596" y2="-160"/>
	<path fill="#FFFFFF" d="M623.675-224h-55.35c-2.39,0-4.325,1.937-4.325,4.325v55.35c0,2.389,1.938,4.325,4.325,4.325H584v-53.155
		l12-1.987v18.31c3-1.065,6.471-1.419,8.387-1.419c6.742,0,10.781,1.774,12.413,5.251c0.923,1.349,1.2,5.039,1.2,10.929V-160h5.675
		c2.39,0,4.325-1.937,4.325-4.325v-55.35C628-222.063,626.062-224,623.675-224z"/>
	<path fill="#FFFFFF" d="M603.605-188.158L602.341-188h-0.78c-1.702,0-3.561,0.109-5.561,1.174V-160h11v-24.129
		C607-186.542,605.734-187.732,603.605-188.158z"/>
</g>
</svg>
