<?xml version="1.0" encoding="utf-8"?>
<!-- Generator: Adobe Illustrator 16.0.0, SVG Export Plug-In . SVG Version: 6.00 Build 0)  -->
<!DOCTYPE svg PUBLIC "-//W3C//DTD SVG 1.1//EN" "http://www.w3.org/Graphics/SVG/1.1/DTD/svg11.dtd">
<svg version="1.1" xmlns="http://www.w3.org/2000/svg" xmlns:xlink="http://www.w3.org/1999/xlink" x="0px" y="0px" width="640px"
	 height="400px" viewBox="0 0 640 400" enable-background="new 0 0 640 400" xml:space="preserve">
<g id="newsfeed">
	<text transform="matrix(1 0 0 1 147 130.9995)" fill="#FF0000" font-family="'MyriadPro-Regular'" font-size="12">auth container</text>
</g>
<g id="create_acc">
	<g>
		<path fill-rule="evenodd" clip-rule="evenodd" fill="#E6E6E6" d="M0,0.734C0,0.65,0,0.191,0,0.108
			c0.497-0.255,639.501-0.171,640,0c0,0.833,0,1.792,0,2.626c-10.258-0.067-20.514,0.085-30.772,0.015
			c-10.287-0.07-20.578-0.015-30.867-0.015s-20.578,0-30.866,0c-10.33,0-20.663,0-30.993,0c-10.288,0-20.576,0-30.866,0
			c-10.288-0.001-20.578-0.001-30.867-0.003c-1.033-0.249-2.067-0.716-3.101-0.716c-85.885-0.032-171.771-0.028-257.656-0.026
			c-1.915-0.001-3.829-0.004-5.745-0.004c-15.537,0-31.075,0-46.612,0c-46.445,0-92.89-0.001-139.335,0.005
			C1.296,1.989,0.264,2.097,0,0.734z"/>
		<path fill-rule="evenodd" clip-rule="evenodd" fill="#D8D8D8" d="M0,17.983c0-0.5,0-1,0-1.5c3.598-0.152,7.195-0.309,10.793-0.449
			c0.369-0.014,0.741,0.077,1.112,0.117c1.031,0.111,2.061,0.318,3.092,0.319c58.791,0.015,117.582,0.013,176.372,0.013
			c0.458,0,0.942,0.078,1.366-0.045c0.297-0.087,0.512-0.456,0.765-0.698c0.742,0.083,1.484,0.236,2.227,0.236
			c85.325,0.012,170.65,0.013,255.975-0.01c0.934,0,1.864-0.315,2.799-0.484c0.734,0.168,1.466,0.482,2.2,0.482
			c61.101,0.022,122.2,0.02,183.3,0.02c0,0.667,0,1.333,0,2c-3.994,0.006-7.987,0.012-11.982,0.017
			c-0.625-0.005-1.25-0.016-1.873-0.016C417.43,17.983,208.715,17.983,0,17.983z"/>
		<path fill-rule="evenodd" clip-rule="evenodd" fill="#E4E4E4" d="M0,0.108c0.263,1.363,1.296,1.881,2.319,1.881
			c46.445-0.006,92.89-0.005,139.335-0.005c15.538,0,31.075,0,46.612,0c1.916,0,3.83,0.003,5.745,0.004
			c-0.674,0.497-1.349,0.993-2.023,1.49c-0.573-0.082-1.146-0.234-1.719-0.234C149.114,3.233,107.958,3.23,66.802,3.255
			c-0.934,0.001-1.869,0.314-2.803,0.481c-0.26-0.089-0.521-0.179-0.782-0.268c-0.278-0.074-0.556-0.21-0.834-0.212
			c-2.698-0.018-5.395-0.018-8.093-0.003c-0.18,0-0.359,0.156-0.539,0.24c-0.498,0.498-0.997,0.995-1.496,1.493
			c-0.173,0.001-0.345,0.002-0.518,0.002c-0.061-0.933-0.776-1.213-1.489-1.497c-0.429-0.086-0.857-0.241-1.288-0.247
			c-2.327-0.024-4.653-0.028-6.979,0c-0.653,0.008-1.304,0.148-1.956,0.228c-0.347,0.432-0.693,0.864-1.041,1.296
			c-0.081,0.654-0.162,1.308-0.243,1.963c-2.35,0.009-4.7,0.018-7.049,0.027c-2.283-1.373-3.748-1.022-5.162,1.234
			c-1.404-0.088-2.807-0.177-4.211-0.265c-1.664-2.412-3.978-2.412-5.643,0c-1.452,0-2.905,0-4.357,0
			C11.62,6.506,10.598,5.815,9.159,5.99C7.812,6.154,6.886,6.905,6.473,8.23C4.315,8.065,2.158,7.899,0,7.734C0,5.4,0,2.441,0,0.108
			z"/>
		<path fill-rule="evenodd" clip-rule="evenodd" fill="#E0E0E0" d="M640,7.734c0,0.667,0,1.333,0,2c-21.001,0-42.001,0-63,0
			c-10.667,0-21.332,0-32,0c-22.581,0-45.162,0-67.741-0.001c0-0.667,0-1.333,0-1.999C531.506,7.734,585.753,7.734,640,7.734z"/>
		<path fill-rule="evenodd" clip-rule="evenodd" fill="#E1E1E1" d="M640,7.734c-54.247,0-108.494,0-162.741,0
			c-0.002-0.667-0.002-1.334-0.003-2c54.248,0,108.497,0,162.744,0C640,6.4,640,7.067,640,7.734z"/>
		<path fill-rule="evenodd" clip-rule="evenodd" fill="#E3E3E3" d="M454.768,2.731c10.289,0.001,20.579,0.002,30.867,0.003
			c10.29,0,20.578,0,30.866,0c10.33,0,20.663,0,30.993,0c10.288,0,20.577,0,30.866,0s20.58-0.055,30.867,0.015
			c10.259,0.07,20.515-0.082,30.772-0.015c0,0.583,0,1.167,0,1.75c-8.733,0-17.467,0-26.199,0c-44.389,0-88.777-0.004-133.165,0.013
			c-1.765,0.001-3.493,0.061-4.893-1.261c-4.838,0-9.677-0.009-14.515,0.008c-0.567,0.002-1.134,0.147-1.7,0.227
			c-0.349,0.434-0.695,0.867-1.044,1.299c-0.081,0.654-0.16,1.309-0.24,1.962c-0.744,0-1.486,0-2.23,0
			C456.127,5.234,455.843,3.859,454.768,2.731z"/>
		<path fill-rule="evenodd" clip-rule="evenodd" fill="#DADADA" d="M193.5,15.739c-0.253,0.243-0.468,0.611-0.765,0.698
			c-0.424,0.124-0.908,0.045-1.366,0.045c-58.791,0-117.582,0.002-176.372-0.013c-1.031,0-2.061-0.208-3.092-0.319
			c-0.371-0.04-0.743-0.131-1.112-0.117C7.195,16.174,3.598,16.332,0,16.483c0-0.999,0-1.999,0-3c12.266,0,24.53,0.004,36.795-0.011
			c0.652,0,1.304-0.157,1.956-0.241c0.085-0.084,0.171-0.169,0.256-0.253c0.584,0.494,1.168,0.989,1.752,1.483
			c-0.003,0.069-0.016,0.14-0.004,0.207c0.003,0.021,0.07,0.044,0.107,0.044c3.008,0.001,6.016,0.002,9.024-0.009
			c0.035,0,0.069-0.158,0.104-0.242c0.583-0.496,1.167-0.99,1.75-1.485c0.173,0,0.345-0.001,0.518-0.002
			c0.584,0.495,1.168,0.989,1.751,1.484c-0.004,0.069-0.017,0.14-0.008,0.208c0.004,0.02,0.07,0.045,0.107,0.045
			c2.963,0.014,5.927,0.027,8.891,0.04c0.803,0.244,1.606,0.701,2.409,0.702c41.627,0.035,83.254,0.032,124.881,0.02
			c0.57,0,1.14-0.156,1.708-0.24c0.085-0.086,0.171-0.172,0.256-0.259C192.671,15.229,193.085,15.485,193.5,15.739z"/>
		<path fill-rule="evenodd" clip-rule="evenodd" fill="#DBDBDB" d="M640,12.983c0,0.5,0,1.001,0,1.501
			c-39.347,0-78.694-0.002-118.04,0.01c-0.737,0-1.475,0.156-2.209,0.239c-0.084,0-0.167,0-0.251,0
			c-0.652-0.083-1.304-0.238-1.956-0.239c-13.515-0.014-27.028-0.01-40.544-0.01c-0.167-0.085-0.334-0.171-0.501-0.256
			c0.163-0.33,0.328-0.66,0.491-0.989c0.089-0.085,0.176-0.17,0.265-0.256C531.504,12.983,585.752,12.983,640,12.983z"/>
		<path fill-rule="evenodd" clip-rule="evenodd" fill="#DEDEDE" d="M640,12.983c-54.248,0-108.496,0-162.745,0
			c0.001-0.5,0.004-1,0.005-1.499c22.58,0,45.159,0,67.74,0c10.668,0,21.333,0,32,0c20.999,0,41.999,0,63,0
			C640,11.983,640,12.483,640,12.983z"/>
		<path fill-rule="evenodd" clip-rule="evenodd" fill="#DADADA" d="M519.5,14.733c0.084,0,0.167,0,0.251,0
			c40.082,0,80.165,0,120.249,0c0,0.417,0,0.833,0,1.25c-61.1,0-122.199,0.002-183.3-0.02c-0.734,0-1.466-0.314-2.2-0.482
			c0.417-0.666,0.833-1.332,1.25-1.998c0.089-0.417,0.177-0.835,0.264-1.252c0.744,0,1.486,0,2.229,0
			c0.081,0.333,0.161,0.664,0.243,0.995c0.343,0.428,0.685,0.856,1.026,1.284c0.165,0.078,0.332,0.156,0.498,0.234
			c0.443,0.08,0.886,0.227,1.33,0.229c4.273,0.017,8.547,0.017,12.82,0c0.443-0.002,0.888-0.149,1.332-0.229
			c0.07-0.078,0.14-0.156,0.212-0.233c0.265-0.094,0.529-0.188,0.795-0.282c0.167,0.085,0.334,0.171,0.501,0.256
			c0.652,0.083,1.305,0.238,1.955,0.238C492.472,14.737,505.986,14.733,519.5,14.733z"/>
		<path fill-rule="evenodd" clip-rule="evenodd" fill="#E3E3E3" d="M475.743,3.236c1.399,1.321,3.128,1.262,4.893,1.261
			c44.388-0.017,88.776-0.013,133.165-0.013c8.732,0,17.466,0,26.199,0c0,0.417,0,0.833,0,1.25c-54.247,0-108.496,0-162.744,0
			c-0.09-0.249-0.179-0.498-0.27-0.747c-0.417-0.424-0.834-0.849-1.252-1.273C475.736,3.555,475.74,3.395,475.743,3.236z"/>
		<path fill-rule="evenodd" clip-rule="evenodd" fill="#DEDEDE" d="M38.751,13.232c-0.652,0.084-1.304,0.24-1.956,0.241
			C24.53,13.487,12.266,13.483,0,13.483c0-1.917,0-3.833,0-5.75C2.158,7.899,4.315,8.065,6.473,8.23
			c0.035,2.267,0.792,3.478,2.332,3.728c2.542,0.413,4.109-1.473,3.518-4.231c1.452,0,2.905,0,4.357,0
			c-0.586,2.725,0.755,4.534,3.159,4.259c2.019-0.231,2.993-1.9,2.484-4.259c1.404,0.088,2.807,0.177,4.211,0.265
			c0.173,0.95,0.097,2.055,0.57,2.819c1.024,1.646,2.909,1.605,4.846,0.116c0.521,0.102,1.041,0.28,1.564,0.292
			c1.743,0.037,3.486,0.014,5.229,0.014C38.745,11.9,38.748,12.566,38.751,13.232z"/>
		<path fill-rule="evenodd" clip-rule="evenodd" fill="#DEDEDE" d="M640,11.484c-21.001,0-42.001,0-63,0c0-0.583,0-1.167,0-1.75
			c20.999,0,41.999,0,63,0C640,10.317,640,10.9,640,11.484z"/>
		<path fill-rule="evenodd" clip-rule="evenodd" fill="#DBDBDB" d="M640,14.733c-40.084,0-80.167,0-120.249,0
			c0.734-0.083,1.472-0.239,2.209-0.239c39.346-0.013,78.693-0.01,118.04-0.01C640,14.567,640,14.651,640,14.733z"/>
		<path fill-rule="evenodd" clip-rule="evenodd" fill="#C0C0C0" d="M456.014,12.23c-0.087,0.417-0.175,0.835-0.264,1.252
			c-0.833-0.968-1.072-2.09-1.016-3.353c0.07-1.595,0.017-3.195,0.017-4.793c-0.25,1.775-0.221,3.549-0.265,5.322
			c-0.019,0.856-0.177,1.708-0.272,2.562c0.007-0.326,0.016-0.652,0.022-0.978c0-0.169,0.002-0.339,0.002-0.508
			c0.001-0.5,0.001-1.001,0.001-1.501c0-0.417,0-0.833,0-1.25c0.008-0.417,0.021-0.833,0.022-1.25
			c0.016-3.713-0.279-4.013-3.933-4.013c-59.448,0-118.896-0.001-178.344,0c-25.911,0-51.823,0.006-77.735,0.011
			c0.001-0.085,0.001-0.17,0.002-0.255c86.134,0,172.267,0,258.403,0c0-0.08,0-0.161,0-0.241c-86.135,0-172.269,0-258.402,0
			c-1.235,0.486-1.459,1.479-1.526,2.689c-0.146,2.621,0.691,5.377-0.977,7.808c-0.079-0.004-0.16-0.007-0.24-0.009
			c-0.006-0.247-0.014-0.494-0.021-0.741c0-0.5,0-1.001-0.001-1.501c0-0.917-0.001-1.832-0.003-2.749c0-0.751,0-1.5,0-2.251
			c0.005-0.583,0.009-1.166,0.014-1.748c0.005-0.082,0.009-0.164,0.011-0.247c0.16-0.336,0.319-0.673,0.478-1.009
			c0.674-0.497,1.349-0.993,2.023-1.49c85.885-0.001,171.771-0.005,257.656,0.026c1.033,0,2.067,0.468,3.101,0.716
			c1.075,1.128,1.359,2.503,1.246,4.001C456.014,8.564,456.014,10.398,456.014,12.23z"/>
		<path fill-rule="evenodd" clip-rule="evenodd" fill="#BBBBBB" d="M191.75,13.733c1.667-2.431,0.831-5.188,0.977-7.808
			c0.067-1.21,0.291-2.203,1.526-2.689c0,0.08,0,0.161,0,0.241c-0.001,0.085-0.001,0.17-0.002,0.255
			c-0.333,0.332-0.664,0.666-0.996,0.998c-0.085,2.187-0.196,4.373-0.237,6.561c-0.012,0.645,0.172,1.293,0.266,1.94
			c0.833,1.042,1.984,1.036,3.178,1.036c65.388-0.011,130.776-0.009,196.167-0.01c0.458,0,0.916-0.009,1.373-0.014
			c19.266,0.005,38.53,0.021,57.795-0.03c0.809-0.002,1.612-0.646,2.416-0.992c0.099-0.853,0.257-1.706,0.275-2.562
			c0.044-1.773,0.015-3.547,0.265-5.322c0,1.598,0.054,3.198-0.017,4.793c-0.057,1.263,0.183,2.385,1.016,3.353
			c-0.417,0.667-0.833,1.333-1.25,1.998c-0.935,0.169-1.865,0.484-2.799,0.484c-85.324,0.023-170.649,0.022-255.975,0.01
			c-0.742,0-1.484-0.154-2.227-0.236c-0.415-0.254-0.829-0.51-1.244-0.764C192.087,14.561,191.918,14.147,191.75,13.733z
			 M452.624,14.681c-0.009-0.04-0.017-0.081-0.024-0.12c-85.913,0-171.829,0-257.743,0c0,0.04,0,0.08,0,0.12
			C280.778,14.681,366.702,14.681,452.624,14.681z"/>
		<path fill-rule="evenodd" clip-rule="evenodd" fill="#E3E3E3" d="M191.988,3.479c-0.159,0.336-0.318,0.672-0.478,1.009
			C149.34,4.486,107.171,4.485,65,4.484c-0.085,0.088-0.17,0.176-0.255,0.264c-0.082-0.005-0.164-0.011-0.246-0.016
			c-0.166-0.332-0.333-0.664-0.5-0.996c0.935-0.167,1.869-0.48,2.803-0.481c41.156-0.024,82.312-0.022,123.467-0.011
			C190.843,3.244,191.416,3.397,191.988,3.479z"/>
		<path fill-rule="evenodd" clip-rule="evenodd" fill="#F8F8F8" d="M50.25,3.491c0.712,0.284,1.428,0.564,1.489,1.497
			c-0.004,1.58-0.009,3.161-0.013,4.741c-2.238,0.083-4.475,0.167-6.712,0.25c-1.02-0.601-1.042-1.232-0.139-2.002
			c0.521-0.443,0.937-1.008,1.4-1.519c-0.125-0.114-0.249-0.227-0.374-0.341c-1.088,0.906-2.237,1.749-2.892,3.101
			c-0.396,0.168-0.782,0.45-1.189,0.482c-0.927,0.074-1.864,0.027-2.796,0.028c-0.013-1.654-0.026-3.307-0.039-4.961
			c0.347-0.432,0.693-0.864,1.041-1.296C43.434,3.479,46.841,3.485,50.25,3.491z"/>
		<path fill-rule="evenodd" clip-rule="evenodd" fill="#F9F9F9" d="M63.999,3.736c0.167,0.332,0.333,0.664,0.5,0.996
			c-0.007,1.249-0.014,2.499-0.021,3.749c-1.41,0-2.818,0.001-4.227,0.003c-1.042-0.676-1.662-1.944-2.862-2.396
			c-0.122,0.14-0.245,0.279-0.367,0.417c0.492,0.504,0.983,1.008,1.476,1.512C58,8.172,57.507,8.442,57.004,8.46
			c-1.574,0.058-3.152,0.021-4.729,0.02c-0.006-1.164-0.013-2.329-0.019-3.494c0.499-0.498,0.998-0.996,1.496-1.493
			c3.155-0.008,6.31-0.017,9.465-0.024C63.478,3.558,63.739,3.647,63.999,3.736z"/>
		<path fill-rule="evenodd" clip-rule="evenodd" fill="#909090" d="M12.322,7.728c0.591,2.758-0.976,4.644-3.518,4.231
			c-1.54-0.25-2.296-1.461-2.332-3.728C6.886,6.905,7.812,6.154,9.159,5.99C10.598,5.815,11.62,6.506,12.322,7.728z"/>
		<path fill-rule="evenodd" clip-rule="evenodd" fill="#909090" d="M22.321,7.728c0.509,2.359-0.465,4.028-2.484,4.259
			c-2.403,0.274-3.745-1.535-3.159-4.259C18.344,5.316,20.657,5.316,22.321,7.728z"/>
		<path fill-rule="evenodd" clip-rule="evenodd" fill="#909090" d="M31.948,10.928c-1.937,1.489-3.821,1.53-4.846-0.116
			c-0.474-0.764-0.397-1.869-0.57-2.819c1.414-2.256,2.879-2.607,5.162-1.234C32.683,8.093,32.771,9.482,31.948,10.928z"/>
		<path fill-rule="evenodd" clip-rule="evenodd" fill="#DFDFDF" d="M31.948,10.928c0.823-1.446,0.734-2.834-0.254-4.169
			c2.349-0.009,4.699-0.019,7.049-0.027c0,1.5-0.001,3.001-0.001,4.502c-1.743,0-3.487,0.022-5.229-0.014
			C32.989,11.208,32.47,11.029,31.948,10.928z"/>
		<path fill-rule="evenodd" clip-rule="evenodd" fill="#CBCBCB" d="M52.256,4.986c0.006,1.165,0.013,2.33,0.019,3.495
			c-0.005,1.499-0.009,2.997-0.015,4.495c-0.173,0-0.345,0.001-0.518,0.002c-0.005-1.083-0.011-2.165-0.016-3.248
			c0.004-1.581,0.009-3.161,0.013-4.741C51.911,4.988,52.083,4.987,52.256,4.986z"/>
		<path fill-rule="evenodd" clip-rule="evenodd" fill="#CDCDCD" d="M50.25,3.491c-3.409-0.006-6.816-0.013-10.223-0.019
			c0.652-0.08,1.303-0.22,1.956-0.228c2.326-0.027,4.653-0.023,6.979,0C49.392,3.25,49.82,3.405,50.25,3.491z"/>
		<path fill-rule="evenodd" clip-rule="evenodd" fill="#CDCDCD" d="M63.217,3.468c-3.155,0.008-6.31,0.016-9.465,0.024
			c0.179-0.083,0.358-0.239,0.539-0.24c2.698-0.015,5.395-0.015,8.093,0.003C62.661,3.258,62.938,3.394,63.217,3.468z"/>
		<path fill-rule="evenodd" clip-rule="evenodd" fill="#C9C9C9" d="M38.742,11.233c0-1.501,0.001-3.001,0.001-4.502
			c0.081-0.655,0.162-1.309,0.243-1.963c0.013,1.654,0.026,3.308,0.039,4.961c-0.006,1.083-0.012,2.166-0.017,3.249
			c-0.085,0.084-0.171,0.169-0.256,0.253C38.748,12.566,38.745,11.9,38.742,11.233z"/>
		<path fill-rule="evenodd" clip-rule="evenodd" fill="#DEDEDE" d="M545,11.484c-22.581,0-45.16,0-67.741,0c0-0.584,0-1.167,0-1.751
			c22.579,0.001,45.16,0.001,67.741,0.001C545,10.317,545,10.9,545,11.484z"/>
		<path fill-rule="evenodd" clip-rule="evenodd" fill="#DEDEDE" d="M545,11.484c0-0.583,0-1.167,0-1.75c10.668,0,21.333,0,32,0
			c0,0.583,0,1.167,0,1.75C566.333,11.484,555.668,11.484,545,11.484z"/>
		<path fill-rule="evenodd" clip-rule="evenodd" fill="#C9C9C9" d="M477.259,9.732c0,0.584,0,1.167,0,1.751
			c0,0.5-0.003,0.999-0.004,1.499c-0.089,0.085-0.176,0.171-0.265,0.256c-0.004-1.086-0.008-2.173-0.015-3.259
			c0.005-1.665,0.009-3.329,0.011-4.993c0.091,0.249,0.18,0.498,0.27,0.747c0.001,0.667,0.001,1.333,0.003,2
			C477.259,8.399,477.259,9.066,477.259,9.732z"/>
		<path fill-rule="evenodd" clip-rule="evenodd" fill="#F7F7F7" d="M476.986,4.986c-0.002,1.665-0.006,3.329-0.009,4.993
			c-0.453,0.001-0.908,0.027-1.359,0c-1.463-0.088-2.927-0.195-4.391-0.296c0.074-1.497-0.318-2.792-1.662-3.624
			c-1.149-0.71-2.35-0.739-3.522-0.062c-1.419,0.818-1.846,2.138-1.77,3.687c-0.436,0.099-0.867,0.273-1.304,0.284
			c-1.481,0.035-2.964,0.012-4.446,0.012c-0.013-1.736-0.026-3.474-0.039-5.209c0.349-0.433,0.695-0.866,1.044-1.299
			c4.745,0.003,9.491-0.002,14.237,0.02c0.656,0.003,1.312,0.145,1.969,0.223C476.152,4.137,476.569,4.562,476.986,4.986z"/>
		<path fill-rule="evenodd" clip-rule="evenodd" fill="#E0E0E0" d="M456.014,12.23c0-1.833,0-3.666,0-5.499c0.744,0,1.486,0,2.23,0
			c0,1.833-0.002,3.666-0.002,5.498C457.5,12.23,456.758,12.23,456.014,12.23z"/>
		<path fill-rule="evenodd" clip-rule="evenodd" fill="#CCCCCC" d="M475.734,3.713c-0.656-0.078-1.312-0.22-1.969-0.223
			c-4.746-0.022-9.492-0.017-14.237-0.02c0.566-0.079,1.133-0.224,1.7-0.227c4.838-0.017,9.677-0.008,14.515-0.008
			C475.74,3.395,475.736,3.555,475.734,3.713z"/>
		<path fill-rule="evenodd" clip-rule="evenodd" fill="#C9C9C9" d="M458.242,12.23c0-1.832,0.002-3.666,0.002-5.498
			c0.08-0.654,0.159-1.309,0.24-1.962c0.013,1.736,0.026,3.474,0.039,5.209c-0.013,1.083-0.026,2.165-0.038,3.246
			C458.403,12.895,458.323,12.563,458.242,12.23z"/>
		<path fill-rule="evenodd" clip-rule="evenodd" fill="#DADADA" d="M191.75,13.733c0.168,0.414,0.337,0.828,0.506,1.242
			c-0.085,0.086-0.17,0.172-0.256,0.258c-41.85,0-83.699,0-125.549,0c-0.541,0-1.105,0.086-1.617-0.041
			c-0.477-0.119-0.895-0.469-1.339-0.717c0.253-0.246,0.506-0.493,0.759-0.739c0.614,0.082,1.228,0.237,1.843,0.237
			c41.235,0.011,82.471,0.011,123.706,0c0.569,0,1.139-0.162,1.708-0.249C191.59,13.727,191.671,13.729,191.75,13.733z"/>
		<path fill-rule="evenodd" clip-rule="evenodd" fill="#F4F4F4" d="M64.254,13.736c-0.253,0.246-0.506,0.493-0.759,0.739
			c-0.095,0.011-0.19,0.021-0.286,0.032c-3.065-0.016-6.132-0.032-9.198-0.048c-0.583-0.495-1.167-0.989-1.751-1.484
			c0.005-1.498,0.01-2.996,0.015-4.495c1.578,0,3.156,0.038,4.73-0.02C57.507,8.442,58,8.172,58.497,8.017
			c0.991,0.542,1.053,1.14,0.192,1.906c-0.559,0.497-1.022,1.1-1.528,1.655c0.146,0.135,0.292,0.269,0.438,0.404
			c0.898-0.926,1.812-1.839,2.678-2.793c0.113-0.125-0.012-0.465-0.026-0.705c1.409-0.001,2.817-0.002,4.227-0.003
			c0.005,1.589,0.009,3.178,0.015,4.766C64.413,13.41,64.333,13.573,64.254,13.736z"/>
		<path fill-rule="evenodd" clip-rule="evenodd" fill="#F2F2F2" d="M39.007,12.979c0.005-1.083,0.011-2.166,0.017-3.249
			c0.933-0.001,1.869,0.046,2.796-0.028c0.407-0.033,0.793-0.314,1.188-0.482c0.991,0.906,1.983,1.812,2.974,2.717
			c0.111-0.106,0.223-0.213,0.334-0.321c-0.435-0.545-0.869-1.09-1.304-1.636c2.237-0.083,4.474-0.167,6.712-0.25
			c0.005,1.083,0.011,2.165,0.016,3.248c-0.584,0.495-1.167,0.989-1.75,1.485c-3.077,0-6.155,0-9.231,0
			C40.176,13.967,39.591,13.473,39.007,12.979z"/>
		<path fill-rule="evenodd" clip-rule="evenodd" fill="#DADADA" d="M63.209,14.507c0.095-0.01,0.191-0.021,0.286-0.032
			c0.444,0.248,0.862,0.598,1.339,0.717c0.511,0.126,1.076,0.041,1.617,0.041c41.85,0,83.7,0,125.549,0
			c-0.569,0.083-1.139,0.24-1.708,0.24c-41.626,0.012-83.253,0.015-124.881-0.02c-0.803-0.001-1.606-0.458-2.409-0.702
			C63.071,14.67,63.141,14.589,63.209,14.507z"/>
		<path fill-rule="evenodd" clip-rule="evenodd" fill="#A8A8A8" d="M40.76,14.462c3.077,0,6.154,0,9.231,0
			c-0.035,0.083-0.069,0.241-0.104,0.241c-3.009,0.011-6.017,0.01-9.024,0.009c-0.038,0-0.104-0.023-0.107-0.044
			C40.744,14.602,40.757,14.531,40.76,14.462z"/>
		<path fill-rule="evenodd" clip-rule="evenodd" fill="#A9A9A9" d="M63.209,14.507c-0.069,0.082-0.138,0.163-0.208,0.245
			c-2.963-0.013-5.927-0.026-8.891-0.04c-0.038,0-0.104-0.025-0.107-0.045c-0.009-0.068,0.004-0.139,0.008-0.208
			C57.077,14.475,60.144,14.491,63.209,14.507z"/>
		<path fill-rule="evenodd" clip-rule="evenodd" fill="#F2F2F2" d="M458.485,13.226c0.012-1.082,0.025-2.164,0.038-3.246
			c1.482,0,2.965,0.023,4.446-0.012c0.437-0.011,0.868-0.185,1.304-0.284c0.59,0.765,1.036,1.745,1.799,2.251
			c1.897,1.262,3.979,0.279,5.155-2.251c1.464,0.101,2.928,0.208,4.391,0.296c0.451,0.027,0.906,0.001,1.359,0
			c0.005,1.086,0.009,2.173,0.013,3.259c-0.163,0.33-0.328,0.66-0.491,0.989c-0.266,0.094-0.53,0.188-0.795,0.282
			c-5.398-0.001-10.794-0.001-16.192-0.001C459.17,14.082,458.828,13.654,458.485,13.226z"/>
		<path fill-rule="evenodd" clip-rule="evenodd" fill="#DBDBDB" d="M519.5,14.733c-13.514,0-27.028,0.004-40.545-0.011
			c-0.65,0-1.303-0.155-1.955-0.238c13.516,0,27.029-0.004,40.544,0.01C518.196,14.495,518.848,14.651,519.5,14.733z"/>
		<path fill-rule="evenodd" clip-rule="evenodd" fill="#A7A7A7" d="M459.512,14.509c5.398,0,10.794,0,16.192,0.001
			c-0.072,0.078-0.142,0.156-0.212,0.233c-5.16,0-10.321,0-15.482,0C459.844,14.666,459.677,14.587,459.512,14.509z"/>
		<path fill-rule="evenodd" clip-rule="evenodd" fill="#D8D8D8" d="M460.01,14.744c5.161,0,10.322,0,15.482,0
			c-0.444,0.08-0.889,0.227-1.332,0.229c-4.273,0.017-8.547,0.017-12.82,0C460.896,14.971,460.453,14.823,460.01,14.744z"/>
		<path fill-rule="evenodd" clip-rule="evenodd" fill="#F7F7F7" d="M193.254,4.73c0.332-0.333,0.664-0.666,0.996-0.998
			c25.913-0.005,51.824-0.011,77.735-0.011c59.448-0.002,118.896,0,178.344,0c3.653,0,3.948,0.3,3.933,4.013
			c-0.001,0.417-0.015,0.833-0.022,1.25c-0.562,0-1.125-0.001-1.688-0.001c-0.175-0.997-0.331-2.003-1.144-2.658
			c-0.099,0.052-0.199,0.104-0.298,0.156c0.214,0.417,0.427,0.835,0.641,1.252c-0.149,0.37-0.297,0.739-0.55,1.371
			c-0.342-0.575-0.503-0.849-0.667-1.122c-0.239-0.213-0.479-0.427-0.72-0.641c-0.062,0.055-0.126,0.111-0.19,0.166
			c0.138,0.408,0.275,0.816,0.412,1.223c-0.306-0.294-0.648-0.561-0.909-0.891c-0.263-0.332-0.444-0.727-0.662-1.094
			c-0.747,0.407-1.496,0.815-2.245,1.222c-0.735-0.052-1.316,0.09-1.266,1.017c-50.436,0.001-100.87,0.003-151.306-0.008
			c-1.41,0-2.821-0.139-4.233-0.214c-1.374-0.961-2.233-0.745-2.891,0.726c-0.165-0.001-0.328-0.002-0.494-0.005
			c-0.352-0.422-0.637-1.1-1.069-1.211c-0.76-0.197-1.611-0.032-2.423-0.048c-0.705-0.014-1.075,0.29-1.071,1.01
			c-0.229-0.167-0.455-0.334-0.683-0.501c-1.161-0.813-1.894-0.75-2.281,0.18c0.475,0.021,0.959,0.043,1.443,0.065
			c-0.02,0.096-0.041,0.192-0.062,0.288c-0.599,0.251-1.199,0.501-1.799,0.751c-0.18-0.262-0.358-0.523-0.537-0.785
			c-0.246-1.072-1.033-1.042-1.898-1.005c-0.904,0.039-0.889,0.642-0.935,1.256c-0.753,0.162-1.509,0.324-2.264,0.486
			c0.026-0.936-0.255-1.66-1.32-1.749c-0.912-0.078-1.527,0.295-1.668,1.263c-0.319,0.084-0.639,0.168-0.958,0.252
			c-0.094-0.726,0.8-1.668-0.727-2.264c-0.091,0.435-0.185,0.876-0.279,1.318c-0.246,0.398-0.491,0.797-0.737,1.195
			c-0.068-0.541-0.136-1.081-0.203-1.622c-0.121,0.003-0.242,0.006-0.363,0.01c-0.078,0.287-0.158,0.573-0.236,0.86
			c-0.262,0.181-0.527,0.362-0.79,0.543c-0.497-0.186-0.992-0.372-1.488-0.559c0.029-0.112,0.059-0.226,0.089-0.339
			c0.452,0.021,0.904,0.041,1.354,0.061c0.027-0.133,0.053-0.266,0.081-0.398c-0.488-0.104-1.059-0.409-1.444-0.255
			c-0.422,0.169-0.672,0.763-0.999,1.171c-0.167,0.093-0.333,0.186-0.5,0.278c-0.255-0.447-0.46-1.232-0.774-1.28
			c-1.03-0.156-1.688-0.703-2.255-1.475c-0.081,0.612-0.135,1.23-0.259,1.834c-0.032,0.161-0.276,0.28-0.423,0.418
			c-0.298-0.808-0.952-1.281-1.7-0.957c-0.555,0.24-0.903,0.957-1.345,1.461c-0.177-0.001-0.355-0.002-0.532-0.003
			c0.026-0.455,0.055-0.909,0.081-1.364c-0.116-0.022-0.232-0.044-0.349-0.066c-0.212,0.522-0.425,1.044-0.67,1.652
			c-0.318-0.658-0.569-1.179-0.987-2.044c-0.405,0.882-0.645,1.406-0.934,2.038c-0.271-0.615-0.485-1.104-0.701-1.593
			c-0.088,0.021-0.175,0.042-0.264,0.062c-0.046,0.264-0.093,0.527-0.14,0.791c-0.748,1.244-1.979,0.61-3.004,0.777
			c0.219-0.531,0.438-1.062,0.678-1.644c-0.592-0.094-1.272-0.37-1.471,0.641c-0.233,0-0.466,0.001-0.699,0.001
			c-0.638-0.238-1.379-0.792-1.884-0.627c-0.498,0.162-0.754,1.056-1.116,1.628c-0.255-0.399-0.511-0.798-0.764-1.197
			c-0.119-0.433-0.239-0.866-0.358-1.299c-0.216,0.037-0.433,0.073-0.65,0.11c0,0.795,0,1.592,0,2.387c-0.246,0-0.492,0-0.74,0
			c-0.312-1.75-0.346-1.777-2.157-1.747c-0.208,0.003-0.413-0.007-0.62-0.01c-0.224,0.334-0.449,0.669-0.675,1.004
			c-0.321-0.874-0.976-1.172-1.84-0.983c-0.91,0.2-1.191,0.886-1.196,1.736c-1.003,0-2.007,0-3.009,0.001
			c0.219-0.529,0.436-1.059,0.675-1.638c-0.738-0.188-1.418-0.243-1.467,0.886c-0.223,0-0.446-0.001-0.667-0.001
			c-0.372-0.73-0.956-1.278-1.767-0.969c-0.52,0.197-0.884,0.8-1.318,1.221c-0.737,0.168-1.474,0.335-2.211,0.502
			c-0.206-0.546-0.395-1.552-0.621-1.561c-1.084-0.042-1.529-0.837-2.149-1.445c-0.076,0.354-0.197,0.704-0.223,1.062
			c-0.123,1.675-0.121,1.682-1.773,1.695c-0.243,0.001-0.487,0-0.73,0c0.154-1.806,1.179-0.425,1.956-0.593
			c-0.174-0.383-0.417-0.804-0.731-0.868c-0.982-0.199-1.809,0.036-2.02,1.208c-0.457,0.134-1.006,0.671-1.216-0.277
			c0.271-0.249,0.543-0.497,1.069-0.977c-0.854,0-1.344,0-1.833,0c-0.242,0.585-0.484,1.171-0.727,1.756
			c-0.063-0.792-0.016-1.712-1.133-1.744c-0.472-0.014-0.95,0.279-1.426,0.433c0.054,0.115,0.11,0.229,0.165,0.344
			c0.476,0,0.952,0,1.427,0c-0.002,0.073-0.003,0.147-0.007,0.22c-0.595,0.249-1.191,0.497-1.788,0.745
			c-0.181-0.005-0.361-0.01-0.542-0.016c0.025-0.865-0.203-1.575-1.184-1.736c-0.985-0.162-1.573,0.301-1.806,1.25
			c-0.141,0.083-0.281,0.166-0.421,0.249c-0.574-0.298-1.165-0.568-1.714-0.907c-0.244-0.151-0.402-0.44-0.601-0.667
			c0.311-0.129,0.625-0.37,0.931-0.359c0.357,0.011,0.707,0.241,1.06,0.376c0.07-0.131,0.14-0.262,0.21-0.392
			c-0.468-0.255-0.927-0.684-1.409-0.714c-0.451-0.028-1.256,0.292-1.323,0.59c-0.121,0.54,0.191,1.176,0.323,1.772
			c-1.622,0.996-3.331,0.54-5.028,0.305c0.012-0.165,0.019-0.33,0.035-0.494c0.103-1.075-0.143-2.117-1.22-2.436
			c-0.727-0.215-1.746-0.136-2.391,0.235c-0.932,0.534-1.31,1.549-0.83,2.679c-1.274,0.088-2.55,0.177-3.825,0.265
			C193.259,8.231,193.256,6.481,193.254,4.73z"/>
		<path fill-rule="evenodd" clip-rule="evenodd" fill="#F2F2F2" d="M254.975,9.731c0.177,0.001,0.355,0.002,0.532,0.003
			c0.113,0.353,0.12,0.833,0.361,1.03c0.405,0.333,0.941,0.606,1.453,0.672c0.325,0.042,0.705-0.337,1.06-0.526
			c-0.723-0.397-1.588,0.584-1.827-0.49c0.733-0.437,1.366-0.813,1.998-1.19c0.147-0.139,0.391-0.257,0.423-0.418
			c0.124-0.604,0.178-1.222,0.259-1.834c-0.008,1.028-0.061,2.059-0.005,3.084c0.021,0.438,0.184,1.173,0.42,1.232
			c0.594,0.15,1.363,0.175,1.873-0.1c0.396-0.213,0.505-0.955,0.742-1.462c0.167-0.092,0.333-0.185,0.5-0.277
			c0.597,0.36,1.195,0.72,1.793,1.081c-0.343,0.264-0.599,0.286-0.851,0.257c-0.245-0.027-0.484-0.105-0.929-0.209
			c0.547,1.092,1.298,1.033,1.989,0.759c0.745-0.293,0.697-0.934,0.403-1.57c0.263-0.181,0.528-0.362,0.79-0.543
			c0.059,0.696,0.118,1.393,0.177,2.089c0.134,0.002,0.269,0.005,0.402,0.008c0.075-0.449,0.148-0.896,0.223-1.345
			c0.246-0.398,0.491-0.797,0.737-1.195c0.086,0.594,0.098,1.212,0.281,1.773c0.116,0.356,0.485,0.628,0.742,0.938
			c0.063-0.079,0.128-0.158,0.191-0.236c-0.07-0.51-0.139-1.019-0.209-1.528c0.319-0.084,0.639-0.168,0.958-0.252
			c0.039,0.906,0.15,1.831,1.272,1.951c0.464,0.049,0.964-0.263,1.447-0.411c-0.048-0.078-0.098-0.156-0.146-0.234
			c-0.542-0.054-1.083-0.108-1.623-0.162c0.006-0.171,0.013-0.342,0.02-0.512c0.673-0.048,1.346-0.097,2.018-0.146
			c0.755-0.162,1.511-0.324,2.264-0.486c0.06,0.61,0.12,1.221,0.181,1.831c0.139-0.002,0.28-0.003,0.419-0.005
			c0.065-0.583,0.063-1.183,0.22-1.74c0.078-0.28,0.444-0.478,0.68-0.714c0.179,0.244,0.455,0.465,0.516,0.736
			c0.128,0.562,0.141,1.151,0.2,1.729c0.158,0.002,0.318,0.003,0.474,0.004c0.048-0.697,0.096-1.395,0.144-2.092
			c0.179,0.262,0.357,0.523,0.535,0.785c-0.12,1.062,0.373,1.478,1.419,1.47c1-0.007,1.397-0.415,1.27-1.409
			c-0.055-0.441,0.003-0.897,0.012-1.346c0.228,0.167,0.454,0.334,0.683,0.501c0.063,0.69,0.126,1.379,0.188,2.068
			c0.138-0.003,0.276-0.006,0.414-0.009c0.057-0.547,0.055-1.111,0.195-1.636c0.081-0.297,0.398-0.529,0.609-0.791
			c0.18,0.25,0.45,0.478,0.521,0.756c0.131,0.513,0.145,1.056,0.208,1.586c0.111-0.007,0.224-0.014,0.334-0.021
			c0.051-0.518,0.031-1.055,0.176-1.545c0.085-0.291,0.431-0.505,0.658-0.754c0.163,0.257,0.411,0.494,0.473,0.773
			c0.123,0.537,0.141,1.097,0.202,1.648c0.144-0.009,0.289-0.019,0.433-0.028c0.051-0.598,0.1-1.197,0.151-1.796
			c0.166,0.002,0.329,0.004,0.494,0.005c0.37,1.869,0.47,1.96,2.235,2.023c0.621,0.158,1.244,0.454,1.866,0.455
			c30.011,0.042,60.022,0.067,90.035,0.076c11.279,0.003,22.56-0.036,33.838-0.057c10.697,0,21.393,0.004,32.09-0.008
			c0.712,0,1.558,0.225,1.911-0.748c0.078-0.584,0.155-1.168,0.234-1.751c0.089,0.086,0.177,0.172,0.266,0.258
			c0.264,0.707,0.527,1.413,0.791,2.12c0.469-0.2,0.938-0.398,1.406-0.598c0.186,0.083,0.371,0.167,0.558,0.249
			c0.828,0.078,1.654,0.154,2.483,0.23c0,0.169-0.002,0.339-0.002,0.508c-0.793,0.247-1.584,0.708-2.379,0.709
			c-19.285,0.041-38.57,0.032-57.857,0.032c-17.745,0-35.488,0-53.233,0c-48.235,0-96.471,0.004-144.707-0.031
			c-0.932-0.001-1.864-0.469-2.795-0.719c-0.002-0.75-0.002-1.5-0.003-2.25c1.275-0.088,2.55-0.176,3.825-0.265
			c0.661,0.431,1.371,1.279,1.974,1.208c1.348-0.156,2.366,0.146,3.282,1.062c0.007,0.007,0.111-0.082,0.034-0.024
			c-0.308-0.775-0.595-1.503-0.884-2.231c1.697,0.235,3.406,0.691,5.028-0.304c0.281,0.057,0.625,0.035,0.832,0.191
			c0.31,0.235,0.524,0.596,0.779,0.902c-0.432,0.067-0.868,0.199-1.295,0.179c-0.263-0.013-0.515-0.255-0.956-0.495
			c0.193,1.322,1.003,1.302,1.768,1.291c1.167-0.017,1.406-0.802,1.396-1.768c0.14-0.083,0.28-0.166,0.421-0.249
			c0.04,0.907,0.151,1.832,1.273,1.951c0.462,0.049,0.964-0.263,1.448-0.411c-0.049-0.078-0.099-0.156-0.148-0.234
			c-0.541-0.054-1.081-0.108-1.62-0.162c0.005-0.171,0.012-0.341,0.019-0.512c0.672-0.049,1.345-0.098,2.018-0.147
			c0.18,0.005,0.36,0.011,0.542,0.016c-0.063,0.92,0.183,1.491,1.284,1.518c1.132,0.027,1.592-0.417,1.477-1.517
			c0.242-0.585,0.484-1.171,0.727-1.756c0,0.98,0,1.96,0,2.94c0.124,0.002,0.248,0.006,0.373,0.009
			c0.13-0.657,0.261-1.315,0.391-1.972c0.21,0.948,0.759,0.411,1.216,0.277c0.041,0.906,0.164,1.792,1.272,1.969
			c0.636,0.102,1.295,0.061,1.519-0.835c-1.724,0.276-1.724,0.276-1.996-0.881c0.244,0,0.487,0.001,0.73,0
			c1.653-0.013,1.65-0.02,1.773-1.695c0.026-0.357,0.147-0.708,0.223-1.062c0.001,1.401,0.001,2.802,0.001,4.203
			c0.156-0.001,0.312-0.002,0.468-0.003c0.04-0.473-0.012-0.98,0.149-1.408c0.135-0.361,0.52-0.629,0.793-0.938
			c0.202,0.319,0.488,0.616,0.584,0.964c0.133,0.482,0.12,1.004,0.171,1.509c0.124,0.009,0.248,0.018,0.373,0.026
			c0.077-0.449,0.153-0.897,0.231-1.347c0.737-0.167,1.474-0.334,2.211-0.502c0.029,0.285-0.049,0.681,0.109,0.834
			c0.451,0.44,0.953,0.989,1.52,1.112c0.777,0.171,1.275-0.415,1.389-1.217c0.046-0.324,0.046-0.654,0.067-0.981
			c0.221,0,0.444,0.001,0.667,0.001c0.058,0.695,0.113,1.391,0.17,2.085c0.134,0.003,0.268,0.006,0.401,0.009
			c0.075-0.447,0.147-0.895,0.221-1.342c1.002-0.001,2.006-0.001,3.009-0.001c0.286,0.799,0.591,1.624,1.664,1.481
			c0.417-0.055,0.802-0.338,1.202-0.517c-0.718-0.434-1.585,0.539-1.833-0.524c0.737-0.439,1.37-0.815,2.002-1.192
			c0.226-0.335,0.451-0.67,0.676-1.004c0,0.981,0,1.961,0,2.941c0.146,0.001,0.292,0.003,0.439,0.004
			c0.05-0.519,0.014-1.068,0.182-1.544c0.112-0.317,0.519-0.53,0.792-0.79c0.192,0.286,0.477,0.548,0.556,0.862
			c0.133,0.523,0.134,1.079,0.19,1.621c0.126,0.005,0.252,0.011,0.38,0.017c0.078-0.452,0.157-0.903,0.236-1.354
			c0.248,0,0.494,0,0.74,0c0.082,0.75,0.165,1.501,1.008,1.431c0-1.018,0-1.823,0-2.629c0.253,0.399,0.509,0.798,0.764,1.197
			c0.285,0.795,0.587,1.621,1.658,1.481c0.417-0.055,0.807-0.333,1.209-0.51c-0.711-0.45-1.574,0.519-1.891-0.712
			c0.638-0.556,2.086,0.293,2.023-1.26c0.233,0,0.466,0,0.699-0.001c0.053,0.778,0.105,1.555,0.159,2.332
			c0.137,0.007,0.275,0.013,0.41,0.02c0.076-0.45,0.15-0.899,0.224-1.349c1.025-0.167,2.256,0.467,3.004-0.776
			c0.303,0.75,0.606,1.5,0.91,2.25c0.118-0.02,0.237-0.041,0.354-0.061c0.255-0.519,0.509-1.039,0.804-1.641
			c0.312,0.644,0.566,1.166,0.988,2.036C254.473,10.873,254.724,10.302,254.975,9.731z"/>
		<path fill-rule="evenodd" clip-rule="evenodd" fill="#E0E0E0" d="M191.485,8.733c0.001,0.917,0.003,1.832,0.003,2.749
			c-42.244,0-84.486,0-126.729,0c0-0.917,0-1.832-0.001-2.749c22.914,0,45.828,0,68.743,0c10.667,0,21.333,0,32,0
			C174.162,8.734,182.824,8.733,191.485,8.733z"/>
		<path fill-rule="evenodd" clip-rule="evenodd" fill="#E3E3E3" d="M64.745,4.748C64.83,4.66,64.915,4.572,65,4.484
			c0.737,0.083,1.472,0.239,2.209,0.239c41.429,0.012,82.86,0.011,124.29,0.011c-0.004,0.582-0.009,1.166-0.014,1.748
			c-8.661,0-17.323,0.001-25.985,0.002c-10.667,0-21.333,0-32,0c-22.915,0-45.829-0.001-68.743-0.001
			C64.753,5.904,64.749,5.327,64.745,4.748z"/>
		<path fill-rule="evenodd" clip-rule="evenodd" fill="#DCDCDC" d="M64.759,11.482c42.243,0,84.486,0,126.729,0
			c0,0.5,0,1.001,0,1.501c-42.244,0-84.489,0-126.734,0.001C64.756,12.483,64.758,11.982,64.759,11.482z"/>
		<path fill-rule="evenodd" clip-rule="evenodd" fill="#DCDCDC" d="M64.755,12.984c42.245-0.001,84.49-0.001,126.734-0.001
			c0.007,0.247,0.015,0.494,0.021,0.741c-0.569,0.087-1.138,0.249-1.708,0.249c-41.234,0.012-82.47,0.012-123.706,0
			c-0.615,0-1.229-0.155-1.843-0.237c0.079-0.163,0.158-0.326,0.238-0.489C64.58,13.159,64.667,13.072,64.755,12.984z"/>
		<path fill-rule="evenodd" clip-rule="evenodd" fill="#F2F2F2" d="M394,12.983c19.287,0,38.572,0.009,57.857-0.032
			c0.795-0.001,1.586-0.462,2.379-0.709c-0.007,0.326-0.016,0.652-0.022,0.978c-0.807,0.345-1.61,0.989-2.419,0.992
			c-19.265,0.052-38.529,0.035-57.795,0.03C394,13.823,394,13.403,394,12.983z"/>
		<path fill-rule="evenodd" clip-rule="evenodd" fill="#B3B3B3" d="M194.252,3.477c0-0.08,0-0.161,0-0.241
			c86.133,0,172.268,0,258.402,0c0,0.08,0,0.161,0,0.241C366.52,3.477,280.386,3.477,194.252,3.477z"/>
		<path fill-rule="evenodd" clip-rule="evenodd" fill="#E0E0E0" d="M165.5,6.484c8.663,0,17.324-0.001,25.985-0.002
			c0,0.751,0,1.5,0,2.251c-8.661,0-17.323,0-25.985,0C165.5,7.984,165.5,7.234,165.5,6.484z"/>
		<path fill-rule="evenodd" clip-rule="evenodd" fill="#E3E3E3" d="M191.499,4.734c-41.43,0-82.861,0.001-124.29-0.011
			c-0.737,0-1.472-0.156-2.209-0.239c42.171,0.001,84.34,0.002,126.51,0.003C191.508,4.57,191.504,4.652,191.499,4.734z"/>
		<path fill-rule="evenodd" clip-rule="evenodd" fill="#F3F3F3" d="M454.238,11.735c-0.829-0.077-1.655-0.153-2.483-0.23
			c0.241-0.522,0.483-1.044,0.726-1.567c0.587,0.098,1.173,0.197,1.759,0.296C454.239,10.734,454.239,11.234,454.238,11.735z"/>
		<path fill-rule="evenodd" clip-rule="evenodd" fill="#F5F5F5" d="M454.239,10.233c-0.586-0.099-1.172-0.198-1.758-0.295
			c0.023-0.318,0.047-0.637,0.07-0.956c0.562,0,1.125,0.001,1.688,0.001C454.239,9.4,454.239,9.816,454.239,10.233z"/>
		<path fill-rule="evenodd" clip-rule="evenodd" fill="#F2F2F2" d="M394,12.983c0,0.419,0,0.839,0,1.259
			c-0.457,0.005-0.915,0.014-1.373,0.014c-65.391,0.001-130.779,0-196.167,0.01c-1.193,0-2.345,0.007-3.178-1.036
			c-0.006-0.333-0.013-0.666-0.018-0.999c0.931,0.25,1.863,0.718,2.795,0.719c48.236,0.036,96.472,0.031,144.707,0.031
			C358.512,12.983,376.255,12.983,394,12.983z"/>
		<path fill-rule="evenodd" clip-rule="evenodd" fill="#A0A0A0" d="M452.624,14.681c-85.922,0-171.846,0-257.768,0
			c0-0.04,0-0.081,0-0.12c85.914,0,171.83,0,257.743,0C452.607,14.601,452.615,14.641,452.624,14.681z"/>
		<path fill-rule="evenodd" clip-rule="evenodd" fill="#C0C0C0" d="M193.265,12.233c0.005,0.333,0.011,0.666,0.018,0.999
			c-0.094-0.647-0.278-1.295-0.266-1.94c0.042-2.188,0.152-4.374,0.237-6.561c0.002,1.75,0.005,3.501,0.007,5.252
			C193.262,10.732,193.263,11.483,193.265,12.233z"/>
		<path fill-rule="evenodd" clip-rule="evenodd" fill="#C9C9C9" d="M64.755,12.984c-0.088,0.087-0.175,0.175-0.263,0.263
			c-0.005-1.588-0.01-3.177-0.015-4.766c0.007-1.25,0.014-2.5,0.021-3.749c0.082,0.005,0.164,0.01,0.246,0.016
			c0.004,0.579,0.009,1.156,0.013,1.734c0,0.751,0,1.501,0,2.251c0.001,0.917,0.001,1.832,0.001,2.749
			C64.758,11.982,64.756,12.483,64.755,12.984z"/>
		<path fill-rule="evenodd" clip-rule="evenodd" fill="#C7C7C7" d="M45.014,9.98c0.435,0.545,0.869,1.091,1.304,1.636
			c-0.112,0.107-0.223,0.214-0.334,0.321c-0.991-0.905-1.982-1.811-2.974-2.717c0.656-1.352,1.805-2.195,2.893-3.101
			c0.125,0.114,0.249,0.227,0.374,0.341c-0.463,0.511-0.88,1.076-1.4,1.519C43.971,8.748,43.994,9.379,45.014,9.98z"/>
		<path fill-rule="evenodd" clip-rule="evenodd" fill="#C7C7C7" d="M60.25,8.484c0.014,0.239,0.139,0.58,0.026,0.705
			c-0.866,0.954-1.779,1.867-2.678,2.793c-0.146-0.135-0.292-0.269-0.438-0.404c0.506-0.555,0.969-1.158,1.528-1.655
			c0.86-0.766,0.798-1.364-0.192-1.906c-0.492-0.503-0.984-1.007-1.476-1.511c0.122-0.139,0.245-0.278,0.367-0.417
			C58.589,6.54,59.209,7.808,60.25,8.484z"/>
		<path fill-rule="evenodd" clip-rule="evenodd" fill="#737373" d="M471.228,9.684c-1.176,2.53-3.258,3.513-5.155,2.251
			c-0.763-0.506-1.209-1.486-1.799-2.251c-0.076-1.548,0.351-2.868,1.77-3.687c1.173-0.676,2.373-0.647,3.522,0.062
			C470.909,6.891,471.302,8.187,471.228,9.684z M469.273,9.253c-0.125,0.008-0.252,0.015-0.378,0.023
			c-0.216-0.489-0.413-0.987-0.655-1.463c-0.142-0.278-0.354-0.521-0.535-0.778c-0.148,0.247-0.324,0.482-0.445,0.742
			c-0.242,0.518-0.453,1.05-0.781,1.823c0.252,0.293,0.744,0.863,1.323,1.535C468.378,10.399,468.826,9.826,469.273,9.253z"/>
		<path fill-rule="evenodd" clip-rule="evenodd" fill="#F5F5F5" d="M289.416,8.76c1.412,0.075,2.823,0.213,4.233,0.214
			c50.436,0.011,100.87,0.009,151.306,0.008c0.015,0.335,0.028,0.67,0.045,1.005c-0.653,0.082-1.306,0.235-1.956,0.236
			c-9.515,0.016-19.029,0.011-28.544,0.011c-18.326,0-36.654,0-54.981,0c-22.578,0-45.154,0.004-67.731-0.021
			c-0.748,0-1.497-0.302-2.247-0.463C289.499,9.421,289.457,9.09,289.416,8.76z"/>
		<path fill-rule="evenodd" clip-rule="evenodd" fill="#A3A3A3" d="M286.031,9.481c-0.051,0.599-0.1,1.198-0.151,1.796
			c-0.145,0.01-0.289,0.02-0.433,0.028c-0.062-0.551-0.08-1.111-0.202-1.648c-0.062-0.279-0.31-0.516-0.473-0.773
			c-0.228,0.25-0.573,0.464-0.658,0.754c-0.145,0.49-0.125,1.027-0.176,1.545c-0.11,0.007-0.223,0.015-0.334,0.021
			c-0.062-0.53-0.076-1.073-0.208-1.586c-0.07-0.278-0.341-0.505-0.521-0.756c-0.211,0.262-0.529,0.494-0.609,0.791
			c-0.141,0.524-0.138,1.088-0.195,1.636c-0.138,0.003-0.276,0.006-0.414,0.009c-0.062-0.689-0.125-1.378-0.188-2.068
			c-0.003-0.72,0.366-1.023,1.071-1.01c0.812,0.016,1.663-0.148,2.423,0.048C285.395,8.381,285.68,9.059,286.031,9.481z"/>
		<path fill-rule="evenodd" clip-rule="evenodd" fill="#A7A7A7" d="M201.491,9.733c0.289,0.728,0.577,1.457,0.884,2.231
			c0.077-0.058-0.026,0.031-0.034,0.024c-0.916-0.917-1.934-1.219-3.282-1.062c-0.603,0.07-1.313-0.777-1.974-1.208
			c-0.48-1.129-0.103-2.145,0.83-2.679c0.645-0.371,1.664-0.45,2.391-0.235c1.077,0.319,1.323,1.361,1.22,2.436
			C201.51,9.404,201.502,9.568,201.491,9.733z M199.331,10.513c1.085-0.026,1.755-0.762,1.7-1.867
			c-0.051-1.006-0.782-1.677-1.803-1.653c-1,0.024-1.711,0.753-1.716,1.756C197.508,9.82,198.25,10.54,199.331,10.513z"/>
		<path fill-rule="evenodd" clip-rule="evenodd" fill="#A3A3A3" d="M254.975,9.731c-0.251,0.571-0.502,1.142-0.906,2.06
			c-0.422-0.87-0.676-1.392-0.988-2.036c-0.295,0.602-0.549,1.122-0.804,1.641c-0.118,0.021-0.236,0.041-0.354,0.061
			c-0.304-0.75-0.607-1.5-0.91-2.25c0.047-0.265,0.094-0.528,0.14-0.792c0.088-0.021,0.175-0.042,0.264-0.062
			c0.215,0.489,0.43,0.978,0.701,1.593c0.289-0.631,0.529-1.155,0.934-2.038c0.418,0.865,0.669,1.386,0.987,2.044
			c0.246-0.607,0.458-1.13,0.67-1.652c0.116,0.022,0.233,0.044,0.349,0.066C255.03,8.822,255.001,9.276,254.975,9.731z"/>
		<path fill-rule="evenodd" clip-rule="evenodd" fill="#A2A2A2" d="M289.416,8.76c0.042,0.33,0.083,0.661,0.124,0.99
			c-0.651,0.238-1.304,0.478-1.955,0.717c-0.001,0.096-0.001,0.193-0.002,0.29c0.571-0.034,1.143-0.067,1.974-0.116
			c-0.382,0.416-0.588,0.641-0.796,0.867c-1.766-0.062-1.866-0.154-2.235-2.023C287.182,8.015,288.042,7.799,289.416,8.76z"/>
		<path fill-rule="evenodd" clip-rule="evenodd" fill="#A2A2A2" d="M209.041,9.729c0.011,0.966-0.229,1.751-1.396,1.768
			c-0.765,0.011-1.574,0.032-1.768-1.291c0.441,0.24,0.693,0.482,0.956,0.495c0.428,0.02,0.863-0.112,1.295-0.179
			c-0.255-0.307-0.469-0.667-0.779-0.902c-0.207-0.157-0.55-0.134-0.832-0.191c-0.132-0.597-0.444-1.233-0.323-1.773
			c0.067-0.298,0.872-0.618,1.323-0.59c0.482,0.03,0.941,0.459,1.409,0.714c-0.07,0.13-0.141,0.261-0.21,0.392
			c-0.353-0.135-0.703-0.365-1.06-0.376c-0.306-0.011-0.62,0.229-0.931,0.359c0.198,0.227,0.356,0.516,0.601,0.667
			C207.876,9.162,208.467,9.432,209.041,9.729z"/>
		<path fill-rule="evenodd" clip-rule="evenodd" fill="#A4A4A4" d="M215.754,9.983c0.115,1.099-0.345,1.543-1.477,1.517
			c-1.101-0.027-1.347-0.598-1.284-1.518c0.596-0.248,1.192-0.497,1.788-0.745c0.003-0.073,0.004-0.147,0.007-0.22
			c-0.476,0-0.952,0-1.427,0c-0.055-0.115-0.111-0.229-0.165-0.344c0.476-0.153,0.954-0.446,1.426-0.433
			C215.738,8.271,215.69,9.192,215.754,9.983z"/>
		<path fill-rule="evenodd" clip-rule="evenodd" fill="#A3A3A3" d="M280.785,8.73c-0.008,0.449-0.066,0.905-0.012,1.346
			c0.127,0.995-0.27,1.402-1.27,1.409c-1.047,0.007-1.54-0.408-1.419-1.47c0.602-0.25,1.202-0.5,1.801-0.751
			c0.021-0.096,0.042-0.192,0.062-0.288c-0.483-0.022-0.968-0.044-1.443-0.065C278.892,7.98,279.624,7.917,280.785,8.73z"/>
		<path fill-rule="evenodd" clip-rule="evenodd" fill="#A2A2A2" d="M272.452,9.967c-0.672,0.049-1.345,0.098-2.018,0.146
			c-0.006,0.17-0.013,0.341-0.02,0.512c0.54,0.054,1.081,0.108,1.623,0.162c0.048,0.078,0.097,0.156,0.146,0.234
			c-0.483,0.147-0.983,0.46-1.447,0.411c-1.122-0.12-1.233-1.044-1.272-1.951c0.141-0.968,0.756-1.341,1.668-1.263
			C272.196,8.307,272.478,9.031,272.452,9.967z"/>
		<path fill-rule="evenodd" clip-rule="evenodd" fill="#A2A2A2" d="M212.452,9.966c-0.673,0.049-1.346,0.098-2.018,0.147
			c-0.007,0.171-0.013,0.341-0.019,0.512c0.539,0.054,1.079,0.108,1.62,0.162c0.049,0.078,0.099,0.156,0.148,0.234
			c-0.484,0.147-0.986,0.46-1.448,0.411c-1.123-0.12-1.233-1.044-1.273-1.951c0.232-0.95,0.82-1.413,1.806-1.25
			C212.249,8.391,212.477,9.102,212.452,9.966z"/>
		<path fill-rule="evenodd" clip-rule="evenodd" fill="#A2A2A2" d="M237.552,9.23c-0.633,0.377-1.266,0.753-2.002,1.192
			c0.248,1.062,1.115,0.09,1.833,0.524c-0.4,0.179-0.786,0.462-1.202,0.517c-1.073,0.143-1.378-0.682-1.664-1.481
			c0.005-0.85,0.286-1.536,1.196-1.736C236.576,8.058,237.23,8.356,237.552,9.23z"/>
		<path fill-rule="evenodd" clip-rule="evenodd" fill="#A2A2A2" d="M246.516,8.981c0.062,1.554-1.386,0.704-2.023,1.26
			c0.316,1.231,1.18,0.263,1.891,0.712c-0.402,0.177-0.792,0.455-1.209,0.51c-1.07,0.14-1.373-0.686-1.658-1.481
			c0.362-0.572,0.619-1.466,1.116-1.628C245.137,8.189,245.877,8.743,246.516,8.981z"/>
		<path fill-rule="evenodd" clip-rule="evenodd" fill="#A2A2A2" d="M258.552,9.23c-0.632,0.377-1.265,0.753-1.998,1.19
			c0.239,1.074,1.104,0.093,1.827,0.49c-0.355,0.189-0.735,0.568-1.06,0.526c-0.512-0.066-1.048-0.339-1.453-0.672
			c-0.241-0.198-0.248-0.678-0.361-1.03c0.442-0.505,0.791-1.221,1.345-1.461C257.6,7.949,258.254,8.422,258.552,9.23z"/>
		<path fill-rule="evenodd" clip-rule="evenodd" fill="#A1A1A1" d="M262.264,9.732c-0.237,0.507-0.346,1.249-0.742,1.462
			c-0.509,0.275-1.279,0.25-1.873,0.1c-0.236-0.06-0.398-0.795-0.42-1.232c-0.056-1.025-0.003-2.056,0.005-3.084
			c0.568,0.772,1.225,1.318,2.255,1.475C261.804,8.5,262.009,9.285,262.264,9.732z M260.401,10.975
			c0.146,0.009,0.293,0.018,0.441,0.027c0.21-0.383,0.613-0.785,0.577-1.143c-0.037-0.371-0.5-0.698-0.776-1.044
			c-0.261,0.32-0.708,0.624-0.735,0.962C259.875,10.16,260.22,10.574,260.401,10.975z"/>
		<path fill-rule="evenodd" clip-rule="evenodd" fill="#A3A3A3" d="M230.048,9.229c-0.021,0.327-0.021,0.657-0.067,0.981
			c-0.114,0.802-0.612,1.388-1.389,1.217c-0.566-0.123-1.069-0.672-1.52-1.112c-0.159-0.154-0.081-0.549-0.109-0.834
			c0.434-0.421,0.798-1.023,1.318-1.221C229.092,7.951,229.677,8.499,230.048,9.229z M229.611,9.824
			c-0.486-0.46-0.776-0.736-1.067-1.012c-0.266,0.344-0.713,0.675-0.74,1.038c-0.024,0.31,0.435,0.658,0.679,0.988
			C228.799,10.552,229.116,10.268,229.611,9.824z"/>
		<path fill-rule="evenodd" clip-rule="evenodd" fill="#A3A3A3" d="M224.752,9.983c-0.078,0.449-0.155,0.897-0.231,1.347
			c-0.125-0.009-0.249-0.018-0.373-0.026c-0.051-0.505-0.038-1.027-0.171-1.509c-0.096-0.348-0.383-0.645-0.584-0.964
			c-0.273,0.309-0.658,0.577-0.793,0.938c-0.162,0.427-0.109,0.935-0.149,1.408c-0.156,0-0.312,0.001-0.468,0.003
			c0-1.401,0-2.802-0.001-4.203c0.621,0.608,1.065,1.403,2.149,1.445C224.358,8.431,224.547,9.438,224.752,9.983z"/>
		<path fill-rule="evenodd" clip-rule="evenodd" fill="#A5A5A5" d="M277.549,9.23c-0.048,0.697-0.096,1.395-0.144,2.092
			c-0.156-0.001-0.316-0.002-0.474-0.004c-0.059-0.578-0.072-1.166-0.2-1.729c-0.061-0.271-0.337-0.492-0.516-0.736
			c-0.236,0.236-0.602,0.434-0.68,0.714c-0.156,0.557-0.155,1.157-0.22,1.74c-0.14,0.002-0.28,0.003-0.419,0.005
			c-0.061-0.61-0.121-1.221-0.181-1.831c0.046-0.614,0.031-1.218,0.935-1.256C276.517,8.188,277.303,8.158,277.549,9.23z"/>
		<path fill-rule="evenodd" clip-rule="evenodd" fill="#A4A4A4" d="M265.17,9.773c0.294,0.636,0.342,1.276-0.403,1.57
			c-0.691,0.273-1.442,0.333-1.989-0.759c0.444,0.104,0.684,0.182,0.929,0.209c0.251,0.028,0.508,0.006,0.851-0.257
			c-0.598-0.36-1.196-0.72-1.793-1.081c0.327-0.409,0.577-1.003,0.999-1.172c0.385-0.154,0.956,0.151,1.444,0.255
			c-0.028,0.133-0.054,0.266-0.081,0.398c-0.45-0.021-0.902-0.041-1.354-0.061c-0.03,0.113-0.06,0.227-0.089,0.339
			C264.178,9.401,264.674,9.587,265.17,9.773z"/>
		<path fill-rule="evenodd" clip-rule="evenodd" fill="#A3A3A3" d="M219.255,9.733c0.272,1.157,0.272,1.157,1.996,0.881
			c-0.224,0.896-0.883,0.937-1.519,0.835c-1.108-0.177-1.231-1.063-1.272-1.969c0.21-1.172,1.038-1.407,2.02-1.208
			c0.315,0.064,0.557,0.485,0.731,0.868C220.434,9.308,219.409,7.927,219.255,9.733z"/>
		<path fill-rule="evenodd" clip-rule="evenodd" fill="#A4A4A4" d="M241.003,9.983c-0.079,0.451-0.158,0.903-0.236,1.354
			c-0.128-0.006-0.254-0.012-0.38-0.017c-0.056-0.542-0.057-1.098-0.19-1.621c-0.079-0.314-0.363-0.577-0.556-0.862
			c-0.273,0.26-0.68,0.473-0.792,0.79c-0.168,0.477-0.132,1.026-0.182,1.544c-0.147,0-0.293-0.002-0.439-0.004
			c0-0.98,0-1.96,0-2.941c0.206,0.003,0.411,0.014,0.619,0.01C240.658,8.206,240.691,8.233,241.003,9.983z"/>
		<path fill-rule="evenodd" clip-rule="evenodd" fill="#A5A5A5" d="M242.751,8.785c0,0.806,0,1.611,0,2.629
			c-0.844,0.071-0.926-0.681-1.008-1.431c0-0.795,0-1.592,0-2.387c0.217-0.037,0.434-0.073,0.65-0.11
			C242.513,7.919,242.633,8.353,242.751,8.785z"/>
		<path fill-rule="evenodd" clip-rule="evenodd" fill="#A5A5A5" d="M268.505,9.733c0.07,0.509,0.139,1.019,0.209,1.528
			c-0.063,0.079-0.128,0.157-0.191,0.236c-0.257-0.31-0.626-0.582-0.742-0.938c-0.184-0.561-0.195-1.179-0.281-1.773
			c0.094-0.441,0.188-0.883,0.279-1.318C269.306,8.065,268.412,9.008,268.505,9.733z"/>
		<path fill-rule="evenodd" clip-rule="evenodd" fill="#A8A8A8" d="M448.734,9.476c-0.079,0.583-0.156,1.167-0.234,1.751
			c-0.168-0.165-0.334-0.33-0.501-0.495c0.122-1.057,0.244-2.114,0.406-3.507c-0.829,0.467-1.249,0.705-1.669,0.941
			c-0.172-0.067-0.344-0.134-0.517-0.202c0.749-0.407,1.498-0.815,2.245-1.222C448.555,7.654,448.645,8.565,448.734,9.476z"/>
		<path fill-rule="evenodd" clip-rule="evenodd" fill="#A7A7A7" d="M248.008,9.983c-0.074,0.449-0.148,0.899-0.224,1.349
			c-0.135-0.007-0.273-0.013-0.41-0.02c-0.053-0.777-0.105-1.554-0.159-2.332c0.199-1.011,0.879-0.735,1.471-0.641
			C248.445,8.921,248.227,9.453,248.008,9.983z"/>
		<path fill-rule="evenodd" clip-rule="evenodd" fill="#A7A7A7" d="M231.507,9.983c-0.073,0.447-0.146,0.895-0.221,1.342
			c-0.133-0.003-0.267-0.005-0.401-0.009c-0.057-0.695-0.113-1.39-0.17-2.085c0.049-1.128,0.729-1.074,1.467-0.886
			C231.942,8.925,231.726,9.454,231.507,9.983z"/>
		<path fill-rule="evenodd" clip-rule="evenodd" fill="#9B9B9B" d="M452.552,8.982c-0.023,0.319-0.047,0.638-0.07,0.956
			c-0.243,0.522-0.485,1.044-0.727,1.566c-0.187-0.083-0.372-0.166-0.558-0.249c0.178-0.341,0.355-0.682,0.533-1.022
			c0.006-0.833,0.013-1.667,0.021-2.501c-0.214-0.417-0.427-0.835-0.641-1.252c0.099-0.052,0.199-0.104,0.298-0.156
			C452.221,6.979,452.377,7.985,452.552,8.982z"/>
		<path fill-rule="evenodd" clip-rule="evenodd" fill="#A2A2A2" d="M217.244,9.204c-0.13,0.657-0.26,1.315-0.391,1.972
			c-0.125-0.003-0.249-0.006-0.373-0.009c0-0.98,0-1.96,0-2.94c0.489,0,0.979,0,1.833,0C217.788,8.707,217.515,8.955,217.244,9.204z
			"/>
		<path fill-rule="evenodd" clip-rule="evenodd" fill="#F5F5F5" d="M451.751,7.732c-0.008,0.833-0.015,1.667-0.021,2.501
			c-0.43-0.004-0.859-0.009-1.291-0.013c0.032-0.747,0.063-1.493,0.095-2.24c0.164,0.273,0.325,0.547,0.667,1.122
			C451.454,8.472,451.602,8.102,451.751,7.732z"/>
		<path fill-rule="evenodd" clip-rule="evenodd" fill="#ACACAC" d="M266.763,9.982c-0.074,0.449-0.148,0.896-0.223,1.345
			c-0.134-0.003-0.268-0.005-0.402-0.008c-0.06-0.697-0.118-1.393-0.177-2.089c0.078-0.287,0.158-0.574,0.236-0.86
			c0.122-0.003,0.242-0.007,0.363-0.01C266.627,8.901,266.695,9.442,266.763,9.982z"/>
		<path fill-rule="evenodd" clip-rule="evenodd" fill="#F5F5F5" d="M448.734,9.476c-0.09-0.911-0.18-1.822-0.27-2.733
			c0.218,0.368,0.399,0.762,0.662,1.094c0.261,0.33,0.604,0.597,0.909,0.891c-0.112,0.495-0.225,0.991-0.337,1.486
			c-0.233-0.16-0.467-0.32-0.699-0.48C448.911,9.648,448.823,9.562,448.734,9.476z"/>
		<path fill-rule="evenodd" clip-rule="evenodd" fill="#A4A4A4" d="M449.699,10.214c0.112-0.495,0.225-0.991,0.337-1.486
			c-0.137-0.407-0.274-0.815-0.412-1.223c0.064-0.055,0.128-0.111,0.19-0.166c0.24,0.214,0.48,0.428,0.72,0.641
			c-0.031,0.747-0.062,1.493-0.094,2.24C450.193,10.219,449.947,10.216,449.699,10.214z"/>
		<path fill-rule="evenodd" clip-rule="evenodd" fill="#959595" d="M446.22,7.965c0.173,0.067,0.345,0.134,0.517,0.202
			c-0.412,0.268-0.825,0.536-1.237,0.803c0.357,0.288,0.716,0.574,1.074,0.861c0.062,0.05,0.12,0.103,0.182,0.154
			c-0.586,0-1.171,0-1.756,0.001c-0.017-0.335-0.03-0.67-0.045-1.005C444.903,8.055,445.484,7.914,446.22,7.965z"/>
		<path fill-rule="evenodd" clip-rule="evenodd" fill="#F3F3F3" d="M288.76,11.509c0.208-0.226,0.414-0.451,0.796-0.867
			c-0.832,0.049-1.403,0.082-1.974,0.116c0.001-0.097,0.001-0.194,0.002-0.29c0.651-0.239,1.304-0.479,1.955-0.717
			c0.75,0.161,1.499,0.462,2.247,0.463c22.577,0.025,45.153,0.021,67.731,0.021c18.327,0,36.655,0,54.981,0c0,0.583,0,1.167,0,1.75
			c-11.278,0.021-22.559,0.06-33.838,0.057c-30.013-0.009-60.023-0.034-90.035-0.076C290.004,11.962,289.381,11.667,288.76,11.509z"
			/>
		<path fill-rule="evenodd" clip-rule="evenodd" fill="#F3F3F3" d="M414.499,11.983c0-0.583,0-1.167,0-1.75
			c9.515,0,19.029,0.005,28.544-0.011c0.65-0.001,1.303-0.154,1.956-0.236c0.585-0.001,1.17-0.001,1.756-0.001
			c0.414,0.249,0.829,0.498,1.244,0.747c0.167,0.166,0.333,0.33,0.501,0.495c-0.354,0.972-1.199,0.747-1.911,0.748
			C435.892,11.987,425.196,11.983,414.499,11.983z"/>
		<path fill-rule="evenodd" clip-rule="evenodd" fill="#F3F3F3" d="M449.699,10.214c0.248,0.002,0.494,0.004,0.741,0.006
			c0.431,0.004,0.86,0.008,1.29,0.013c-0.178,0.34-0.355,0.681-0.533,1.022c-0.469,0.2-0.938,0.398-1.406,0.598
			c-0.264-0.707-0.527-1.413-0.791-2.12C449.232,9.894,449.466,10.054,449.699,10.214z"/>
		<path fill-rule="evenodd" clip-rule="evenodd" fill="#E0E0E0" d="M64.758,8.733c0-0.75,0-1.5,0-2.251
			c22.914,0,45.828,0.001,68.743,0.001c0,0.75,0,1.5,0,2.25C110.586,8.734,87.672,8.733,64.758,8.733z"/>
		<path fill-rule="evenodd" clip-rule="evenodd" fill="#E0E0E0" d="M133.5,8.734c0-0.75,0-1.5,0-2.25c10.667,0,21.333,0,32,0
			c0,0.75,0,1.5,0,2.25C154.833,8.734,144.167,8.734,133.5,8.734z"/>
		<path fill-rule="evenodd" clip-rule="evenodd" fill="#F5F5F5" d="M469.273,9.253c-0.447,0.573-0.896,1.146-1.472,1.882
			c-0.579-0.672-1.071-1.242-1.323-1.535c0.328-0.773,0.539-1.305,0.781-1.823c0.121-0.26,0.297-0.496,0.445-0.742
			c0.182,0.258,0.394,0.5,0.535,0.778c0.242,0.476,0.439,0.974,0.655,1.463C469.021,9.268,469.148,9.261,469.273,9.253z"/>
		<path fill-rule="evenodd" clip-rule="evenodd" fill="#F6F6F6" d="M199.331,10.513c-1.081,0.027-1.823-0.692-1.819-1.763
			c0.004-1.003,0.716-1.732,1.716-1.756c1.021-0.024,1.752,0.646,1.803,1.653C201.086,9.75,200.417,10.486,199.331,10.513z"/>
		<path fill-rule="evenodd" clip-rule="evenodd" fill="#F0F0F0" d="M260.401,10.975c-0.182-0.401-0.526-0.814-0.494-1.198
			c0.027-0.338,0.474-0.643,0.735-0.962c0.276,0.346,0.74,0.674,0.776,1.044c0.036,0.358-0.367,0.76-0.577,1.143
			C260.695,10.993,260.548,10.984,260.401,10.975z"/>
		<path fill-rule="evenodd" clip-rule="evenodd" fill="#F2F2F2" d="M229.611,9.824c-0.495,0.444-0.812,0.729-1.128,1.014
			c-0.245-0.331-0.703-0.678-0.679-0.988c0.027-0.363,0.475-0.693,0.74-1.037C228.835,9.087,229.125,9.363,229.611,9.824z"/>
		<path fill-rule="evenodd" clip-rule="evenodd" fill="#F3F3F3" d="M447.999,10.732c-0.415-0.249-0.83-0.498-1.244-0.747
			c-0.062-0.051-0.12-0.104-0.182-0.154c-0.358-0.288-0.717-0.574-1.074-0.861c0.412-0.267,0.825-0.536,1.237-0.803
			c0.42-0.237,0.84-0.475,1.669-0.942C448.243,8.618,448.121,9.675,447.999,10.732z"/>
	</g>
	<rect x="-7.5" y="18.5" fill="#FFFFFF" stroke="#000000" stroke-miterlimit="10" width="678" height="47"/>
	<rect x="169.5" y="154.5" fill="#FFFFFF" stroke="#000000" stroke-miterlimit="10" width="298" height="169"/>
	<rect x="263.5" y="199.5" fill="#FFFFFF" stroke="#000000" stroke-miterlimit="10" width="113" height="22"/>
	<rect x="263.5" y="227.5" fill="#FFFFFF" stroke="#000000" stroke-miterlimit="10" width="113" height="22"/>
	<rect x="263.5" y="256.5" fill="#FFFFFF" stroke="#000000" stroke-miterlimit="10" width="113" height="22"/>
	<rect x="294.5" y="289.5" fill="#FFFFFF" stroke="#000000" stroke-miterlimit="10" width="50" height="10"/>
	<rect x="271.494" y="206.793" fill="none" width="92.8" height="10.53"/>
	<text transform="matrix(1 0 0 1 279.9985 215.313)" font-family="'MyriadPro-Regular'" font-size="12">email or phone</text>
	<rect x="272.751" y="234.542" fill="none" width="94.56" height="12.575"/>
	<text transform="matrix(1 0 0 1 295.918 243.0625)" font-family="'MyriadPro-Regular'" font-size="12">password</text>
	<rect x="267.722" y="259.943" fill="none" width="102.356" height="14.586"/>
	<text transform="matrix(1 0 0 1 306.1021 268.4629)" font-family="'MyriadPro-Regular'" font-size="12">login</text>
	<rect x="296.71" y="291.443" fill="none" width="47.143" height="7.925"/>
	<text transform="matrix(1 0 0 1 298.0029 296.0728)" font-family="'MyriadPro-Regular'" font-size="6.5202">recover your acc</text>
	<rect x="294.532" y="303.895" fill="none" width="52.818" height="11.871"/>
	
		<text transform="matrix(1 0 0 1 302.4858 312.415)" font-family="'MyriadPro-Regular'" font-size="12" text-decoration=" underline">sign up</text>
	<rect x="220.5" y="172.5" fill="none" width="206.5" height="21"/>
	<text transform="matrix(1 0 0 1 275.7808 181.02)"><tspan x="0" y="0" font-family="'MyriadPro-Regular'" font-size="12">log into &lt;webapp</tspan><tspan x="89.508" y="0" font-family="'MyriadPro-Regular'" font-size="12">&gt;</tspan></text>
	<rect x="17.834" y="37.89" fill="none" width="120.912" height="23.858"/>
	<text transform="matrix(1 0 0 1 56.0239 46.4102)"><tspan x="0" y="0" font-family="'MyriadPro-Regular'" font-size="12">text lo</tspan><tspan x="31.476" y="0" font-family="'MyriadPro-Regular'" font-size="12">g</tspan><tspan x="37.943" y="0" font-family="'MyriadPro-Regular'" font-size="12">o</tspan></text>
	<rect x="113.5" y="39.5" fill="none" stroke="#000000" stroke-miterlimit="10" width="80" height="17"/>
	<text transform="matrix(1 0 0 1 134.1177 51.2427)" font-family="'MyriadPro-Regular'" font-size="12">sign up</text>
	<polygon fill="#FFFFFF" stroke="#000000" stroke-miterlimit="10" points="388.5,198.5 388.5,203.429 381.429,210.5 388.5,217.571 
		388.5,223.5 506.5,223.5 506.5,198.5 	"/>
	<rect x="398.333" y="204" fill="none" width="99" height="14.333"/>
	<text transform="matrix(1 0 0 1 412.3613 212.52)" font-family="'MyriadPro-Regular'" font-size="12">error message</text>
	<polygon fill="#FFFFFF" stroke="#000000" stroke-miterlimit="10" points="388.5,228.5 388.5,233.429 381.429,240.5 388.5,247.571 
		388.5,253.5 506.5,253.5 506.5,228.5 	"/>
	<rect x="398.333" y="234" fill="none" width="99" height="14.333"/>
	<text transform="matrix(1 0 0 1 412.3613 242.52)" font-family="'MyriadPro-Regular'" font-size="12">error message</text>
	<rect x="299.773" y="41.154" fill="none" width="133.16" height="16.474"/>
	<text transform="matrix(1 0 0 1 299.7734 49.6738)" fill="#3C5A96" font-family="'MyriadPro-Regular'" font-size="12">#3C5A96</text>
	<rect x="143.5" y="136.5" fill="none" stroke="#FF0000" stroke-miterlimit="10" width="393" height="222"/>
</g>
</svg>
