<?xml version="1.0" encoding="utf-8"?>
<!-- Generator: Adobe Illustrator 16.0.0, SVG Export Plug-In . SVG Version: 6.00 Build 0)  -->
<!DOCTYPE svg PUBLIC "-//W3C//DTD SVG 1.1//EN" "http://www.w3.org/Graphics/SVG/1.1/DTD/svg11.dtd">
<svg version="1.1" id="newsfeed" xmlns="http://www.w3.org/2000/svg" xmlns:xlink="http://www.w3.org/1999/xlink" x="0px" y="0px"
	 width="640px" height="400px" viewBox="0 0 640 400" enable-background="new 0 0 640 400" xml:space="preserve">
<g>
	<path fill-rule="evenodd" clip-rule="evenodd" fill="#E6E6E6" d="M0,0.787c0-0.083,0-0.543,0-0.625
		c0.497-0.256,639.501-0.172,640,0c0,0.832,0,1.792,0,2.625c-10.258-0.066-20.514,0.086-30.772,0.016
		c-10.287-0.07-20.578-0.016-30.867-0.016s-20.578,0-30.866,0c-10.33,0-20.663,0-30.993,0c-10.288,0-20.576,0-30.866,0
		c-10.288,0-20.578-0.001-30.867-0.002c-1.033-0.249-2.067-0.717-3.101-0.717c-85.885-0.031-171.771-0.027-257.656-0.026
		c-1.915-0.001-3.829-0.005-5.745-0.005c-15.537,0-31.075,0-46.612,0c-46.445,0-92.89,0-139.335,0.006
		C1.296,2.043,0.264,2.15,0,0.787z"/>
	<path fill-rule="evenodd" clip-rule="evenodd" fill="#D8D8D8" d="M0,18.037c0-0.5,0-1,0-1.5c3.598-0.152,7.195-0.309,10.793-0.449
		c0.369-0.014,0.741,0.077,1.112,0.117c1.031,0.111,2.061,0.318,3.092,0.318c58.791,0.016,117.582,0.014,176.372,0.014
		c0.458,0,0.942,0.078,1.366-0.046c0.297-0.087,0.512-0.456,0.765-0.698c0.742,0.082,1.484,0.236,2.227,0.236
		c85.325,0.012,170.65,0.013,255.975-0.01c0.934,0,1.864-0.316,2.799-0.484c0.734,0.168,1.466,0.481,2.2,0.482
		c61.101,0.021,122.2,0.02,183.3,0.02c0,0.668,0,1.333,0,2c-3.994,0.006-7.987,0.012-11.982,0.017
		c-0.625-0.005-1.25-0.017-1.873-0.017C417.43,18.037,208.715,18.037,0,18.037z"/>
	<path fill-rule="evenodd" clip-rule="evenodd" fill="#E4E4E4" d="M0,0.162c0.263,1.362,1.296,1.881,2.319,1.881
		c46.445-0.006,92.89-0.006,139.335-0.006c15.538,0,31.075,0,46.612,0c1.916,0,3.83,0.004,5.745,0.005
		c-0.674,0.497-1.349,0.993-2.023,1.49c-0.573-0.081-1.146-0.234-1.719-0.234c-41.156-0.011-82.311-0.014-123.467,0.011
		c-0.934,0.002-1.869,0.314-2.803,0.481c-0.26-0.089-0.521-0.179-0.782-0.269c-0.278-0.074-0.556-0.21-0.834-0.211
		c-2.698-0.019-5.395-0.019-8.093-0.004c-0.18,0-0.359,0.156-0.539,0.24c-0.498,0.497-0.997,0.994-1.496,1.492
		c-0.173,0.002-0.345,0.002-0.518,0.003c-0.061-0.933-0.776-1.213-1.489-1.497c-0.429-0.086-0.857-0.241-1.288-0.246
		c-2.327-0.024-4.653-0.028-6.979-0.001c-0.653,0.009-1.304,0.148-1.956,0.228c-0.347,0.433-0.693,0.865-1.041,1.297
		c-0.081,0.654-0.162,1.308-0.243,1.963c-2.35,0.009-4.7,0.018-7.049,0.027c-2.283-1.373-3.748-1.022-5.162,1.234
		c-1.404-0.089-2.807-0.178-4.211-0.266c-1.664-2.412-3.978-2.412-5.643,0c-1.452,0-2.905,0-4.357,0
		C11.62,6.56,10.598,5.869,9.159,6.043C7.812,6.207,6.886,6.959,6.473,8.284C4.315,8.119,2.158,7.953,0,7.787
		C0,5.454,0,2.494,0,0.162z"/>
	<path fill-rule="evenodd" clip-rule="evenodd" fill="#E0E0E0" d="M640,7.787c0,0.667,0,1.334,0,2c-21.001,0-42.001,0-63,0
		c-10.667,0-21.332,0-32,0c-22.581,0-45.162,0-67.741-0.001c0-0.667,0-1.333,0-1.999C531.506,7.787,585.753,7.787,640,7.787z"/>
	<path fill-rule="evenodd" clip-rule="evenodd" fill="#E1E1E1" d="M640,7.787c-54.247,0-108.494,0-162.741,0
		c-0.002-0.667-0.002-1.334-0.003-2c54.248,0,108.497,0,162.744,0C640,6.454,640,7.121,640,7.787z"/>
	<path fill-rule="evenodd" clip-rule="evenodd" fill="#E3E3E3" d="M454.768,2.785c10.289,0.001,20.579,0.002,30.867,0.002
		c10.29,0,20.578,0,30.866,0c10.33,0,20.663,0,30.993,0c10.288,0,20.577,0,30.866,0s20.58-0.055,30.867,0.016
		c10.259,0.07,20.515-0.082,30.772-0.016c0,0.584,0,1.167,0,1.75c-8.733,0-17.467,0-26.199,0c-44.389,0-88.777-0.004-133.165,0.014
		c-1.765,0.002-3.493,0.061-4.893-1.261c-4.838-0.001-9.677-0.009-14.515,0.008c-0.567,0.003-1.134,0.147-1.7,0.227
		c-0.349,0.434-0.695,0.866-1.044,1.3c-0.081,0.653-0.16,1.309-0.24,1.962c-0.744-0.001-1.486-0.001-2.23-0.001
		C456.127,5.287,455.843,3.913,454.768,2.785z"/>
	<path fill-rule="evenodd" clip-rule="evenodd" fill="#DADADA" d="M193.5,15.793c-0.253,0.242-0.468,0.611-0.765,0.698
		c-0.424,0.124-0.908,0.046-1.366,0.046c-58.791,0-117.582,0.002-176.372-0.014c-1.031,0-2.061-0.207-3.092-0.318
		c-0.371-0.04-0.743-0.131-1.112-0.117C7.195,16.229,3.598,16.385,0,16.537c0-0.999,0-1.999,0-3c12.266,0,24.53,0.004,36.795-0.011
		c0.652-0.001,1.304-0.157,1.956-0.241c0.085-0.084,0.171-0.168,0.256-0.253c0.584,0.494,1.168,0.989,1.752,1.483
		c-0.003,0.069-0.016,0.14-0.004,0.207c0.003,0.02,0.07,0.043,0.107,0.043c3.008,0.002,6.016,0.003,9.024-0.008
		c0.035,0,0.069-0.158,0.104-0.242c0.583-0.496,1.167-0.99,1.75-1.484c0.173-0.001,0.345-0.002,0.518-0.002
		c0.584,0.494,1.168,0.988,1.751,1.483c-0.004,0.069-0.017,0.14-0.008,0.208c0.004,0.02,0.07,0.045,0.107,0.045
		c2.963,0.014,5.927,0.027,8.891,0.039c0.803,0.244,1.606,0.701,2.409,0.702c41.627,0.034,83.254,0.032,124.881,0.021
		c0.57,0,1.14-0.156,1.708-0.24c0.085-0.086,0.171-0.172,0.256-0.259C192.671,15.283,193.085,15.539,193.5,15.793z"/>
	<path fill-rule="evenodd" clip-rule="evenodd" fill="#DBDBDB" d="M640,13.037c0,0.5,0,1.001,0,1.501
		c-39.347,0-78.694-0.003-118.04,0.011c-0.737,0-1.475,0.156-2.209,0.238c-0.084,0-0.167,0-0.251,0
		c-0.652-0.082-1.304-0.238-1.956-0.238c-13.515-0.015-27.028-0.011-40.544-0.011c-0.167-0.085-0.334-0.171-0.501-0.257
		c0.163-0.329,0.328-0.659,0.491-0.988c0.089-0.086,0.176-0.171,0.265-0.256C531.504,13.037,585.752,13.037,640,13.037z"/>
	<path fill-rule="evenodd" clip-rule="evenodd" fill="#DEDEDE" d="M640,13.037c-54.248,0-108.496,0-162.745,0
		c0.001-0.5,0.004-1,0.005-1.5c22.58,0,45.159,0,67.74,0c10.668,0,21.333,0,32,0c20.999,0,41.999,0,63,0
		C640,12.037,640,12.537,640,13.037z"/>
	<path fill-rule="evenodd" clip-rule="evenodd" fill="#DADADA" d="M519.5,14.787c0.084,0,0.167,0,0.251,0
		c40.082,0,80.165,0,120.249,0c0,0.418,0,0.834,0,1.25c-61.1,0-122.199,0.002-183.3-0.02c-0.734-0.001-1.466-0.314-2.2-0.482
		c0.417-0.666,0.833-1.332,1.25-1.998c0.089-0.418,0.177-0.836,0.264-1.253c0.744,0,1.486,0,2.229,0
		c0.081,0.333,0.161,0.664,0.243,0.995c0.343,0.428,0.685,0.856,1.026,1.283c0.165,0.078,0.332,0.156,0.498,0.234
		c0.443,0.08,0.886,0.228,1.33,0.229c4.273,0.017,8.547,0.017,12.82,0c0.443-0.002,0.888-0.149,1.332-0.229
		c0.07-0.077,0.14-0.155,0.212-0.232c0.265-0.095,0.529-0.189,0.795-0.283c0.167,0.086,0.334,0.172,0.501,0.257
		c0.652,0.083,1.305,0.238,1.955,0.238C492.472,14.791,505.986,14.787,519.5,14.787z"/>
	<path fill-rule="evenodd" clip-rule="evenodd" fill="#E3E3E3" d="M475.743,3.29c1.399,1.321,3.128,1.263,4.893,1.261
		c44.388-0.018,88.776-0.014,133.165-0.014c8.732,0,17.466,0,26.199,0c0,0.417,0,0.834,0,1.25c-54.247,0-108.496,0-162.744,0
		c-0.09-0.249-0.179-0.498-0.27-0.747c-0.417-0.424-0.834-0.849-1.252-1.272C475.736,3.608,475.74,3.449,475.743,3.29z"/>
	<path fill-rule="evenodd" clip-rule="evenodd" fill="#DEDEDE" d="M38.751,13.285c-0.652,0.084-1.304,0.24-1.956,0.241
		C24.53,13.541,12.266,13.537,0,13.537c0-1.916,0-3.833,0-5.75c2.158,0.166,4.315,0.332,6.473,0.497
		c0.035,2.267,0.792,3.478,2.332,3.728c2.542,0.413,4.109-1.473,3.518-4.23c1.452,0,2.905,0,4.357,0
		c-0.586,2.725,0.755,4.533,3.159,4.26c2.019-0.231,2.993-1.9,2.484-4.26c1.404,0.088,2.807,0.177,4.211,0.266
		c0.173,0.949,0.097,2.055,0.57,2.818c1.024,1.646,2.909,1.605,4.846,0.116c0.521,0.102,1.041,0.28,1.564,0.292
		c1.743,0.036,3.486,0.014,5.229,0.014C38.745,11.953,38.748,12.619,38.751,13.285z"/>
	<path fill-rule="evenodd" clip-rule="evenodd" fill="#DEDEDE" d="M640,11.537c-21.001,0-42.001,0-63,0c0-0.583,0-1.166,0-1.75
		c20.999,0,41.999,0,63,0C640,10.371,640,10.954,640,11.537z"/>
	<path fill-rule="evenodd" clip-rule="evenodd" fill="#DBDBDB" d="M640,14.787c-40.084,0-80.167,0-120.249,0
		c0.734-0.082,1.472-0.238,2.209-0.238c39.346-0.014,78.693-0.011,118.04-0.011C640,14.621,640,14.705,640,14.787z"/>
	<path fill-rule="evenodd" clip-rule="evenodd" fill="#C0C0C0" d="M456.014,12.284c-0.087,0.417-0.175,0.835-0.264,1.253
		c-0.833-0.969-1.072-2.091-1.016-3.354c0.07-1.595,0.017-3.195,0.017-4.793c-0.25,1.775-0.221,3.549-0.265,5.322
		c-0.019,0.855-0.177,1.709-0.272,2.562c0.007-0.325,0.016-0.652,0.022-0.978c0-0.17,0.002-0.34,0.002-0.508
		c0.001-0.501,0.001-1.002,0.001-1.502c0-0.417,0-0.834,0-1.25c0.008-0.417,0.021-0.833,0.022-1.25
		c0.016-3.713-0.279-4.013-3.933-4.013c-59.448,0-118.896-0.001-178.344,0.001c-25.911,0-51.823,0.006-77.735,0.011
		c0.001-0.085,0.001-0.171,0.002-0.255c86.134,0,172.267,0,258.403,0c0-0.08,0-0.161,0-0.241c-86.135,0-172.269,0-258.402,0
		c-1.235,0.485-1.459,1.479-1.526,2.688c-0.146,2.621,0.691,5.377-0.977,7.809c-0.079-0.004-0.16-0.007-0.24-0.01
		c-0.006-0.246-0.014-0.493-0.021-0.74c0-0.5,0-1.001-0.001-1.502c0-0.916-0.001-1.832-0.003-2.748c0-0.751,0-1.5,0-2.252
		c0.005-0.582,0.009-1.166,0.014-1.748c0.005-0.082,0.009-0.164,0.011-0.246c0.16-0.336,0.319-0.673,0.478-1.009
		c0.674-0.497,1.349-0.993,2.023-1.49c85.885-0.001,171.771-0.005,257.656,0.026c1.033,0,2.067,0.468,3.101,0.717
		c1.075,1.128,1.359,2.502,1.246,4C456.014,8.618,456.014,10.451,456.014,12.284z"/>
	<path fill-rule="evenodd" clip-rule="evenodd" fill="#BBBBBB" d="M191.75,13.787c1.667-2.432,0.831-5.188,0.977-7.809
		c0.067-1.209,0.291-2.203,1.526-2.688c0,0.08,0,0.161,0,0.241c-0.001,0.084-0.001,0.17-0.002,0.255
		c-0.333,0.332-0.664,0.665-0.996,0.998c-0.085,2.187-0.196,4.373-0.237,6.561c-0.012,0.646,0.172,1.294,0.266,1.94
		c0.833,1.043,1.984,1.035,3.178,1.035c65.388-0.01,130.776-0.008,196.167-0.01c0.458,0,0.916-0.01,1.373-0.014
		c19.266,0.004,38.53,0.021,57.795-0.031c0.809-0.002,1.612-0.646,2.416-0.991c0.099-0.853,0.257-1.706,0.275-2.562
		c0.044-1.773,0.015-3.547,0.265-5.322c0,1.598,0.054,3.198-0.017,4.793c-0.057,1.263,0.183,2.385,1.016,3.354
		c-0.417,0.666-0.833,1.332-1.25,1.998c-0.935,0.168-1.865,0.484-2.799,0.484c-85.324,0.022-170.649,0.021-255.975,0.01
		c-0.742,0-1.484-0.154-2.227-0.236c-0.415-0.254-0.829-0.51-1.244-0.764C192.087,14.615,191.918,14.201,191.75,13.787z
		 M452.624,14.734c-0.009-0.039-0.017-0.08-0.024-0.119c-85.913,0-171.829,0-257.743,0c0,0.039,0,0.08,0,0.119
		C280.778,14.734,366.702,14.734,452.624,14.734z"/>
	<path fill-rule="evenodd" clip-rule="evenodd" fill="#E3E3E3" d="M191.988,3.532c-0.159,0.336-0.318,0.673-0.478,1.009
		C149.34,4.54,107.171,4.539,65,4.537c-0.085,0.088-0.17,0.176-0.255,0.265c-0.082-0.005-0.164-0.011-0.246-0.016
		c-0.166-0.332-0.333-0.664-0.5-0.996c0.935-0.167,1.869-0.479,2.803-0.481c41.156-0.024,82.312-0.021,123.467-0.011
		C190.843,3.298,191.416,3.451,191.988,3.532z"/>
	<path fill-rule="evenodd" clip-rule="evenodd" fill="#F8F8F8" d="M50.25,3.545c0.712,0.284,1.428,0.564,1.489,1.497
		c-0.004,1.58-0.009,3.161-0.013,4.741c-2.238,0.084-4.475,0.167-6.712,0.25c-1.02-0.6-1.042-1.231-0.139-2.002
		c0.521-0.443,0.937-1.008,1.4-1.519c-0.125-0.114-0.249-0.228-0.374-0.341c-1.088,0.906-2.237,1.749-2.892,3.101
		c-0.396,0.168-0.782,0.45-1.189,0.482c-0.927,0.074-1.864,0.026-2.796,0.028c-0.013-1.654-0.026-3.307-0.039-4.961
		c0.347-0.432,0.693-0.864,1.041-1.297C43.434,3.532,46.841,3.539,50.25,3.545z"/>
	<path fill-rule="evenodd" clip-rule="evenodd" fill="#F9F9F9" d="M63.999,3.79c0.167,0.332,0.333,0.664,0.5,0.996
		c-0.007,1.249-0.014,2.499-0.021,3.749c-1.41,0-2.818,0.001-4.227,0.002c-1.042-0.676-1.662-1.943-2.862-2.396
		c-0.122,0.14-0.245,0.278-0.367,0.417c0.492,0.504,0.983,1.008,1.476,1.512C58,8.227,57.507,8.496,57.004,8.514
		c-1.574,0.059-3.152,0.021-4.729,0.02c-0.006-1.164-0.013-2.328-0.019-3.494c0.499-0.498,0.998-0.995,1.496-1.492
		c3.155-0.009,6.31-0.018,9.465-0.025C63.478,3.611,63.739,3.701,63.999,3.79z"/>
	<path fill-rule="evenodd" clip-rule="evenodd" fill="#909090" d="M12.322,7.781c0.591,2.758-0.976,4.644-3.518,4.23
		c-1.54-0.25-2.296-1.461-2.332-3.728c0.414-1.325,1.339-2.077,2.687-2.241C10.598,5.869,11.62,6.56,12.322,7.781z"/>
	<path fill-rule="evenodd" clip-rule="evenodd" fill="#909090" d="M22.321,7.781c0.509,2.359-0.465,4.028-2.484,4.26
		c-2.403,0.273-3.745-1.535-3.159-4.26C18.344,5.369,20.657,5.369,22.321,7.781z"/>
	<path fill-rule="evenodd" clip-rule="evenodd" fill="#909090" d="M31.948,10.981c-1.937,1.489-3.821,1.53-4.846-0.116
		c-0.474-0.764-0.397-1.869-0.57-2.818c1.414-2.257,2.879-2.607,5.162-1.234C32.683,8.146,32.771,9.535,31.948,10.981z"/>
	<path fill-rule="evenodd" clip-rule="evenodd" fill="#DFDFDF" d="M31.948,10.981c0.823-1.446,0.734-2.835-0.254-4.169
		c2.349-0.01,4.699-0.019,7.049-0.027c0,1.5-0.001,3.001-0.001,4.502c-1.743,0-3.487,0.022-5.229-0.014
		C32.989,11.262,32.47,11.083,31.948,10.981z"/>
	<path fill-rule="evenodd" clip-rule="evenodd" fill="#CBCBCB" d="M52.256,5.039c0.006,1.166,0.013,2.33,0.019,3.495
		c-0.005,1.499-0.009,2.997-0.015,4.495c-0.173,0-0.345,0.001-0.518,0.002c-0.005-1.083-0.011-2.166-0.016-3.248
		c0.004-1.58,0.009-3.161,0.013-4.741C51.911,5.041,52.083,5.041,52.256,5.039z"/>
	<path fill-rule="evenodd" clip-rule="evenodd" fill="#CDCDCD" d="M50.25,3.545c-3.409-0.006-6.816-0.013-10.223-0.02
		c0.652-0.079,1.303-0.219,1.956-0.228c2.326-0.027,4.653-0.023,6.979,0.001C49.392,3.304,49.82,3.459,50.25,3.545z"/>
	<path fill-rule="evenodd" clip-rule="evenodd" fill="#CDCDCD" d="M63.217,3.521c-3.155,0.008-6.31,0.017-9.465,0.025
		c0.179-0.084,0.358-0.24,0.539-0.24c2.698-0.015,5.395-0.015,8.093,0.004C62.661,3.312,62.938,3.447,63.217,3.521z"/>
	<path fill-rule="evenodd" clip-rule="evenodd" fill="#C9C9C9" d="M38.742,11.287c0-1.501,0.001-3.002,0.001-4.502
		c0.081-0.655,0.162-1.309,0.243-1.963c0.013,1.654,0.026,3.307,0.039,4.961c-0.006,1.083-0.012,2.166-0.017,3.249
		c-0.085,0.085-0.171,0.169-0.256,0.253C38.748,12.619,38.745,11.953,38.742,11.287z"/>
	<path fill-rule="evenodd" clip-rule="evenodd" fill="#DEDEDE" d="M545,11.537c-22.581,0-45.16,0-67.741,0c0-0.584,0-1.167,0-1.751
		c22.579,0.001,45.16,0.001,67.741,0.001C545,10.371,545,10.954,545,11.537z"/>
	<path fill-rule="evenodd" clip-rule="evenodd" fill="#DEDEDE" d="M545,11.537c0-0.583,0-1.166,0-1.75c10.668,0,21.333,0,32,0
		c0,0.584,0,1.167,0,1.75C566.333,11.537,555.668,11.537,545,11.537z"/>
	<path fill-rule="evenodd" clip-rule="evenodd" fill="#C9C9C9" d="M477.259,9.786c0,0.584,0,1.167,0,1.751c0,0.5-0.003,1-0.004,1.5
		c-0.089,0.085-0.176,0.17-0.265,0.256c-0.004-1.087-0.008-2.174-0.015-3.26c0.005-1.664,0.009-3.328,0.011-4.993
		c0.091,0.249,0.18,0.498,0.27,0.747c0.001,0.666,0.001,1.333,0.003,2C477.259,8.453,477.259,9.119,477.259,9.786z"/>
	<path fill-rule="evenodd" clip-rule="evenodd" fill="#F7F7F7" d="M476.986,5.04c-0.002,1.665-0.006,3.329-0.009,4.993
		c-0.453,0.002-0.908,0.027-1.359,0c-1.463-0.088-2.927-0.195-4.391-0.296c0.074-1.497-0.318-2.792-1.662-3.624
		c-1.149-0.709-2.35-0.738-3.522-0.062c-1.419,0.818-1.846,2.139-1.77,3.688c-0.436,0.099-0.867,0.272-1.304,0.283
		c-1.481,0.035-2.964,0.012-4.446,0.012c-0.013-1.736-0.026-3.474-0.039-5.209c0.349-0.434,0.695-0.866,1.044-1.3
		c4.745,0.003,9.491-0.003,14.237,0.021c0.656,0.002,1.312,0.145,1.969,0.223C476.152,4.191,476.569,4.616,476.986,5.04z"/>
	<path fill-rule="evenodd" clip-rule="evenodd" fill="#E0E0E0" d="M456.014,12.284c0-1.833,0-3.666,0-5.499
		c0.744,0,1.486,0,2.23,0.001c0,1.833-0.002,3.666-0.002,5.498C457.5,12.284,456.758,12.284,456.014,12.284z"/>
	<path fill-rule="evenodd" clip-rule="evenodd" fill="#CCCCCC" d="M475.734,3.768c-0.656-0.078-1.312-0.221-1.969-0.223
		c-4.746-0.023-9.492-0.018-14.237-0.021c0.566-0.079,1.133-0.224,1.7-0.227c4.838-0.017,9.677-0.009,14.515-0.008
		C475.74,3.449,475.736,3.608,475.734,3.768z"/>
	<path fill-rule="evenodd" clip-rule="evenodd" fill="#C9C9C9" d="M458.242,12.284c0-1.832,0.002-3.665,0.002-5.498
		c0.08-0.653,0.159-1.309,0.24-1.962c0.013,1.735,0.026,3.473,0.039,5.209c-0.013,1.082-0.026,2.164-0.038,3.246
		C458.403,12.948,458.323,12.617,458.242,12.284z"/>
	<path fill-rule="evenodd" clip-rule="evenodd" fill="#DADADA" d="M191.75,13.787c0.168,0.414,0.337,0.828,0.506,1.242
		c-0.085,0.086-0.17,0.172-0.256,0.258c-41.85,0-83.699,0-125.549,0c-0.541,0-1.105,0.086-1.617-0.041
		c-0.477-0.119-0.895-0.469-1.339-0.717c0.253-0.246,0.506-0.494,0.759-0.74c0.614,0.082,1.228,0.238,1.843,0.238
		c41.235,0.011,82.471,0.011,123.706-0.001c0.569,0,1.139-0.161,1.708-0.249C191.59,13.78,191.671,13.783,191.75,13.787z"/>
	<path fill-rule="evenodd" clip-rule="evenodd" fill="#F4F4F4" d="M64.254,13.789c-0.253,0.246-0.506,0.494-0.759,0.74
		c-0.095,0.01-0.19,0.021-0.286,0.031c-3.065-0.016-6.132-0.031-9.198-0.048c-0.583-0.495-1.167-0.989-1.751-1.483
		c0.005-1.498,0.01-2.996,0.015-4.495c1.578,0.001,3.156,0.038,4.73-0.021C57.507,8.496,58,8.227,58.497,8.07
		c0.991,0.542,1.053,1.141,0.192,1.906c-0.559,0.496-1.022,1.1-1.528,1.654c0.146,0.135,0.292,0.27,0.438,0.404
		c0.898-0.926,1.812-1.839,2.678-2.793c0.113-0.125-0.012-0.465-0.026-0.705c1.409-0.001,2.817-0.002,4.227-0.002
		c0.005,1.588,0.009,3.178,0.015,4.766C64.413,13.464,64.333,13.627,64.254,13.789z"/>
	<path fill-rule="evenodd" clip-rule="evenodd" fill="#F2F2F2" d="M39.007,13.032c0.005-1.083,0.011-2.166,0.017-3.249
		c0.933-0.002,1.869,0.046,2.796-0.028c0.407-0.032,0.793-0.314,1.188-0.481c0.991,0.906,1.983,1.812,2.974,2.717
		c0.111-0.106,0.223-0.213,0.334-0.32c-0.435-0.545-0.869-1.091-1.304-1.637c2.237-0.083,4.474-0.166,6.712-0.25
		c0.005,1.082,0.011,2.165,0.016,3.248c-0.584,0.494-1.167,0.988-1.75,1.484c-3.077,0-6.155,0-9.231,0
		C40.176,14.021,39.591,13.526,39.007,13.032z"/>
	<path fill-rule="evenodd" clip-rule="evenodd" fill="#DADADA" d="M63.209,14.561c0.095-0.01,0.191-0.021,0.286-0.031
		c0.444,0.248,0.862,0.598,1.339,0.717c0.511,0.127,1.076,0.041,1.617,0.041c41.85,0,83.7,0,125.549,0
		c-0.569,0.084-1.139,0.24-1.708,0.24c-41.626,0.012-83.253,0.014-124.881-0.021c-0.803-0.001-1.606-0.458-2.409-0.702
		C63.071,14.724,63.141,14.643,63.209,14.561z"/>
	<path fill-rule="evenodd" clip-rule="evenodd" fill="#A8A8A8" d="M40.76,14.516c3.077,0,6.154,0,9.231,0
		c-0.035,0.084-0.069,0.242-0.104,0.242c-3.009,0.011-6.017,0.01-9.024,0.008c-0.038,0-0.104-0.023-0.107-0.043
		C40.744,14.655,40.757,14.585,40.76,14.516z"/>
	<path fill-rule="evenodd" clip-rule="evenodd" fill="#A9A9A9" d="M63.209,14.561c-0.069,0.082-0.138,0.163-0.208,0.244
		c-2.963-0.012-5.927-0.025-8.891-0.039c-0.038,0-0.104-0.025-0.107-0.045c-0.009-0.068,0.004-0.139,0.008-0.208
		C57.077,14.529,60.144,14.545,63.209,14.561z"/>
	<path fill-rule="evenodd" clip-rule="evenodd" fill="#F2F2F2" d="M458.485,13.279c0.012-1.082,0.025-2.164,0.038-3.246
		c1.482,0,2.965,0.023,4.446-0.012c0.437-0.011,0.868-0.185,1.304-0.283c0.59,0.764,1.036,1.744,1.799,2.25
		c1.897,1.262,3.979,0.279,5.155-2.251c1.464,0.101,2.928,0.208,4.391,0.296c0.451,0.027,0.906,0.002,1.359,0
		c0.005,1.086,0.009,2.173,0.013,3.26c-0.163,0.329-0.328,0.659-0.491,0.988c-0.266,0.094-0.53,0.188-0.795,0.283
		c-5.398-0.002-10.794-0.002-16.192-0.002C459.17,14.136,458.828,13.707,458.485,13.279z"/>
	<path fill-rule="evenodd" clip-rule="evenodd" fill="#DBDBDB" d="M519.5,14.787c-13.514,0-27.028,0.004-40.545-0.011
		c-0.65,0-1.303-0.155-1.955-0.238c13.516,0,27.029-0.004,40.544,0.011C518.196,14.549,518.848,14.705,519.5,14.787z"/>
	<path fill-rule="evenodd" clip-rule="evenodd" fill="#A7A7A7" d="M459.512,14.562c5.398,0,10.794,0,16.192,0.002
		c-0.072,0.077-0.142,0.155-0.212,0.232c-5.16,0-10.321,0-15.482,0C459.844,14.719,459.677,14.641,459.512,14.562z"/>
	<path fill-rule="evenodd" clip-rule="evenodd" fill="#D8D8D8" d="M460.01,14.797c5.161,0,10.322,0,15.482,0
		c-0.444,0.08-0.889,0.228-1.332,0.229c-4.273,0.017-8.547,0.017-12.82,0C460.896,15.024,460.453,14.877,460.01,14.797z"/>
	<path fill-rule="evenodd" clip-rule="evenodd" fill="#F7F7F7" d="M193.254,4.784c0.332-0.333,0.664-0.666,0.996-0.998
		c25.913-0.005,51.824-0.011,77.735-0.011c59.448-0.002,118.896-0.001,178.344-0.001c3.653,0,3.948,0.3,3.933,4.013
		c-0.001,0.417-0.015,0.833-0.022,1.25c-0.562,0-1.125-0.001-1.688-0.002c-0.175-0.996-0.331-2.003-1.144-2.657
		c-0.099,0.052-0.199,0.104-0.298,0.155c0.214,0.418,0.427,0.836,0.641,1.253c-0.149,0.37-0.297,0.739-0.55,1.37
		c-0.342-0.574-0.503-0.848-0.667-1.121c-0.239-0.214-0.479-0.428-0.72-0.642c-0.062,0.056-0.126,0.11-0.19,0.166
		c0.138,0.407,0.275,0.815,0.412,1.223c-0.306-0.294-0.648-0.562-0.909-0.892c-0.263-0.332-0.444-0.727-0.662-1.094
		c-0.747,0.407-1.496,0.814-2.245,1.223c-0.735-0.053-1.316,0.09-1.266,1.016c-50.436,0.002-100.87,0.004-151.306-0.008
		c-1.41,0-2.821-0.139-4.232-0.213c-1.375-0.962-2.234-0.746-2.891,0.725c-0.165,0-0.328-0.002-0.494-0.004
		c-0.352-0.423-0.637-1.101-1.068-1.212c-0.761-0.196-1.611-0.032-2.424-0.048c-0.705-0.014-1.074,0.289-1.071,1.01
		c-0.229-0.168-0.455-0.335-0.683-0.502c-1.161-0.812-1.894-0.75-2.281,0.181c0.475,0.021,0.959,0.044,1.443,0.065
		c-0.021,0.096-0.041,0.191-0.062,0.288c-0.599,0.251-1.198,0.501-1.799,0.751c-0.18-0.262-0.357-0.523-0.537-0.785
		c-0.246-1.072-1.032-1.041-1.898-1.005c-0.903,0.038-0.889,0.642-0.935,1.257c-0.753,0.162-1.509,0.324-2.265,0.485
		c0.026-0.936-0.255-1.659-1.32-1.749c-0.911-0.078-1.527,0.295-1.668,1.264c-0.318,0.084-0.639,0.168-0.957,0.252
		c-0.094-0.726,0.8-1.668-0.727-2.264c-0.092,0.434-0.186,0.876-0.279,1.317c-0.246,0.398-0.491,0.797-0.737,1.195
		c-0.067-0.54-0.136-1.081-0.203-1.622c-0.121,0.003-0.241,0.006-0.363,0.01c-0.078,0.287-0.157,0.573-0.235,0.86
		c-0.263,0.181-0.527,0.362-0.791,0.543c-0.496-0.187-0.992-0.372-1.487-0.56c0.029-0.111,0.06-0.226,0.089-0.338
		c0.453,0.02,0.904,0.04,1.354,0.061c0.027-0.133,0.054-0.266,0.081-0.398c-0.488-0.104-1.059-0.409-1.444-0.255
		c-0.422,0.169-0.672,0.763-0.999,1.171c-0.166,0.094-0.333,0.186-0.5,0.278c-0.255-0.447-0.459-1.231-0.773-1.28
		c-1.031-0.156-1.688-0.703-2.256-1.475c-0.081,0.611-0.135,1.23-0.26,1.834c-0.031,0.161-0.275,0.279-0.422,0.418
		c-0.299-0.807-0.953-1.28-1.7-0.957c-0.555,0.24-0.903,0.957-1.345,1.462c-0.178-0.001-0.355-0.003-0.533-0.003
		c0.026-0.455,0.055-0.91,0.081-1.365c-0.116-0.021-0.232-0.044-0.349-0.066c-0.212,0.522-0.425,1.045-0.67,1.652
		c-0.318-0.658-0.57-1.179-0.988-2.044c-0.404,0.882-0.645,1.406-0.934,2.038c-0.271-0.615-0.484-1.104-0.7-1.594
		c-0.089,0.021-0.175,0.042-0.264,0.062c-0.046,0.264-0.093,0.527-0.14,0.791c-0.748,1.244-1.979,0.61-3.004,0.777
		c0.219-0.531,0.438-1.062,0.678-1.644c-0.592-0.095-1.271-0.37-1.471,0.641c-0.233,0.001-0.467,0.001-0.699,0.001
		c-0.639-0.238-1.379-0.792-1.884-0.627c-0.497,0.162-0.755,1.056-1.116,1.628c-0.256-0.399-0.511-0.798-0.764-1.197
		c-0.119-0.433-0.239-0.866-0.359-1.299c-0.216,0.037-0.433,0.073-0.649,0.11c0,0.795,0,1.592,0,2.387c-0.246,0-0.491,0-0.739,0
		c-0.312-1.75-0.346-1.777-2.158-1.747c-0.207,0.003-0.412-0.007-0.619-0.011c-0.225,0.334-0.449,0.67-0.675,1.004
		c-0.321-0.873-0.976-1.172-1.84-0.982c-0.91,0.199-1.191,0.885-1.196,1.735c-1.003,0-2.007,0-3.009,0.001
		c0.219-0.529,0.436-1.059,0.675-1.639c-0.738-0.188-1.418-0.242-1.467,0.887c-0.223-0.001-0.446-0.002-0.667-0.002
		c-0.372-0.73-0.956-1.278-1.767-0.969c-0.52,0.197-0.884,0.799-1.318,1.221c-0.737,0.168-1.474,0.335-2.211,0.502
		c-0.206-0.546-0.395-1.553-0.621-1.561c-1.084-0.043-1.529-0.838-2.149-1.445c-0.076,0.354-0.197,0.703-0.223,1.061
		c-0.123,1.676-0.121,1.682-1.773,1.695c-0.243,0.002-0.487,0-0.73,0c0.154-1.807,1.179-0.426,1.956-0.594
		c-0.174-0.383-0.417-0.803-0.731-0.867c-0.982-0.199-1.809,0.036-2.02,1.208c-0.457,0.134-1.006,0.671-1.216-0.276
		c0.271-0.249,0.543-0.497,1.069-0.977c-0.854,0-1.344,0-1.833,0c-0.242,0.585-0.484,1.171-0.727,1.756
		c-0.063-0.791-0.016-1.712-1.133-1.744c-0.472-0.014-0.95,0.279-1.426,0.434c0.054,0.114,0.11,0.229,0.165,0.344
		c0.476,0,0.952,0,1.427,0c-0.002,0.073-0.003,0.146-0.007,0.221c-0.595,0.248-1.191,0.496-1.788,0.744
		c-0.181-0.004-0.361-0.01-0.542-0.016c0.025-0.864-0.203-1.574-1.184-1.736c-0.985-0.162-1.573,0.301-1.806,1.251
		c-0.141,0.083-0.281,0.166-0.421,0.249c-0.574-0.298-1.165-0.568-1.714-0.907c-0.244-0.151-0.402-0.44-0.601-0.667
		c0.311-0.129,0.625-0.369,0.931-0.359c0.357,0.012,0.707,0.241,1.06,0.377c0.07-0.131,0.14-0.262,0.21-0.393
		c-0.468-0.255-0.927-0.684-1.409-0.714c-0.451-0.028-1.256,0.292-1.323,0.59c-0.121,0.54,0.191,1.176,0.323,1.772
		c-1.622,0.996-3.331,0.54-5.028,0.305c0.012-0.165,0.019-0.33,0.035-0.494c0.103-1.074-0.143-2.116-1.22-2.436
		c-0.727-0.215-1.746-0.135-2.391,0.235c-0.932,0.534-1.31,1.55-0.83,2.679c-1.274,0.088-2.55,0.177-3.825,0.265
		C193.259,8.285,193.256,6.535,193.254,4.784z"/>
	<path fill-rule="evenodd" clip-rule="evenodd" fill="#F2F2F2" d="M254.975,9.785c0.178,0,0.355,0.002,0.533,0.003
		c0.112,0.353,0.119,0.833,0.36,1.03c0.405,0.332,0.941,0.605,1.453,0.672c0.325,0.041,0.705-0.337,1.06-0.526
		c-0.723-0.397-1.588,0.584-1.826-0.49c0.732-0.437,1.365-0.813,1.998-1.19c0.146-0.139,0.391-0.257,0.422-0.418
		c0.125-0.604,0.179-1.223,0.26-1.834c-0.008,1.028-0.061,2.059-0.005,3.084c0.021,0.438,0.185,1.174,0.42,1.232
		c0.594,0.15,1.363,0.176,1.872-0.1c0.396-0.213,0.506-0.955,0.742-1.462c0.167-0.093,0.334-0.185,0.5-0.277
		c0.598,0.36,1.195,0.72,1.794,1.081c-0.343,0.264-0.599,0.285-0.851,0.257c-0.245-0.027-0.484-0.105-0.929-0.209
		c0.547,1.093,1.298,1.032,1.989,0.759c0.745-0.293,0.697-0.934,0.402-1.569c0.264-0.181,0.528-0.362,0.791-0.543
		c0.059,0.696,0.117,1.393,0.177,2.089c0.134,0.003,0.269,0.006,0.402,0.008c0.075-0.448,0.148-0.896,0.223-1.345
		c0.246-0.398,0.491-0.797,0.737-1.195c0.086,0.594,0.098,1.212,0.281,1.772c0.115,0.356,0.485,0.629,0.742,0.938
		c0.063-0.079,0.128-0.157,0.191-0.236c-0.07-0.51-0.139-1.019-0.209-1.528c0.318-0.084,0.639-0.168,0.957-0.252
		c0.039,0.906,0.15,1.83,1.272,1.95c0.464,0.05,0.964-0.263,1.446-0.411c-0.048-0.078-0.098-0.156-0.145-0.233
		c-0.543-0.054-1.083-0.108-1.623-0.162c0.006-0.171,0.014-0.342,0.02-0.513c0.674-0.048,1.346-0.097,2.018-0.146
		c0.756-0.161,1.512-0.323,2.265-0.485c0.06,0.609,0.12,1.221,0.181,1.83c0.14-0.002,0.28-0.003,0.42-0.005
		c0.064-0.583,0.063-1.183,0.22-1.739c0.078-0.28,0.444-0.479,0.68-0.715c0.179,0.244,0.455,0.466,0.516,0.736
		c0.128,0.562,0.141,1.151,0.2,1.729c0.158,0.002,0.317,0.004,0.474,0.004c0.048-0.697,0.096-1.395,0.144-2.092
		c0.18,0.262,0.357,0.523,0.535,0.785c-0.119,1.062,0.373,1.479,1.42,1.471c1-0.008,1.396-0.414,1.27-1.409
		c-0.055-0.44,0.004-0.897,0.012-1.347c0.228,0.167,0.454,0.334,0.683,0.502c0.063,0.689,0.126,1.379,0.188,2.068
		c0.138-0.004,0.275-0.007,0.414-0.01c0.057-0.547,0.055-1.111,0.195-1.636c0.08-0.297,0.398-0.528,0.609-0.791
		c0.18,0.251,0.45,0.478,0.521,0.756c0.132,0.513,0.146,1.056,0.208,1.586c0.111-0.007,0.224-0.015,0.334-0.021
		c0.051-0.518,0.031-1.056,0.176-1.545c0.086-0.29,0.431-0.505,0.658-0.755c0.163,0.258,0.41,0.494,0.473,0.773
		c0.123,0.537,0.141,1.098,0.203,1.648c0.144-0.01,0.288-0.02,0.433-0.029c0.052-0.598,0.101-1.196,0.151-1.795
		c0.166,0.002,0.329,0.004,0.494,0.004c0.369,1.869,0.469,1.961,2.234,2.023c0.621,0.158,1.244,0.453,1.867,0.455
		c30.011,0.043,60.021,0.067,90.034,0.076c11.279,0.004,22.56-0.036,33.838-0.057c10.697,0,21.393,0.004,32.09-0.008
		c0.712-0.001,1.558,0.225,1.911-0.748c0.078-0.584,0.155-1.168,0.234-1.752c0.089,0.086,0.177,0.172,0.266,0.258
		c0.264,0.707,0.527,1.413,0.791,2.12c0.469-0.2,0.938-0.398,1.406-0.599c0.186,0.084,0.371,0.167,0.558,0.25
		c0.828,0.077,1.654,0.153,2.483,0.23c0,0.168-0.002,0.338-0.002,0.508c-0.793,0.246-1.584,0.707-2.379,0.709
		c-19.285,0.041-38.57,0.031-57.857,0.031c-17.745,0-35.488,0-53.233,0c-48.235,0-96.471,0.004-144.707-0.031
		c-0.932-0.001-1.864-0.469-2.795-0.719c-0.002-0.75-0.002-1.501-0.003-2.251c1.275-0.088,2.55-0.177,3.825-0.265
		c0.661,0.432,1.371,1.279,1.974,1.209c1.348-0.156,2.366,0.145,3.282,1.062c0.007,0.006,0.111-0.082,0.034-0.024
		c-0.308-0.774-0.595-1.503-0.884-2.231c1.697,0.235,3.406,0.691,5.028-0.305c0.281,0.058,0.625,0.035,0.832,0.191
		c0.31,0.235,0.524,0.596,0.779,0.902c-0.432,0.068-0.868,0.199-1.295,0.18c-0.263-0.013-0.515-0.256-0.956-0.495
		c0.193,1.322,1.003,1.302,1.768,1.29c1.167-0.017,1.406-0.802,1.396-1.768c0.14-0.083,0.28-0.166,0.421-0.249
		c0.04,0.907,0.151,1.831,1.273,1.951c0.462,0.05,0.964-0.263,1.448-0.411c-0.049-0.078-0.099-0.156-0.148-0.233
		c-0.541-0.054-1.081-0.108-1.62-0.161c0.005-0.172,0.012-0.342,0.019-0.513c0.672-0.049,1.345-0.098,2.018-0.147
		c0.18,0.006,0.36,0.012,0.542,0.016c-0.063,0.92,0.183,1.492,1.284,1.519c1.132,0.026,1.592-0.417,1.477-1.517
		c0.242-0.585,0.484-1.171,0.727-1.756c0,0.979,0,1.959,0,2.939c0.124,0.002,0.248,0.006,0.373,0.009
		c0.13-0.657,0.261-1.315,0.391-1.972c0.21,0.947,0.759,0.41,1.216,0.276c0.041,0.905,0.164,1.792,1.272,1.969
		c0.636,0.103,1.295,0.061,1.519-0.835c-1.724,0.275-1.724,0.275-1.996-0.881c0.244,0,0.487,0.002,0.73,0
		c1.653-0.014,1.65-0.02,1.773-1.695c0.026-0.357,0.147-0.707,0.223-1.061c0.001,1.4,0.001,2.801,0.001,4.203
		c0.156-0.002,0.312-0.003,0.468-0.004c0.04-0.473-0.012-0.98,0.149-1.407c0.135-0.361,0.52-0.63,0.793-0.938
		c0.202,0.319,0.488,0.615,0.584,0.964c0.133,0.481,0.12,1.004,0.171,1.509c0.124,0.009,0.248,0.018,0.373,0.026
		c0.077-0.449,0.153-0.897,0.231-1.347c0.737-0.167,1.474-0.334,2.211-0.502c0.029,0.285-0.049,0.68,0.109,0.834
		c0.451,0.439,0.953,0.988,1.52,1.111c0.777,0.172,1.275-0.414,1.389-1.217c0.046-0.323,0.046-0.653,0.067-0.98
		c0.221,0,0.444,0.001,0.667,0.002c0.058,0.695,0.113,1.391,0.17,2.085c0.134,0.003,0.268,0.006,0.401,0.009
		c0.075-0.447,0.147-0.895,0.221-1.342c1.002-0.001,2.006-0.001,3.009-0.001c0.286,0.8,0.591,1.624,1.664,1.481
		c0.416-0.056,0.802-0.338,1.202-0.518c-0.718-0.434-1.585,0.539-1.833-0.523c0.737-0.439,1.37-0.816,2.003-1.193
		c0.226-0.334,0.45-0.67,0.676-1.004c0,0.981,0,1.961,0,2.941c0.146,0.002,0.292,0.004,0.438,0.004
		c0.051-0.518,0.015-1.067,0.183-1.544c0.112-0.317,0.519-0.53,0.792-0.79c0.192,0.286,0.477,0.549,0.556,0.863
		c0.134,0.522,0.134,1.078,0.19,1.621c0.126,0.005,0.252,0.011,0.381,0.017c0.078-0.452,0.156-0.903,0.236-1.354
		c0.248,0,0.493,0,0.739,0c0.082,0.75,0.165,1.502,1.009,1.431c0-1.018,0-1.823,0-2.629c0.253,0.399,0.508,0.798,0.764,1.197
		c0.285,0.796,0.588,1.621,1.658,1.481c0.417-0.055,0.807-0.333,1.209-0.51c-0.711-0.449-1.574,0.519-1.891-0.713
		c0.638-0.556,2.086,0.294,2.023-1.26c0.232,0,0.466,0,0.699-0.001c0.053,0.778,0.105,1.555,0.158,2.332
		c0.137,0.007,0.275,0.013,0.41,0.02c0.076-0.45,0.15-0.899,0.225-1.349c1.025-0.167,2.256,0.467,3.004-0.776
		c0.303,0.75,0.606,1.5,0.91,2.25c0.118-0.021,0.236-0.04,0.354-0.062c0.255-0.519,0.509-1.038,0.804-1.641
		c0.312,0.645,0.566,1.166,0.988,2.036C254.473,10.926,254.725,10.355,254.975,9.785z"/>
	<path fill-rule="evenodd" clip-rule="evenodd" fill="#E0E0E0" d="M191.485,8.787c0.001,0.916,0.003,1.832,0.003,2.748
		c-42.244,0-84.486,0-126.729,0c0-0.916,0-1.832-0.001-2.748c22.914,0,45.828,0,68.743,0c10.667,0,21.333,0,32,0
		C174.162,8.787,182.824,8.787,191.485,8.787z"/>
	<path fill-rule="evenodd" clip-rule="evenodd" fill="#E3E3E3" d="M64.745,4.802C64.83,4.713,64.915,4.625,65,4.537
		c0.737,0.084,1.472,0.239,2.209,0.24c41.429,0.012,82.86,0.01,124.29,0.01c-0.004,0.582-0.009,1.166-0.014,1.748
		c-8.661,0.001-17.323,0.002-25.985,0.002c-10.667,0-21.333,0-32,0c-22.915,0-45.829-0.001-68.743-0.001
		C64.753,5.957,64.749,5.381,64.745,4.802z"/>
	<path fill-rule="evenodd" clip-rule="evenodd" fill="#DCDCDC" d="M64.759,11.535c42.243,0,84.486,0,126.729,0
		c0,0.501,0,1.002,0,1.502c-42.244,0-84.489,0-126.734,0.001C64.756,12.537,64.758,12.036,64.759,11.535z"/>
	<path fill-rule="evenodd" clip-rule="evenodd" fill="#DCDCDC" d="M64.755,13.038c42.245-0.001,84.49-0.001,126.734-0.001
		c0.007,0.247,0.015,0.494,0.021,0.74c-0.569,0.088-1.138,0.249-1.708,0.249c-41.234,0.012-82.47,0.012-123.706,0.001
		c-0.615,0-1.229-0.156-1.843-0.238c0.079-0.162,0.158-0.325,0.238-0.488C64.58,13.213,64.667,13.125,64.755,13.038z"/>
	<path fill-rule="evenodd" clip-rule="evenodd" fill="#F2F2F2" d="M394,13.037c19.287,0,38.572,0.01,57.857-0.031
		c0.795-0.002,1.586-0.463,2.379-0.709c-0.007,0.325-0.016,0.652-0.022,0.978c-0.807,0.345-1.61,0.989-2.419,0.991
		c-19.265,0.053-38.529,0.035-57.795,0.031C394,13.877,394,13.457,394,13.037z"/>
	<path fill-rule="evenodd" clip-rule="evenodd" fill="#B3B3B3" d="M194.252,3.531c0-0.08,0-0.161,0-0.241
		c86.134,0,172.268,0,258.402,0c0,0.08,0,0.161,0,0.241C366.52,3.531,280.387,3.531,194.252,3.531z"/>
	<path fill-rule="evenodd" clip-rule="evenodd" fill="#E0E0E0" d="M165.5,6.537c8.663,0,17.324-0.001,25.985-0.002
		c0,0.752,0,1.501,0,2.252c-8.661,0-17.323,0-25.985,0C165.5,8.037,165.5,7.287,165.5,6.537z"/>
	<path fill-rule="evenodd" clip-rule="evenodd" fill="#E3E3E3" d="M191.499,4.787c-41.43,0-82.861,0.002-124.29-0.01
		C66.472,4.776,65.737,4.621,65,4.537c42.171,0.002,84.34,0.003,126.51,0.004C191.508,4.623,191.504,4.705,191.499,4.787z"/>
	<path fill-rule="evenodd" clip-rule="evenodd" fill="#F3F3F3" d="M454.238,11.789c-0.829-0.077-1.655-0.153-2.483-0.23
		c0.241-0.523,0.483-1.045,0.726-1.567c0.587,0.099,1.173,0.197,1.759,0.296C454.239,10.787,454.239,11.288,454.238,11.789z"/>
	<path fill-rule="evenodd" clip-rule="evenodd" fill="#F5F5F5" d="M454.239,10.287c-0.586-0.099-1.172-0.197-1.758-0.295
		c0.023-0.318,0.047-0.638,0.07-0.957c0.562,0.001,1.125,0.002,1.688,0.002C454.239,9.453,454.239,9.87,454.239,10.287z"/>
	<path fill-rule="evenodd" clip-rule="evenodd" fill="#F2F2F2" d="M394,13.037c0,0.42,0,0.84,0,1.26
		c-0.457,0.004-0.915,0.014-1.373,0.014c-65.391,0.002-130.779,0-196.167,0.01c-1.193,0-2.345,0.008-3.178-1.035
		c-0.006-0.332-0.013-0.666-0.018-0.998c0.931,0.25,1.863,0.718,2.795,0.719c48.236,0.035,96.472,0.031,144.707,0.031
		C358.512,13.037,376.255,13.037,394,13.037z"/>
	<path fill-rule="evenodd" clip-rule="evenodd" fill="#A0A0A0" d="M452.624,14.734c-85.922,0-171.846,0-257.768,0
		c0-0.039,0-0.08,0-0.119c85.914,0,171.83,0,257.743,0C452.607,14.654,452.615,14.695,452.624,14.734z"/>
	<path fill-rule="evenodd" clip-rule="evenodd" fill="#C0C0C0" d="M193.265,12.287c0.005,0.332,0.011,0.666,0.018,0.998
		c-0.094-0.646-0.278-1.295-0.266-1.94c0.042-2.188,0.152-4.374,0.237-6.561c0.002,1.751,0.005,3.501,0.007,5.252
		C193.262,10.786,193.263,11.537,193.265,12.287z"/>
	<path fill-rule="evenodd" clip-rule="evenodd" fill="#C9C9C9" d="M64.755,13.038c-0.088,0.087-0.175,0.175-0.263,0.263
		c-0.005-1.588-0.01-3.178-0.015-4.766c0.007-1.25,0.014-2.5,0.021-3.749c0.082,0.005,0.164,0.011,0.246,0.016
		c0.004,0.579,0.009,1.155,0.013,1.734c0,0.751,0,1.501,0,2.251c0.001,0.916,0.001,1.832,0.001,2.748
		C64.758,12.036,64.756,12.537,64.755,13.038z"/>
	<path fill-rule="evenodd" clip-rule="evenodd" fill="#C7C7C7" d="M45.014,10.033c0.435,0.546,0.869,1.092,1.304,1.637
		c-0.112,0.107-0.223,0.214-0.334,0.32C44.992,11.085,44,10.18,43.009,9.273c0.656-1.353,1.805-2.195,2.893-3.102
		c0.125,0.113,0.249,0.227,0.374,0.341c-0.463,0.511-0.88,1.075-1.4,1.519C43.971,8.802,43.994,9.434,45.014,10.033z"/>
	<path fill-rule="evenodd" clip-rule="evenodd" fill="#C7C7C7" d="M60.25,8.537c0.014,0.24,0.139,0.58,0.026,0.705
		c-0.866,0.954-1.779,1.867-2.678,2.793c-0.146-0.135-0.292-0.27-0.438-0.404c0.506-0.555,0.969-1.158,1.528-1.654
		c0.86-0.766,0.798-1.364-0.192-1.906c-0.492-0.504-0.984-1.008-1.476-1.512c0.122-0.139,0.245-0.277,0.367-0.417
		C58.589,6.594,59.209,7.861,60.25,8.537z"/>
	<path fill-rule="evenodd" clip-rule="evenodd" fill="#737373" d="M471.228,9.737c-1.176,2.53-3.258,3.513-5.155,2.251
		c-0.763-0.506-1.209-1.486-1.799-2.25c-0.076-1.549,0.351-2.869,1.77-3.688c1.173-0.676,2.373-0.646,3.522,0.062
		C470.909,6.945,471.302,8.24,471.228,9.737z M469.273,9.307c-0.125,0.008-0.252,0.016-0.378,0.023
		c-0.216-0.49-0.413-0.988-0.655-1.464c-0.142-0.278-0.354-0.521-0.535-0.778c-0.148,0.246-0.324,0.482-0.445,0.742
		c-0.242,0.518-0.453,1.05-0.781,1.823c0.252,0.293,0.744,0.863,1.323,1.535C468.378,10.453,468.826,9.879,469.273,9.307z"/>
	<path fill-rule="evenodd" clip-rule="evenodd" fill="#F5F5F5" d="M289.416,8.814c1.411,0.074,2.822,0.213,4.232,0.213
		c50.436,0.012,100.87,0.01,151.306,0.008c0.015,0.336,0.028,0.67,0.045,1.006c-0.653,0.082-1.306,0.234-1.956,0.236
		c-9.515,0.016-19.029,0.01-28.544,0.01c-18.326,0-36.654,0-54.981,0c-22.578,0-45.154,0.005-67.731-0.02
		c-0.748-0.001-1.497-0.303-2.247-0.463C289.499,9.475,289.457,9.145,289.416,8.814z"/>
	<path fill-rule="evenodd" clip-rule="evenodd" fill="#A3A3A3" d="M286.031,9.535c-0.051,0.599-0.1,1.197-0.151,1.795
		c-0.145,0.01-0.289,0.02-0.433,0.029c-0.062-0.551-0.08-1.111-0.203-1.648c-0.062-0.279-0.31-0.516-0.473-0.773
		c-0.228,0.25-0.572,0.465-0.658,0.755c-0.145,0.489-0.125,1.027-0.176,1.545c-0.11,0.007-0.223,0.015-0.334,0.021
		c-0.062-0.53-0.076-1.073-0.208-1.586c-0.07-0.278-0.341-0.505-0.521-0.756c-0.211,0.263-0.529,0.494-0.609,0.791
		c-0.141,0.524-0.139,1.089-0.195,1.636c-0.139,0.003-0.276,0.006-0.414,0.01c-0.062-0.689-0.125-1.379-0.188-2.068
		c-0.003-0.721,0.366-1.023,1.071-1.01c0.812,0.016,1.663-0.148,2.424,0.048C285.395,8.435,285.68,9.112,286.031,9.535z"/>
	<path fill-rule="evenodd" clip-rule="evenodd" fill="#A7A7A7" d="M201.491,9.787c0.289,0.729,0.577,1.457,0.884,2.231
		c0.077-0.058-0.026,0.03-0.034,0.024c-0.916-0.918-1.934-1.219-3.282-1.062c-0.603,0.07-1.313-0.777-1.974-1.209
		c-0.48-1.129-0.103-2.145,0.83-2.679c0.645-0.37,1.664-0.45,2.391-0.235c1.077,0.319,1.323,1.361,1.22,2.436
		C201.51,9.457,201.502,9.622,201.491,9.787z M199.331,10.566c1.085-0.026,1.755-0.762,1.7-1.867
		c-0.051-1.006-0.782-1.677-1.803-1.652c-1,0.024-1.711,0.754-1.716,1.756C197.508,9.874,198.25,10.594,199.331,10.566z"/>
	<path fill-rule="evenodd" clip-rule="evenodd" fill="#A3A3A3" d="M254.975,9.785c-0.25,0.57-0.502,1.141-0.906,2.06
		c-0.422-0.87-0.676-1.392-0.988-2.036c-0.295,0.603-0.549,1.122-0.804,1.641c-0.118,0.021-0.236,0.041-0.354,0.062
		c-0.304-0.75-0.607-1.5-0.91-2.25c0.047-0.265,0.094-0.528,0.14-0.792c0.089-0.021,0.175-0.041,0.264-0.062
		c0.216,0.489,0.43,0.979,0.7,1.594c0.289-0.632,0.529-1.156,0.934-2.038c0.418,0.865,0.67,1.386,0.988,2.044
		c0.245-0.607,0.458-1.13,0.67-1.652c0.116,0.022,0.232,0.045,0.349,0.066C255.029,8.875,255.001,9.33,254.975,9.785z"/>
	<path fill-rule="evenodd" clip-rule="evenodd" fill="#A2A2A2" d="M289.416,8.814c0.041,0.33,0.083,0.66,0.123,0.99
		c-0.651,0.238-1.304,0.478-1.955,0.717c-0.001,0.096-0.001,0.193-0.002,0.29c0.571-0.034,1.143-0.067,1.975-0.116
		c-0.383,0.416-0.589,0.642-0.797,0.867c-1.766-0.062-1.865-0.154-2.234-2.023C287.182,8.068,288.041,7.853,289.416,8.814z"/>
	<path fill-rule="evenodd" clip-rule="evenodd" fill="#A2A2A2" d="M209.041,9.783c0.011,0.966-0.229,1.751-1.396,1.768
		c-0.765,0.012-1.574,0.032-1.768-1.29c0.441,0.239,0.693,0.482,0.956,0.495c0.428,0.02,0.863-0.111,1.295-0.18
		c-0.255-0.307-0.469-0.667-0.779-0.902c-0.207-0.156-0.55-0.134-0.832-0.191c-0.132-0.597-0.444-1.232-0.323-1.772
		c0.067-0.298,0.872-0.618,1.323-0.59c0.482,0.03,0.941,0.459,1.409,0.714c-0.07,0.131-0.141,0.262-0.21,0.393
		c-0.353-0.136-0.703-0.365-1.06-0.377c-0.306-0.01-0.62,0.23-0.931,0.359c0.198,0.227,0.356,0.516,0.601,0.667
		C207.876,9.215,208.467,9.485,209.041,9.783z"/>
	<path fill-rule="evenodd" clip-rule="evenodd" fill="#A4A4A4" d="M215.754,10.037c0.115,1.1-0.345,1.543-1.477,1.517
		c-1.101-0.026-1.347-0.599-1.284-1.519c0.596-0.248,1.192-0.496,1.788-0.744c0.003-0.074,0.004-0.147,0.007-0.221
		c-0.476,0-0.952,0-1.427,0c-0.055-0.115-0.111-0.229-0.165-0.344c0.476-0.154,0.954-0.447,1.426-0.434
		C215.738,8.325,215.69,9.246,215.754,10.037z"/>
	<path fill-rule="evenodd" clip-rule="evenodd" fill="#A3A3A3" d="M280.785,8.783c-0.008,0.449-0.066,0.906-0.012,1.347
		c0.127,0.995-0.27,1.401-1.27,1.409c-1.047,0.008-1.539-0.408-1.42-1.471c0.603-0.25,1.202-0.5,1.801-0.751
		c0.021-0.097,0.042-0.192,0.062-0.288c-0.484-0.021-0.969-0.044-1.443-0.065C278.892,8.033,279.624,7.971,280.785,8.783z"/>
	<path fill-rule="evenodd" clip-rule="evenodd" fill="#A2A2A2" d="M272.451,10.021c-0.672,0.049-1.344,0.098-2.018,0.146
		c-0.006,0.171-0.014,0.342-0.02,0.513c0.54,0.054,1.08,0.108,1.623,0.162c0.047,0.077,0.097,0.155,0.145,0.233
		c-0.482,0.148-0.982,0.461-1.446,0.411c-1.122-0.12-1.233-1.044-1.272-1.95c0.141-0.969,0.757-1.342,1.668-1.264
		C272.196,8.361,272.478,9.085,272.451,10.021z"/>
	<path fill-rule="evenodd" clip-rule="evenodd" fill="#A2A2A2" d="M212.452,10.02c-0.673,0.05-1.346,0.099-2.018,0.147
		c-0.007,0.171-0.013,0.341-0.019,0.513c0.539,0.053,1.079,0.107,1.62,0.161c0.049,0.077,0.099,0.155,0.148,0.233
		c-0.484,0.148-0.986,0.461-1.448,0.411c-1.123-0.12-1.233-1.044-1.273-1.951c0.232-0.95,0.82-1.413,1.806-1.251
		C212.249,8.445,212.477,9.155,212.452,10.02z"/>
	<path fill-rule="evenodd" clip-rule="evenodd" fill="#A2A2A2" d="M237.552,9.283c-0.633,0.377-1.266,0.754-2.003,1.193
		c0.248,1.062,1.115,0.09,1.833,0.523c-0.4,0.18-0.786,0.462-1.202,0.518c-1.073,0.143-1.378-0.682-1.664-1.481
		c0.005-0.851,0.286-1.536,1.196-1.735C236.576,8.111,237.23,8.41,237.552,9.283z"/>
	<path fill-rule="evenodd" clip-rule="evenodd" fill="#A2A2A2" d="M246.516,9.035c0.062,1.554-1.386,0.704-2.023,1.26
		c0.316,1.231,1.18,0.264,1.891,0.713c-0.402,0.177-0.792,0.455-1.209,0.51c-1.07,0.14-1.373-0.686-1.658-1.481
		c0.361-0.572,0.619-1.466,1.116-1.628C245.137,8.243,245.877,8.797,246.516,9.035z"/>
	<path fill-rule="evenodd" clip-rule="evenodd" fill="#A2A2A2" d="M258.553,9.283c-0.633,0.377-1.266,0.754-1.998,1.19
		c0.238,1.074,1.104,0.093,1.826,0.49c-0.354,0.189-0.734,0.567-1.06,0.526c-0.512-0.066-1.048-0.34-1.453-0.672
		c-0.241-0.197-0.248-0.678-0.36-1.03c0.441-0.505,0.79-1.222,1.345-1.462C257.6,8.003,258.254,8.477,258.553,9.283z"/>
	<path fill-rule="evenodd" clip-rule="evenodd" fill="#A1A1A1" d="M262.264,9.786c-0.236,0.507-0.346,1.249-0.742,1.462
		c-0.509,0.275-1.278,0.25-1.872,0.1c-0.235-0.059-0.398-0.795-0.42-1.232c-0.056-1.025-0.003-2.056,0.005-3.084
		c0.568,0.771,1.225,1.318,2.256,1.475C261.805,8.555,262.009,9.339,262.264,9.786z M260.401,11.028
		c0.146,0.009,0.294,0.019,0.44,0.027c0.211-0.383,0.613-0.785,0.577-1.144c-0.036-0.37-0.5-0.697-0.776-1.044
		c-0.262,0.319-0.708,0.624-0.735,0.962C259.875,10.214,260.22,10.627,260.401,11.028z"/>
	<path fill-rule="evenodd" clip-rule="evenodd" fill="#A3A3A3" d="M230.048,9.283c-0.021,0.327-0.021,0.657-0.067,0.98
		c-0.114,0.803-0.612,1.389-1.389,1.217c-0.566-0.123-1.069-0.672-1.52-1.111c-0.159-0.154-0.081-0.549-0.109-0.834
		c0.434-0.422,0.798-1.023,1.318-1.221C229.092,8.005,229.677,8.553,230.048,9.283z M229.611,9.877
		c-0.486-0.46-0.776-0.736-1.067-1.012c-0.266,0.344-0.713,0.675-0.74,1.037c-0.024,0.311,0.435,0.658,0.679,0.988
		C228.799,10.605,229.116,10.321,229.611,9.877z"/>
	<path fill-rule="evenodd" clip-rule="evenodd" fill="#A3A3A3" d="M224.752,10.037c-0.078,0.449-0.155,0.897-0.231,1.347
		c-0.125-0.009-0.249-0.018-0.373-0.026c-0.051-0.505-0.038-1.027-0.171-1.509c-0.096-0.349-0.383-0.645-0.584-0.964
		c-0.273,0.309-0.658,0.577-0.793,0.938c-0.162,0.427-0.109,0.935-0.149,1.407c-0.156,0.001-0.312,0.002-0.468,0.004
		c0-1.402,0-2.803-0.001-4.203c0.621,0.607,1.065,1.402,2.149,1.445C224.358,8.484,224.547,9.491,224.752,10.037z"/>
	<path fill-rule="evenodd" clip-rule="evenodd" fill="#A5A5A5" d="M277.549,9.283c-0.048,0.697-0.096,1.395-0.144,2.092
		c-0.156,0-0.315-0.002-0.474-0.004c-0.06-0.577-0.072-1.166-0.2-1.729c-0.061-0.271-0.337-0.492-0.516-0.736
		c-0.235,0.236-0.602,0.435-0.68,0.715c-0.156,0.557-0.155,1.156-0.22,1.739c-0.14,0.002-0.28,0.003-0.42,0.005
		c-0.061-0.609-0.121-1.221-0.181-1.83c0.046-0.615,0.031-1.219,0.935-1.257C276.517,8.242,277.303,8.211,277.549,9.283z"/>
	<path fill-rule="evenodd" clip-rule="evenodd" fill="#A4A4A4" d="M265.17,9.827c0.295,0.636,0.343,1.276-0.402,1.569
		c-0.691,0.273-1.442,0.334-1.989-0.759c0.444,0.104,0.684,0.182,0.929,0.209c0.252,0.028,0.508,0.007,0.851-0.257
		c-0.599-0.361-1.196-0.721-1.794-1.081c0.327-0.409,0.577-1.003,0.999-1.172c0.386-0.154,0.956,0.151,1.444,0.255
		c-0.027,0.133-0.054,0.266-0.081,0.398c-0.45-0.021-0.901-0.041-1.354-0.061c-0.029,0.112-0.06,0.227-0.089,0.338
		C264.178,9.455,264.674,9.641,265.17,9.827z"/>
	<path fill-rule="evenodd" clip-rule="evenodd" fill="#A3A3A3" d="M219.255,9.787c0.272,1.156,0.272,1.156,1.996,0.881
		c-0.224,0.896-0.883,0.938-1.519,0.835c-1.108-0.177-1.231-1.063-1.272-1.969c0.21-1.172,1.038-1.407,2.02-1.208
		c0.315,0.064,0.557,0.484,0.731,0.867C220.434,9.361,219.409,7.98,219.255,9.787z"/>
	<path fill-rule="evenodd" clip-rule="evenodd" fill="#A4A4A4" d="M241.004,10.037c-0.08,0.451-0.158,0.902-0.236,1.354
		c-0.129-0.006-0.255-0.012-0.381-0.017c-0.057-0.543-0.057-1.099-0.19-1.621c-0.079-0.314-0.363-0.577-0.556-0.863
		c-0.273,0.26-0.68,0.473-0.792,0.79c-0.168,0.477-0.132,1.026-0.183,1.544c-0.146,0-0.293-0.002-0.438-0.004c0-0.98,0-1.96,0-2.941
		c0.206,0.004,0.411,0.014,0.618,0.011C240.658,8.26,240.691,8.287,241.004,10.037z"/>
	<path fill-rule="evenodd" clip-rule="evenodd" fill="#A5A5A5" d="M242.752,8.839c0,0.806,0,1.611,0,2.629
		c-0.844,0.071-0.927-0.681-1.009-1.431c0-0.795,0-1.592,0-2.387c0.217-0.037,0.434-0.073,0.649-0.11
		C242.513,7.973,242.633,8.406,242.752,8.839z"/>
	<path fill-rule="evenodd" clip-rule="evenodd" fill="#A5A5A5" d="M268.506,9.787c0.07,0.51,0.139,1.019,0.209,1.528
		c-0.063,0.079-0.128,0.157-0.191,0.236c-0.257-0.31-0.627-0.582-0.742-0.938c-0.184-0.561-0.195-1.179-0.281-1.772
		c0.094-0.441,0.188-0.884,0.279-1.317C269.306,8.119,268.412,9.062,268.506,9.787z"/>
	<path fill-rule="evenodd" clip-rule="evenodd" fill="#A8A8A8" d="M448.734,9.529c-0.079,0.584-0.156,1.168-0.234,1.752
		c-0.168-0.165-0.334-0.33-0.501-0.495c0.122-1.058,0.244-2.114,0.406-3.507c-0.829,0.467-1.249,0.705-1.669,0.941
		c-0.172-0.067-0.344-0.135-0.517-0.201c0.749-0.408,1.498-0.815,2.245-1.223C448.555,7.707,448.645,8.619,448.734,9.529z"/>
	<path fill-rule="evenodd" clip-rule="evenodd" fill="#A7A7A7" d="M248.008,10.037c-0.074,0.449-0.148,0.898-0.225,1.349
		c-0.135-0.007-0.273-0.013-0.41-0.02c-0.053-0.777-0.105-1.554-0.158-2.332c0.199-1.011,0.879-0.735,1.471-0.641
		C248.445,8.975,248.227,9.506,248.008,10.037z"/>
	<path fill-rule="evenodd" clip-rule="evenodd" fill="#A7A7A7" d="M231.507,10.037c-0.073,0.447-0.146,0.895-0.221,1.342
		c-0.133-0.003-0.267-0.006-0.401-0.009c-0.057-0.694-0.113-1.39-0.17-2.085c0.049-1.129,0.729-1.074,1.467-0.887
		C231.942,8.979,231.726,9.508,231.507,10.037z"/>
	<path fill-rule="evenodd" clip-rule="evenodd" fill="#9B9B9B" d="M452.552,9.035c-0.023,0.319-0.047,0.639-0.07,0.957
		c-0.243,0.521-0.485,1.043-0.727,1.566c-0.187-0.083-0.372-0.166-0.558-0.25c0.178-0.34,0.355-0.682,0.533-1.021
		c0.006-0.834,0.013-1.668,0.021-2.501c-0.214-0.417-0.427-0.835-0.641-1.253c0.099-0.052,0.199-0.104,0.298-0.155
		C452.221,7.032,452.377,8.039,452.552,9.035z"/>
	<path fill-rule="evenodd" clip-rule="evenodd" fill="#A2A2A2" d="M217.244,9.258c-0.13,0.656-0.26,1.314-0.391,1.972
		c-0.125-0.003-0.249-0.007-0.373-0.009c0-0.98,0-1.96,0-2.939c0.489,0,0.979,0,1.833,0C217.788,8.761,217.515,9.009,217.244,9.258z
		"/>
	<path fill-rule="evenodd" clip-rule="evenodd" fill="#F5F5F5" d="M451.751,7.786c-0.008,0.833-0.015,1.667-0.021,2.501
		c-0.43-0.004-0.859-0.009-1.291-0.013c0.032-0.747,0.063-1.493,0.095-2.239c0.164,0.273,0.325,0.547,0.667,1.121
		C451.454,8.525,451.602,8.156,451.751,7.786z"/>
	<path fill-rule="evenodd" clip-rule="evenodd" fill="#ACACAC" d="M266.763,10.036c-0.074,0.448-0.147,0.896-0.223,1.345
		c-0.134-0.002-0.269-0.005-0.402-0.008c-0.06-0.696-0.118-1.393-0.177-2.089c0.078-0.287,0.157-0.573,0.235-0.86
		c0.122-0.004,0.242-0.007,0.363-0.01C266.627,8.955,266.695,9.496,266.763,10.036z"/>
	<path fill-rule="evenodd" clip-rule="evenodd" fill="#F5F5F5" d="M448.734,9.529c-0.09-0.91-0.18-1.822-0.27-2.732
		c0.218,0.367,0.399,0.762,0.662,1.094c0.261,0.33,0.604,0.598,0.909,0.892c-0.112,0.495-0.225,0.991-0.337,1.485
		c-0.233-0.16-0.467-0.32-0.699-0.48C448.911,9.701,448.823,9.615,448.734,9.529z"/>
	<path fill-rule="evenodd" clip-rule="evenodd" fill="#A4A4A4" d="M449.699,10.268c0.112-0.494,0.225-0.99,0.337-1.485
		c-0.137-0.407-0.274-0.815-0.412-1.223c0.064-0.056,0.128-0.11,0.19-0.166c0.24,0.214,0.48,0.428,0.72,0.642
		c-0.031,0.746-0.062,1.492-0.094,2.239C450.193,10.272,449.947,10.27,449.699,10.268z"/>
	<path fill-rule="evenodd" clip-rule="evenodd" fill="#959595" d="M446.22,8.02c0.173,0.066,0.345,0.134,0.517,0.201
		c-0.412,0.268-0.825,0.537-1.237,0.804c0.357,0.288,0.716,0.573,1.074,0.861c0.062,0.05,0.12,0.103,0.182,0.153
		c-0.586,0.001-1.171,0.001-1.756,0.002c-0.017-0.336-0.03-0.67-0.045-1.006C444.903,8.109,445.484,7.967,446.22,8.02z"/>
	<path fill-rule="evenodd" clip-rule="evenodd" fill="#F3F3F3" d="M288.76,11.562c0.208-0.226,0.414-0.451,0.797-0.867
		c-0.832,0.049-1.403,0.082-1.975,0.116c0.001-0.097,0.001-0.194,0.002-0.29c0.651-0.239,1.304-0.479,1.955-0.717
		c0.75,0.16,1.499,0.462,2.247,0.463c22.577,0.024,45.153,0.02,67.731,0.02c18.327,0,36.655,0,54.981,0c0,0.584,0,1.167,0,1.75
		c-11.278,0.021-22.559,0.061-33.838,0.057c-30.013-0.009-60.023-0.033-90.034-0.076C290.004,12.016,289.381,11.721,288.76,11.562z"
		/>
	<path fill-rule="evenodd" clip-rule="evenodd" fill="#F3F3F3" d="M414.499,12.037c0-0.583,0-1.166,0-1.75
		c9.515,0,19.029,0.006,28.544-0.01c0.65-0.002,1.303-0.154,1.956-0.236c0.585-0.001,1.17-0.001,1.756-0.002
		c0.414,0.25,0.829,0.498,1.244,0.747c0.167,0.165,0.333,0.33,0.501,0.495c-0.354,0.973-1.199,0.747-1.911,0.748
		C435.892,12.041,425.196,12.037,414.499,12.037z"/>
	<path fill-rule="evenodd" clip-rule="evenodd" fill="#F3F3F3" d="M449.699,10.268c0.248,0.002,0.494,0.005,0.741,0.007
		c0.431,0.004,0.86,0.009,1.29,0.013c-0.178,0.34-0.355,0.682-0.533,1.021c-0.469,0.2-0.938,0.398-1.406,0.599
		c-0.264-0.707-0.527-1.413-0.791-2.12C449.232,9.947,449.466,10.107,449.699,10.268z"/>
	<path fill-rule="evenodd" clip-rule="evenodd" fill="#E0E0E0" d="M64.758,8.787c0-0.75,0-1.5,0-2.251
		c22.914,0,45.828,0.001,68.743,0.001c0,0.75,0,1.5,0,2.25C110.586,8.787,87.672,8.787,64.758,8.787z"/>
	<path fill-rule="evenodd" clip-rule="evenodd" fill="#E0E0E0" d="M133.5,8.787c0-0.75,0-1.5,0-2.25c10.667,0,21.333,0,32,0
		c0,0.75,0,1.5,0,2.25C154.833,8.787,144.167,8.787,133.5,8.787z"/>
	<path fill-rule="evenodd" clip-rule="evenodd" fill="#F5F5F5" d="M469.273,9.307c-0.447,0.572-0.896,1.146-1.472,1.882
		c-0.579-0.672-1.071-1.242-1.323-1.535c0.328-0.773,0.539-1.306,0.781-1.823c0.121-0.26,0.297-0.496,0.445-0.742
		c0.182,0.258,0.394,0.5,0.535,0.778c0.242,0.476,0.439,0.974,0.655,1.464C469.021,9.322,469.148,9.314,469.273,9.307z"/>
	<path fill-rule="evenodd" clip-rule="evenodd" fill="#F6F6F6" d="M199.331,10.566c-1.081,0.027-1.823-0.692-1.819-1.764
		c0.004-1.002,0.716-1.731,1.716-1.756c1.021-0.024,1.752,0.646,1.803,1.652C201.086,9.805,200.417,10.54,199.331,10.566z"/>
	<path fill-rule="evenodd" clip-rule="evenodd" fill="#F0F0F0" d="M260.401,11.028c-0.182-0.401-0.526-0.814-0.494-1.198
		c0.027-0.338,0.474-0.643,0.735-0.962c0.276,0.347,0.74,0.674,0.776,1.044c0.036,0.358-0.366,0.761-0.577,1.144
		C260.695,11.047,260.548,11.037,260.401,11.028z"/>
	<path fill-rule="evenodd" clip-rule="evenodd" fill="#F2F2F2" d="M229.611,9.877c-0.495,0.444-0.812,0.729-1.128,1.014
		c-0.245-0.33-0.703-0.678-0.679-0.988c0.027-0.362,0.475-0.693,0.74-1.037C228.835,9.141,229.125,9.417,229.611,9.877z"/>
	<path fill-rule="evenodd" clip-rule="evenodd" fill="#F3F3F3" d="M447.999,10.786c-0.415-0.249-0.83-0.497-1.244-0.747
		c-0.062-0.051-0.12-0.104-0.182-0.153c-0.358-0.288-0.717-0.573-1.074-0.861c0.412-0.267,0.825-0.536,1.237-0.804
		c0.42-0.236,0.84-0.475,1.669-0.941C448.243,8.672,448.121,9.729,447.999,10.786z"/>
</g>
<rect x="-7.5" y="18.5" fill="#FFFFFF" stroke="#000000" stroke-miterlimit="10" width="649" height="25"/>
<rect x="21.5" y="21.5" fill="#FFFFFF" stroke="#000000" stroke-miterlimit="10" width="21" height="19"/>
<rect x="45.5" y="21.5" fill="#FFFFFF" stroke="#000000" stroke-miterlimit="10" width="220" height="17"/>
<line fill="none" stroke="#000000" stroke-miterlimit="10" x1="223.5" y1="21" x2="223.5" y2="38"/>
<circle fill="#FFFFFF" stroke="#000000" stroke-miterlimit="10" cx="240.851" cy="27.496" r="3.004"/>
<line fill="none" stroke="#000000" stroke-miterlimit="10" x1="242.607" y1="29.622" x2="246.32" y2="33.104"/>
<rect x="49.75" y="25.5" fill="none" width="53.75" height="11.75"/>
<text transform="matrix(1 0 0 1 49.75 34.0195)" font-family="'MyriadPro-Regular'" font-size="12">search bar</text>
<rect x="19.818" y="23.733" fill="none" width="22.268" height="22.267"/>
<text transform="matrix(1 0 0 1 24.7007 28.7031)"><tspan x="0" y="0" font-family="'MyriadPro-Regular'" font-size="7">icon </tspan><tspan x="-0.375" y="9" font-family="'MyriadPro-Regular'" font-size="7">logo</tspan></text>
<rect x="402.5" y="21.5" fill="#FFFFFF" stroke="#000000" stroke-miterlimit="10" width="21" height="19"/>
<rect x="401.818" y="23.733" fill="none" width="22.268" height="22.267"/>
<text transform="matrix(1 0 0 1 403.4844 28.7031)"><tspan x="0" y="0" font-family="'MyriadPro-Regular'" font-size="7">profile</tspan><tspan x="5.089" y="9" font-family="'MyriadPro-Regular'" font-size="7">pic</tspan></text>
<g>
	<rect x="427.741" y="25.629" fill="none" width="90.804" height="13.801"/>
	<text transform="matrix(1 0 0 1 427.7412 34.1484)" font-family="'MyriadPro-Regular'" font-size="12">name | Home [#]</text>
</g>
<g>
	<g>
		<path d="M546.288,39.055c0.068-1.138,0.07-2.273,0.253-3.401c0.373-2.3,2.661-3.193,4.711-3.453
			c1.973-0.249,3.933,0.781,4.926,2.464c0.631,1.067,0.408,2.662,0.4,3.849c-0.004,0.646,0.996,0.645,1,0
			c0.012-1.694,0.094-3.286-0.792-4.786c-0.988-1.674-3.039-2.4-4.856-2.545c-1.728-0.136-4.291,0.64-5.369,2.074
			c-1.279,1.703-1.149,3.769-1.272,5.799C545.249,39.699,546.249,39.695,546.288,39.055L546.288,39.055z"/>
	</g>
</g>
<g>
	<g>
		<path d="M551.388,30.336c-1.539,0.199-3.659,0-3.665-1.989c-0.006-2.019,2.305-3.818,4.199-2.942
			c1.039,0.48,1.328,1.752,1.132,2.781c-0.253,1.332-1.355,2.047-2.659,1.97c-0.645-0.038-0.641,0.962,0,1
			c4.012,0.238,5.207-5.812,1.275-6.896c-2.327-0.644-4.688,1.513-4.915,3.763c-0.274,2.733,2.347,3.61,4.633,3.314
			C552.018,31.254,552.025,30.253,551.388,30.336L551.388,30.336z"/>
	</g>
</g>
<g>
	<g>
		<path d="M556.578,26.139c0,1.445,0,2.891,0,4.336c0,0.645,1,0.645,1,0c0-1.445,0-2.891,0-4.336
			C557.578,25.494,556.578,25.494,556.578,26.139L556.578,26.139z"/>
	</g>
</g>
<g>
	<g>
		<path d="M555.543,28.626c1.265,0,2.528,0,3.793,0c0.645,0,0.645-1,0-1c-1.265,0-2.528,0-3.793,0
			C554.898,27.626,554.898,28.626,555.543,28.626L555.543,28.626z"/>
	</g>
</g>
<g>
	<g>
		<path d="M579.271,36.045c2.42,0.149,4.577,0.791,6.793,1.738c0.394,0.169,1.027-0.231,0.684-0.684
			c-1.256-1.65-2.643-3.04-4.334-4.244c0.061,0.228,0.12,0.456,0.18,0.684c1.013-1.398,1.374-2.263,0.361-3.756
			c-1.104-1.629-2.97-3.096-4.757-3.883c-2.451-1.079-6.693-0.097-8.597,1.699c-5.028,4.742,3.549,12.489,8.488,7.667
			c0.462-0.451-0.245-1.157-0.707-0.707c-4.249,4.148-11.408-2.963-6.755-6.494c1.558-1.183,3.85-1.559,5.75-1.528
			c2.541,0.04,7.367,3.715,5.353,6.498c-0.17,0.234-0.025,0.538,0.18,0.684c1.561,1.112,2.814,2.36,3.975,3.885
			c0.228-0.228,0.456-0.456,0.684-0.684c-2.37-1.015-4.714-1.716-7.297-1.875C578.626,35.005,578.63,36.006,579.271,36.045
			L579.271,36.045z"/>
	</g>
</g>
<g>
	<g>
		<path d="M607.838,22.388c-4.003,0.069-7.344,1.19-9.9,4.379c-2.129,2.656-2.699,6.513-1.243,9.574
			c3.018,6.345,13.269,4.66,17.808,1.272c2.451-1.829,2.826-4.967,2.207-7.769c-0.782-3.537-4.048-5.722-7.248-6.909
			c-2.068-0.768-6.609,0.619-7.293,2.983c-0.701,2.423,2.05,3.905,4.115,3c-0.244-0.188-0.489-0.376-0.734-0.564
			c-0.215,1.218-2.429,0.476-2.637,2.21c-0.034,0.285,0.254,0.481,0.5,0.5c1.02,0.078,1.201,0.141,0.872,1.083
			c-0.108,0.312,0.174,0.632,0.482,0.633c1.294,0.005,2.396-0.51,3.655-0.739c-0.205-0.117-0.41-0.233-0.615-0.35
			c1.016,2.825-3.979,2.071-3.979,4.303c0,0.525,0.284,0.73,0.741,0.911c0.896,0.354,0.759,1.069,1.289,1.6
			c0.308,0.308,1.039,0.387,1.366,0.53c0.337,0.148,0.749-0.021,0.752-0.432c0.019-2.421,2.33-2.703,3.342-4.515
			c0.496-0.888-0.203-2.032-0.61-2.782c-0.06,0.228-0.119,0.456-0.18,0.684c0.934-0.401,1.865-1.126,2.929-0.452
			c0.209,0.133,0.578,0.065,0.684-0.18c1.063-2.464-1.451-4.076-3.461-4.799c0,0.321,0,0.644,0,0.965
			c0.938-0.281,1.675-0.844,2.468-1.405c0.522-0.369,0.023-1.236-0.504-0.863c-0.712,0.504-1.376,1.049-2.229,1.304
			c-0.495,0.148-0.457,0.801,0,0.965c1.173,0.421,3.653,1.499,2.863,3.33c0.228-0.061,0.456-0.12,0.684-0.18
			c-1.384-0.878-2.562-0.139-3.937,0.452c-0.257,0.11-0.297,0.468-0.18,0.684c1.255,2.317-0.864,2.991-2.169,4.315
			c-0.647,0.657-0.692,1.617-0.699,2.478c0.251-0.144,0.502-0.288,0.752-0.432c-0.443-0.195-0.582-0.252-1.056-0.365
			c-0.154-0.037-0.584-1.118-0.739-1.273c-0.181-0.181-0.416-0.323-0.653-0.417c-0.563-0.222,1.356-1.175,1.391-1.19
			c1.527-0.73,2.747-1.702,2.101-3.5c-0.099-0.274-0.331-0.401-0.615-0.35c-1.162,0.212-2.182,0.709-3.39,0.704
			c0.161,0.211,0.321,0.422,0.482,0.633c0.607-1.742-0.153-2.22-1.837-2.349c0.167,0.167,0.333,0.333,0.5,0.5
			c0.107-0.891,2.347-0.502,2.602-1.944c0.08-0.455-0.321-0.745-0.734-0.564c-2.128,0.933-2.951-2.015-1.251-3.139
			c1.409-0.931,3-1.425,4.667-1.017c2.278,0.558,4.801,2.543,5.922,4.538c1.287,2.293,1.262,5.535-0.4,7.613
			c-1.338,1.673-3.732,2.444-5.712,2.976c-4.487,1.203-10.202,0.618-11.935-4.383c-0.994-2.872,0.677-6.195,2.516-8.288
			c2.067-2.353,5.291-2.918,8.252-2.969C608.482,23.377,608.483,22.377,607.838,22.388L607.838,22.388z"/>
	</g>
</g>
<g>
	<g>
		<path d="M597.18,30.433c1.458,0.103,2.881-0.212,4.336-0.181c-0.167-0.167-0.333-0.333-0.5-0.5
			c0.161,1.467-0.939,3.139,0.909,3.824c0-0.321,0-0.644,0-0.965c-0.443,0.18-1.683,1.155-2.055,0.501
			c-0.124-0.22-0.465-0.339-0.684-0.18c-0.469,0.341-0.778,0.681-1.083,1.174c-0.141,0.228-0.055,0.555,0.18,0.684
			c0.815,0.451,1.276,1.865,0.119,2.337c-0.589,0.24-0.332,1.208,0.266,0.965c1.847-0.754,1.83-3.221,0.119-4.165
			c0.061,0.228,0.12,0.456,0.18,0.684c0.241-0.271,0.482-0.543,0.724-0.814c-0.228-0.06-0.456-0.119-0.684-0.18
			c0.865,1.523,1.989,0.442,3.184-0.04c0.464-0.188,0.485-0.785,0-0.965c-0.692-0.256-0.11-2.271-0.175-2.859
			c-0.03-0.275-0.205-0.494-0.5-0.5c-1.455-0.031-2.878,0.283-4.336,0.181C596.536,29.387,596.54,30.388,597.18,30.433
			L597.18,30.433z"/>
	</g>
</g>
<rect x="182.5" y="163.5" fill="none" stroke="#FF0000" stroke-miterlimit="10" width="279" height="218"/>
<rect x="183.824" y="55.262" fill="none" width="201.356" height="43.282"/>
<text transform="matrix(1 0 0 1 183.8237 63.7812)" fill="#FF0000" font-family="'MyriadPro-Regular'" font-size="12">newpost form</text>
<rect x="470.5" y="50.5" fill="none" stroke="#FF0000" stroke-miterlimit="10" width="160" height="330"/>
<rect x="473.261" y="179.262" fill="none" width="97.739" height="18.738"/>
<text transform="matrix(1 0 0 1 473.2607 187.7812)" fill="#FF0000" font-family="'MyriadPro-Regular'" font-size="12">adspace container</text>
<rect x="8.5" y="50.5" fill="none" stroke="#FF0000" stroke-miterlimit="10" width="160" height="240"/>
<rect x="11.261" y="55.262" fill="none" width="201.355" height="43.282"/>
<text transform="matrix(1 0 0 1 11.2607 63.7812)" fill="#FF0000" font-family="'MyriadPro-Regular'" font-size="12">newsfeed sidebar container</text>
<rect x="183.824" y="166.262" fill="none" width="201.356" height="43.282"/>
<text transform="matrix(1 0 0 1 183.8237 174.7812)" fill="#FF0000" font-family="'MyriadPro-Regular'" font-size="12">newsfeed container</text>
<rect x="182.5" y="50.5" fill="none" stroke="#FF0000" stroke-miterlimit="10" width="279" height="107"/>
<rect x="184.5" y="69.5" fill="#FFFFFF" stroke="#000000" stroke-miterlimit="10" width="271" height="83"/>
<rect x="189.5" y="74.5" fill="#FFFFFF" stroke="#000000" stroke-miterlimit="10" width="21" height="19"/>
<rect x="188.818" y="76.733" fill="none" width="22.268" height="22.267"/>
<text transform="matrix(1 0 0 1 190.4844 81.7031)"><tspan x="0" y="0" font-family="'MyriadPro-Regular'" font-size="7">profile</tspan><tspan x="5.089" y="9" font-family="'MyriadPro-Regular'" font-size="7">pic</tspan></text>
<rect x="215.5" y="78.5" fill="none" stroke="#000000" stroke-miterlimit="10" width="223" height="24"/>
<rect x="222.281" y="84.868" fill="none" width="177.16" height="13.558"/>
<text transform="matrix(1 0 0 1 222.2808 93.3877)" font-family="'MyriadPro-Regular'" font-size="12">new post field</text>
<rect x="397.5" y="127.5" fill="none" stroke="#000000" stroke-miterlimit="10" width="43" height="18"/>
<rect x="402.724" y="131.505" fill="none" width="34.682" height="9.417"/>
<text transform="matrix(1 0 0 1 402.7236 140.0244)" font-family="'MyriadPro-Regular'" font-size="12">post</text>
<polygon fill="#FFFFFF" stroke="#FF0000" stroke-miterlimit="10" points="608.332,54.5 601.319,48.087 594.307,54.5 584.485,54.5 
	577.473,48.087 570.46,54.5 562.712,54.5 555.699,48.087 548.687,54.5 451.5,54.5 451.5,172.5 620.5,172.5 620.5,54.5 "/>
<g>
	<rect x="459" y="57.001" fill="none" width="112.666" height="46"/>
	<text transform="matrix(1 0 0 1 459 65.5205)" fill="#FF0000" font-family="'MyriadPro-Regular'" font-size="12">dropdown container</text>
</g>
<rect x="464.5" y="72.5" fill="none" stroke="#FF0000" stroke-miterlimit="10" width="147" height="24"/>
<rect x="464.5" y="102.5" fill="none" stroke="#FF0000" stroke-miterlimit="10" width="147" height="24"/>
<rect x="464.5" y="132.5" fill="none" stroke="#FF0000" stroke-miterlimit="10" width="147" height="24"/>
<rect x="466.261" y="73.928" fill="none" width="201.355" height="43.282"/>
<text transform="matrix(1 0 0 1 466.2607 82.4473)" fill="#FF0000" font-family="'MyriadPro-Regular'" font-size="12">drowpdown item</text>
<rect x="466.261" y="104.928" fill="none" width="201.355" height="43.282"/>
<text transform="matrix(1 0 0 1 466.2607 113.4473)" fill="#FF0000" font-family="'MyriadPro-Regular'" font-size="12">drowpdown item</text>
<rect x="466.261" y="134.928" fill="none" width="201.355" height="43.282"/>
<text transform="matrix(1 0 0 1 466.2607 143.4473)" fill="#FF0000" font-family="'MyriadPro-Regular'" font-size="12">drowpdown item</text>
<rect x="186.5" y="186.5" fill="none" stroke="#FF0000" stroke-miterlimit="10" width="267" height="110"/>
<rect x="186.5" y="304.5" fill="none" stroke="#FF0000" stroke-miterlimit="10" width="267" height="47"/>
<polygon fill="none" points="389.616,271.21 188.261,231.21 188.261,187.928 389.616,187.928 "/>
<text transform="matrix(1 0 0 1 188.2607 196.4473)" fill="#FF0000" font-family="'MyriadPro-Regular'" font-size="12">newsfeed item</text>
<rect x="187.78" y="306.874" fill="none" width="201.355" height="43.282"/>
<text transform="matrix(1 0 0 1 187.7798 315.3936)" fill="#FF0000" font-family="'MyriadPro-Regular'" font-size="12">newsfeed item</text>
<rect x="14.575" y="84.674" fill="none" width="153.017" height="204.878"/>
<text transform="matrix(1 0 0 1 14.5752 93.1934)"><tspan x="0" y="0" font-family="'MyriadPro-Regular'" font-size="12">important link (messages etc)</tspan><tspan x="0" y="14.4" font-family="'MyriadPro-Regular'" font-size="12">important link</tspan><tspan x="0" y="43.2" font-family="'MyriadPro-Regular'" font-size="12">link (groups events etc)</tspan><tspan x="0" y="57.601" font-family="'MyriadPro-Regular'" font-size="12">link</tspan><tspan x="0" y="72" font-family="'MyriadPro-Regular'" font-size="12">link</tspan><tspan x="0" y="86.4" font-family="'MyriadPro-Regular'" font-size="12">link</tspan><tspan x="0" y="100.801" font-family="'MyriadPro-Regular'" font-size="12">link</tspan><tspan x="0" y="115.2" font-family="'MyriadPro-Regular'" font-size="12">link</tspan><tspan x="0" y="129.601" font-family="'MyriadPro-Regular'" font-size="12">link</tspan><tspan x="0" y="158.4" font-family="'MyriadPro-Regular'" font-size="12">links to create content (event </tspan><tspan x="0" y="172.801" font-family="'MyriadPro-Regular'" font-size="12">group etc)</tspan></text>
<line fill="#FFFFFF" stroke="#000000" stroke-miterlimit="10" x1="15" y1="118.5" x2="111" y2="118.5"/>
<polygon fill="none" stroke="#000000" stroke-miterlimit="10" points="264.5,192.5 264.5,200.5 189.5,200.5 189.5,254.5 
	446.5,254.5 446.5,192.5 "/>
<rect x="288.5" y="204" fill="none" width="48" height="12"/>
<text transform="matrix(1 0 0 1 288.5 212.5195)" font-family="'MyriadPro-Regular'" font-size="12">content</text>
<rect x="191.5" y="256.5" fill="none" stroke="#000000" stroke-miterlimit="10" width="251" height="15"/>
<text transform="matrix(1 0 0 1 193.5 268)" font-family="'MyriadPro-Regular'" font-size="12">reply field</text>
<text transform="matrix(1 0 0 1 412.5 267.5)" font-family="'MyriadPro-Regular'" font-size="12">post</text>
<line fill="#FFFFFF" stroke="#000000" stroke-miterlimit="10" x1="403.5" y1="257" x2="403.5" y2="272"/>
<g>
	<g>
		<path d="M205.57,281c0.34,3.6-1.644,9.24,1.614,11.976c2.385,2.003,3.75-2.361,3.911-3.906c0.279-2.672,1.383-6.965-1.056-8.924
			c-1.66-1.334-4.627-1.827-4.648,1.032c-0.005,0.645,0.995,0.645,1,0c0.012-1.625,1.532-1.117,2.456-0.63
			c1.084,0.571,1.462,1.337,1.582,2.519c0.201,1.98-0.122,4.036-0.334,6.003c-0.116,1.077-0.29,2.091-1.026,2.935
			c-1.621,1.857-2.605-2.597-2.668-3.465c-0.183-2.515,0.408-5.021,0.169-7.539C206.51,280.363,205.51,280.357,205.57,281
			L205.57,281z"/>
	</g>
</g>
<g>
	<g>
		<path d="M210.93,283.443c3.006,0.413,3.607-1.998,3.896-4.471c0.092-0.787,0.91-4.69,2.144-2.688
			c0.744,1.207,0.886,2.974,0.905,4.358c0.009,0.645,1.009,0.646,1,0c-0.022-1.627-0.5-6.986-3.278-5.699
			c-2.916,1.351-0.408,8.084-4.4,7.535C210.565,282.393,210.293,283.355,210.93,283.443L210.93,283.443z"/>
	</g>
</g>
<g>
	<g>
		<path d="M218.196,280.965c1.862-0.067,6.118-1.405,7.455,0.401c1.208,1.633,0.722,4.964,0.313,6.779
			c-0.644,2.867-4.205,2.708-6.535,2.837c-2.984,0.164-5.765-0.909-8.724-1.031c-0.645-0.026-0.643,0.974,0,1
			c4.9,0.202,15.131,3.874,16.423-3.551c0.356-2.045,0.494-5.039-0.816-6.811c-1.585-2.144-6.001-0.701-8.117-0.625
			C217.553,279.988,217.551,280.988,218.196,280.965L218.196,280.965z"/>
	</g>
</g>
<text transform="matrix(1 0 0 1 230.3335 288.668)" font-family="'MyriadPro-Regular'" font-size="12">likes, reactions, share button etc</text>
<rect x="474.5" y="193.5" fill="#FFFFFF" stroke="#000000" stroke-miterlimit="10" width="150" height="57"/>
<g>
	<text transform="matrix(1 0 0 1 477 205)" fill="#FF0000" font-family="'MyriadPro-Regular'" font-size="12">adspace item</text>
</g>
<circle fill="#FF0000" cx="550.125" cy="339.898" r="2.227"/>
<circle fill="#FF0000" cx="550.125" cy="345.836" r="2.227"/>
<circle fill="#FF0000" cx="550.125" cy="351.773" r="2.227"/>
<rect x="482.5" y="209" fill="none" width="94" height="37.5"/>
<text transform="matrix(1 0 0 1 482.5 217.5195)"><tspan x="0" y="0" font-family="'MyriadPro-Regular'" font-size="12">trending topic</tspan><tspan x="0" y="14.4" font-family="'MyriadPro-Regular'" font-size="12">trending topic</tspan><tspan x="0" y="28.801" font-family="'MyriadPro-Regular'" font-size="12">etc</tspan></text>
<rect x="474.5" y="256.5" fill="#FFFFFF" stroke="#000000" stroke-miterlimit="10" width="150" height="57"/>
<g>
	<text transform="matrix(1 0 0 1 477 268)" fill="#FF0000" font-family="'MyriadPro-Regular'" font-size="12">adspace item</text>
</g>
<text transform="matrix(1 0 0 1 478 309.5)" font-family="'MyriadPro-Regular'" font-size="12">content</text>
<rect x="477.5" y="274.5" fill="none" stroke="#000000" stroke-miterlimit="10" width="138" height="23"/>
<g>
	<g>
		<path d="M484.193,279.001c0.226,4.286,1.301,8.472,1.385,12.769c0.327-0.044,0.654-0.089,0.982-0.133
			c-0.858-2.901-1.686-6.12-1.236-9.157c0.374-2.537,2.58-2.739,4.577-1.658c3.261,1.765-1.205,4.811-3.055,4.91
			c0.118,0.284,0.235,0.569,0.354,0.854c2.155-1.74,6.683-0.772,7.592,1.938c1.226,3.649-6.292,3.699-7.899,1.971
			c-0.439-0.474-1.146,0.235-0.707,0.707c2.31,2.483,9.223,2.034,9.68-1.917c0.513-4.435-6.745-5.526-9.372-3.405
			c-0.341,0.274-0.06,0.876,0.354,0.854c2.133-0.115,4.859-1.45,5.007-3.911c0.146-2.447-2.501-4.011-4.773-3.646
			c-5.043,0.809-2.372,9.729-1.484,12.729c0.158,0.535,0.994,0.441,0.982-0.133c-0.084-4.299-1.159-8.482-1.385-12.769
			C485.159,278.359,484.159,278.356,484.193,279.001L484.193,279.001z"/>
	</g>
</g>
<g>
	<g>
		<path d="M496.039,283.77c-0.029,1.842-0.214,3.665-0.147,5.512c0.058,1.6,0.165,4.188,1.648,5.212
			c1.592,1.099,3.498-0.224,4.249-1.69c1.24-2.427,0.961-5.81,0.635-8.417c-0.079-0.631-1.08-0.639-1,0
			c0.264,2.113,0.328,4.283-0.044,6.388c-0.306,1.731-2.532,4.723-3.858,2.073c-1.319-2.638-0.528-6.251-0.482-9.077
			C497.05,283.124,496.05,283.125,496.039,283.77L496.039,283.77z"/>
	</g>
</g>
<g>
	<g>
		<path d="M504.809,281.462c0.269,2.225-0.184,6.066,2.555,6.908c1.42,0.437,2.841-0.434,3.59-1.583
			c0.847-1.298,0.896-3.062,1.01-4.556c0.049-0.644-0.951-0.639-1,0c-0.138,1.81-0.631,6.381-3.629,5.071
			c-1.747-0.763-1.342-4.315-1.525-5.841C505.732,280.83,504.731,280.822,504.809,281.462L504.809,281.462z"/>
	</g>
</g>
<g>
	<g>
		<path d="M506.809,288.231c0.139,1.946,0.154,3.896,0.154,5.846c0,0.645,1,0.645,1,0c0-1.95-0.016-3.899-0.154-5.846
			C507.763,287.592,506.763,287.588,506.809,288.231L506.809,288.231z"/>
	</g>
</g>
<g>
	<path fill="#3C5A96" d="M521.001,286.847c0-3.077,1.23-4.461,4.308-5.23c2.615-0.615,5.538,0.308,6,3.23
		c4-4.615,16-11.23,20.462-4.153c5.23-2.77,14.461-7.692,17.384,0.461c3.385-0.308,9.539-2.769,10.616,2.154
		c0.308,1.846-0.462,4.153-2.77,3.385c2.153,3.692-2.77,6.461-5.847,7.384c-4.308,1.385-9.23-0.615-12.153-3.846
		c0,0,0.153,0,0.153,0.154c-4.615,4-19.691,8-19.691-2c-2,3.384-16,8.153-17.077,2.769c-3.692,1.539-8.923,0.154-7.692-4.769
		c0.923-3.231,5.077-3.539,6-0.154"/>
	<g>
		<path d="M521.501,286.847c0.072-2.41,0.984-3.783,3.31-4.573c2.512-0.854,5.355-0.129,6.016,2.706
			c0.083,0.356,0.588,0.497,0.836,0.221c4.024-4.479,14.973-11.104,19.677-4.255c0.159,0.232,0.43,0.314,0.684,0.18
			c4.922-2.604,13.666-7.37,16.649,0.162c0.076,0.191,0.248,0.394,0.482,0.367c1.715-0.192,3.393-0.612,5.105-0.816
			c0.974-0.115,1.944-0.093,2.898,0.138c2.336,0.564,3.293,5.963-0.024,5.235c-0.443-0.097-0.761,0.336-0.564,0.734
			c1.885,3.839-3.408,6.059-6.271,6.85c-3.972,1.098-8.265-1.125-10.943-3.917c-0.162,0.278-0.324,0.558-0.486,0.836
			c-0.281-0.4-0.551-0.436-0.811-0.107c-0.322,0.232-0.666,0.435-1.007,0.639c-0.863,0.517-1.788,0.932-2.718,1.31
			c-1.925,0.784-3.976,1.293-6.039,1.524c-4.177,0.469-8.199-0.946-8.331-5.693c-0.015-0.511-0.658-0.664-0.932-0.252
			c-1.969,2.97-14.764,8.196-16.163,2.888c-0.065-0.246-0.362-0.444-0.615-0.35c-2.091,0.782-4.599,0.931-6.37-0.644
			c-3.294-2.927,2.559-8.738,4.328-3.664c0.211,0.604,1.178,0.345,0.965-0.266c-1.427-4.089-6.305-3.184-7.093,0.804
			c-0.98,4.952,4.96,6.034,8.436,4.734c-0.205-0.117-0.41-0.233-0.615-0.35c0.905,3.435,5.351,2.941,8.033,2.427
			c3.273-0.628,8.004-2.128,9.958-5.076c-0.311-0.084-0.621-0.168-0.932-0.252c0.295,10.585,15.359,6.671,20.545,2.354
			c0.172-0.144,0.182-0.424,0.078-0.605c-0.115-0.204-0.219-0.325-0.452-0.385c-0.488-0.122-0.835,0.473-0.486,0.836
			c3.597,3.749,8.686,5.439,13.662,3.623c3.265-1.191,6.991-3.963,5.123-7.767c-0.188,0.244-0.376,0.489-0.564,0.734
			c3.476,0.762,4.123-3.227,2.708-5.639c-1.738-2.959-6.575-1.534-9.171-1.062c-1.477,0.269-2.066-2.254-3.265-3.078
			c-1.367-0.941-2.841-1.248-4.483-1.215c-3.922,0.078-7.768,2.296-11.139,4.08c0.228,0.06,0.456,0.119,0.684,0.18
			c-5.152-7.503-16.721-0.985-21.247,4.052c0.278,0.073,0.557,0.147,0.836,0.221c-0.741-3.18-3.639-4.141-6.615-3.58
			c-3.083,0.581-4.584,2.699-4.675,5.713C520.481,287.492,521.481,287.49,521.501,286.847L521.501,286.847z"/>
	</g>
</g>
<g>
	<path fill="#3B5998" d="M545.847,281.616c2-0.923,5.385-0.308,4.616,2.615c-0.462,1.846-1.385,0.615-2.309,1.692
		c-0.769,0.77-0.615,1.692-0.615,2.77"/>
	<g>
		<path d="M545.979,282.099c0.916-0.383,1.858-0.481,2.823-0.226c1.242,0.329,2.037,2.844,0.337,3.032
			c-1.958,0.218-2.12,2.231-2.101,3.788c0.008,0.645,1.008,0.646,1,0c-0.013-0.965-0.175-2.359,0.994-2.763
			c0.426-0.147,0.809-0.086,1.211-0.335c0.891-0.549,0.941-2.149,0.69-3.03c-0.599-2.104-3.62-2.101-5.221-1.432
			C545.128,281.379,545.385,282.347,545.979,282.099L545.979,282.099z"/>
	</g>
</g>
<g>
	<path fill="#3B5998" d="M547.539,291.462"/>
	<g>
		<path d="M547.539,291.962c0.645,0,0.645-1,0-1S546.895,291.962,547.539,291.962L547.539,291.962z"/>
	</g>
</g>
<g>
	<path fill="#3B5998" d="M562.001,282.386c0-2.616,4.308-2.462,5.077-0.462c0.461,1.23-0.77,1.846-0.77,3.077
		c0,0.769,0.462,1.846,0.77,2.615"/>
	<g>
		<path d="M562.501,282.386c0.094-1.904,2.782-1.724,3.817-0.736c0.895,0.853-0.251,2.007-0.468,2.923
			c-0.248,1.044,0.369,2.242,0.745,3.177c0.238,0.591,1.205,0.333,0.965-0.266c-0.358-0.89-0.913-1.94-0.681-2.92
			c0.153-0.646,0.696-1.13,0.772-1.812c0.125-1.113-0.578-1.968-1.531-2.442c-1.832-0.912-4.507-0.232-4.62,2.077
			C561.47,283.03,562.47,283.027,562.501,282.386L562.501,282.386z"/>
	</g>
</g>
<g>
	<path fill="#3B5998" d="M568.924,290.693"/>
	<g>
		<path d="M568.924,291.193c0.645,0,0.645-1,0-1S568.279,291.193,568.924,291.193L568.924,291.193z"/>
	</g>
</g>
<g>
	<path fill="#3B5998" d="M526.309,284.847c0.77-1.385,2.615-0.77,2.923,0.615s-1.385,1.847-1.077,3.539"/>
	<g>
		<path d="M526.74,285.099c0.789-1.242,2.48,0.035,1.875,1.222c-0.479,0.939-1.114,1.536-0.961,2.681c0.084,0.63,1.086,0.638,1,0
			c-0.209-1.561,1.763-2.526,0.881-4.165c-0.796-1.482-2.729-1.707-3.658-0.241C525.53,285.141,526.396,285.642,526.74,285.099
			L526.74,285.099z"/>
	</g>
</g>
<g>
	<path fill="#3B5998" d="M528.616,291.616"/>
	<g>
		<path d="M528.616,292.116c0.645,0,0.645-1,0-1S527.972,292.116,528.616,292.116L528.616,292.116z"/>
	</g>
</g>
<g>
	<g>
		<path d="M582.867,278.482c1.298,0.2,2.567,0.262,3.883,0.268c0.648,0.003,0.64-0.965,0-1c-2.367-0.132-2.452,3.449-2.537,5.046
			c-0.103,1.951,0.034,3.92,0.179,5.866c0.059,0.786,0.131,1.571,0.203,2.355c0.134,1.45,0.25,1.461-1.345,1.482
			c0.044,0.327,0.089,0.654,0.133,0.982c0.982-0.189,1.88-0.228,2.867-0.232c0.645-0.004,0.645-1.004,0-1
			c-1.069,0.006-2.085,0.066-3.133,0.268c-0.562,0.108-0.422,0.99,0.133,0.982c0.765-0.011,1.398-0.079,2.133-0.268
			c0.202-0.052,0.385-0.266,0.367-0.482c-0.152-1.869-1.871-14.16,1-14c0-0.333,0-0.667,0-1c-1.23-0.005-2.391-0.043-3.617-0.232
			C582.502,277.421,582.231,278.384,582.867,278.482L582.867,278.482z"/>
	</g>
</g>
<g>
	<g>
		<path d="M589.25,283.5c-0.023,2.498-1.055,10.031,3.633,8.482c0.609-0.201,0.349-1.168-0.266-0.965
			c-3.441,1.138-2.385-5.663-2.367-7.518C590.256,282.854,589.256,282.855,589.25,283.5L589.25,283.5z"/>
	</g>
</g>
<g>
	<g>
		<path d="M587.367,287.732c1.286,0.237,2.578,0.268,3.883,0.268c0.645,0,0.645-1,0-1c-1.213,0-2.421-0.011-3.617-0.232
			C587.003,286.651,586.733,287.615,587.367,287.732L587.367,287.732z"/>
	</g>
</g>
<g>
	<g>
		<path d="M595.117,288.982c1.375,0.275,3.394,0.388,3.926-1.265c0.365-1.133-0.561-2.351-1.644-2.595
			c-1.762-0.396-3.751,1.821-3.825,3.428c-0.124,2.681,2.891,3.975,5.176,3.699c0.632-0.076,0.64-1.077,0-1
			c-1.644,0.198-4.062-0.456-4.188-2.454c-0.064-1.043,1.371-2.883,2.571-2.708c0.567,0.082,1.056,0.682,0.969,1.262
			c-0.168,1.123-2.008,0.811-2.72,0.668C594.753,287.892,594.485,288.855,595.117,288.982L595.117,288.982z"/>
	</g>
</g>
<g>
	<g>
		<path d="M601.018,288.383c0.189,0.982,0.228,1.88,0.232,2.867c0.004,0.646,0.985,0.644,1,0c0.055-2.475,0.662-6.076,2.422-7.924
			c1.668-1.75,2.139,2.452,2.173,3.203c0.057,1.242-0.074,2.48-0.095,3.721c0.333,0,0.667,0,1,0
			c-0.228-2.559,0.281-5.516,2.752-6.818c-0.228-0.06-0.456-0.119-0.684-0.18c1.399,2.354,1.196,5.111,1.182,7.748
			c-0.004,0.645,0.996,0.645,1,0c0.016-2.828,0.179-5.734-1.318-8.252c-0.144-0.242-0.441-0.308-0.684-0.18
			c-2.771,1.461-3.506,4.773-3.248,7.682c0.057,0.633,0.989,0.654,1,0c0.028-1.714,0.909-8.965-2.637-8.231
			c-3.095,0.639-3.808,6.729-3.863,9.231c0.333,0,0.667,0,1,0c-0.006-1.069-0.066-2.085-0.268-3.133
			C601.86,287.484,600.896,287.753,601.018,288.383L601.018,288.383z"/>
	</g>
</g>
<rect x="296.602" y="25.516" fill="none" width="133.16" height="16.474"/>
<text transform="matrix(1 0 0 1 296.6021 34.0352)" fill="#3C5A96" font-family="'MyriadPro-Regular'" font-size="12">#3C5A96</text>
<circle fill="#FF0000" cx="310.125" cy="357.898" r="2.227"/>
<circle fill="#FF0000" cx="310.125" cy="363.836" r="2.227"/>
<circle fill="#FF0000" cx="310.125" cy="369.773" r="2.227"/>
<g>
	<g>
		<path fill="#FF0000" d="M331.87,358.027c1.098,10.247,0.294,20.856,0,31.136c0.284-0.118,0.569-0.235,0.854-0.354
			c-1.521-1.4-3.309-2.438-4.606-4.075c-0.235,0.235-0.472,0.472-0.707,0.707c1.5,1.555,3.315,2.688,4.961,4.075
			c0.207,0.175,0.504,0.206,0.707,0c1.425-1.441,2.795-2.884,4.505-3.997c0.538-0.351,0.038-1.217-0.504-0.863
			c-1.567,1.02-2.87,2.283-4.176,3.614c-0.545,0.556-4.434-3.171-4.786-3.536c-0.459-0.476-1.097,0.215-0.707,0.707
			c1.306,1.647,3.074,2.666,4.606,4.075c0.322,0.297,0.841,0.091,0.854-0.354c0.294-10.279,1.098-20.889,0-31.136
			C332.803,357.393,331.802,357.387,331.87,358.027L331.87,358.027z"/>
	</g>
</g>
<g>
	<g>
		<path fill="#FF0000" d="M348.67,363.344c-2.352-2.11-7.294-6.16-9.296-1.219c-1.419,3.502,1.317,6.38,4.791,5.056
			c3.932-1.5,6.359-5.628,10.713-6.096c1.097-0.118,2.245,0.008,3.25,0.471c2.374,1.095,0.452,4.456-1.244,5.13
			c-2.585,1.026-6.062-2.015-7.859-3.52c-0.491-0.411-1.202,0.293-0.707,0.707c2.229,1.867,6.994,5.773,9.985,3.182
			c2.812-2.438,2.409-6.222-1.413-6.906c-3.987-0.714-6.693,1.785-9.627,3.989c-1.596,1.199-4.626,3.63-6.534,1.847
			c-2.15-2.01,0.135-5.735,2.846-5.119c1.707,0.389,3.132,2.058,4.389,3.186C348.441,364.48,349.15,363.775,348.67,363.344
			L348.67,363.344z"/>
	</g>
</g>
<g>
	<rect x="336.575" y="369.038" fill="none" width="31.399" height="11.412"/>
	<text transform="matrix(1 0 0 1 336.5752 377.5576)" fill="#FF0000" font-family="'MyriadPro-Regular'" font-size="12">scroll</text>
</g>
</svg>
